<svg width="15" height="18" viewBox="0 0 15 18" fill="none" xmlns="http://www.w3.org/2000/svg">
<g clip-path="url(#clip0_1_10478)">
<path d="M13.1098 7.20002H4.03976V4.85002C4.04544 4.82365 4.04544 4.79639 4.03976 4.77003C4.03844 4.35468 4.11928 3.94317 4.27762 3.55918C4.43596 3.1752 4.66867 2.82633 4.96236 2.53263C5.25606 2.23894 5.60494 2.00622 5.98893 1.84788C6.37291 1.68954 6.78442 1.60871 7.19977 1.61003C8.02926 1.60992 8.82553 1.93599 9.41673 2.51783C10.0079 3.09968 10.3466 3.89062 10.3598 4.72001V5.23002C10.3598 5.33593 10.3808 5.44077 10.4216 5.53849C10.4624 5.63621 10.5223 5.72485 10.5976 5.79927C10.673 5.87368 10.7623 5.93242 10.8605 5.97203C10.9588 6.01164 11.0639 6.03133 11.1698 6.03001C11.3819 6.03001 11.5854 5.94572 11.7355 5.7957C11.8855 5.64567 11.9698 5.44219 11.9698 5.23002V4.75001C11.9685 4.12492 11.844 3.50622 11.6036 2.92921C11.3632 2.3522 11.0115 1.8282 10.5685 1.38713C10.1256 0.946047 9.60011 0.59653 9.0221 0.358531C8.44409 0.120532 7.82486 -0.00130407 7.19977 1.05258e-05C6.57383 9.14447e-06 5.95404 0.123485 5.37588 0.363322C4.79772 0.60316 4.27254 0.954649 3.8304 1.39772C3.38826 1.84078 3.03785 2.36672 2.79922 2.94538C2.5606 3.52405 2.43845 4.1441 2.43977 4.77003V7.20002H1.33977C0.98703 7.20002 0.648738 7.34016 0.399315 7.58958C0.149891 7.839 0.00976563 8.17727 0.00976562 8.53001V16.25C0.0399421 16.5417 0.166419 16.8151 0.369228 17.027C0.572038 17.2389 0.839628 17.3771 1.12976 17.42H13.3398C13.5921 17.361 13.8215 17.229 13.9993 17.0405C14.1771 16.852 14.2955 16.6154 14.3398 16.36V8.42002C14.3163 8.10253 14.1789 7.80419 13.9529 7.58C13.7269 7.3558 13.4274 7.22087 13.1098 7.20002ZM7.83977 13.5H6.53977C6.32759 13.5 6.12411 13.4157 5.97408 13.2657C5.82405 13.1157 5.73977 12.9122 5.73977 12.7C5.73844 12.5941 5.75816 12.489 5.79777 12.3908C5.83738 12.2926 5.8961 12.2032 5.97052 12.1278C6.04494 12.0525 6.13357 11.9927 6.23129 11.9519C6.32901 11.911 6.43386 11.89 6.53977 11.89H7.83977C7.94567 11.89 8.05052 11.911 8.14824 11.9519C8.24596 11.9927 8.3346 12.0525 8.40902 12.1278C8.48343 12.2032 8.54215 12.2926 8.58176 12.3908C8.62138 12.489 8.64109 12.5941 8.63977 12.7C8.63977 12.9122 8.55548 13.1157 8.40545 13.2657C8.25542 13.4157 8.05194 13.5 7.83977 13.5Z" fill="#808994"/>
</g>
<defs>
<clipPath id="clip0_1_10478">
<rect width="14.39" height="17.4" fill="white"/>
</clipPath>
</defs>
</svg>
