<svg width="17" height="17" viewBox="0 0 17 17" fill="none" xmlns="http://www.w3.org/2000/svg">
<g clip-path="url(#clip0_2015_2986)">
<path d="M14.24 12.4399H1.79C0.80141 12.4399 0 13.2414 0 14.2299C0 15.2185 0.80141 16.0199 1.79 16.0199H14.24C15.2286 16.0199 16.03 15.2185 16.03 14.2299C16.03 13.2414 15.2286 12.4399 14.24 12.4399Z" fill="#808994"/>
<path d="M14.24 6.42004H1.79C0.80141 6.42004 0 7.22145 0 8.21004C0 9.19863 0.80141 10 1.79 10H14.24C15.2286 10 16.03 9.19863 16.03 8.21004C16.03 7.22145 15.2286 6.42004 14.24 6.42004Z" fill="#808994"/>
<path d="M14.24 0H1.79C0.80141 0 0 0.80141 0 1.79C0 2.77859 0.80141 3.58 1.79 3.58H14.24C15.2286 3.58 16.03 2.77859 16.03 1.79C16.03 0.80141 15.2286 0 14.24 0Z" fill="#808994"/>
</g>
<defs>
<clipPath id="clip0_2015_2986">
<rect width="16.03" height="16.03" fill="white"/>
</clipPath>
</defs>
</svg>
