<svg width="16" height="16" viewBox="0 0 16 16" fill="none" xmlns="http://www.w3.org/2000/svg">
<path d="M13.939 7.2695H3.97264C2.9604 7.2695 2.13867 6.44778 2.13867 5.43553C2.13867 4.42329 2.9604 3.60156 3.97264 3.60156H13.9367C14.9489 3.60156 15.7706 4.42329 15.7706 5.43553C15.7706 6.44778 14.9512 7.2695 13.939 7.2695Z" fill="#FF4A4A"/>
<path d="M13.938 7.40432H3.97169C2.886 7.40432 2 6.52062 2 5.43263C2 4.34464 2.8837 3.46094 3.97169 3.46094H13.9357C15.0214 3.46094 15.9074 4.34464 15.9074 5.43263C15.9074 6.52062 15.0237 7.40432 13.938 7.40432ZM3.97169 3.73638C3.03749 3.73638 2.27544 4.49613 2.27544 5.43263C2.27544 6.36912 3.03749 7.12888 3.97169 7.12888H13.9357C14.8699 7.12888 15.632 6.36912 15.632 5.43263C15.632 4.49843 14.8722 3.73638 13.9357 3.73638H3.97169Z" fill="#91000A"/>
<path d="M13.072 14.8517H4.78815C3.84477 14.8517 3.07812 14.0874 3.07812 13.1417V8.05752C3.07812 7.6214 3.43161 7.26562 3.87001 7.26562H13.9901C14.4262 7.26562 14.782 7.61911 14.782 8.05752V13.144C14.782 14.0874 14.0177 14.8517 13.072 14.8517Z" fill="#FF4A4A"/>
<path d="M13.073 14.9943H4.78915C3.77002 14.9943 2.94141 14.1657 2.94141 13.1466V8.06242C2.94141 7.55056 3.35916 7.13281 3.87102 7.13281H13.9911C14.503 7.13281 14.9207 7.55056 14.9207 8.06242V13.1489C14.9207 14.1657 14.0921 14.9943 13.073 14.9943ZM3.87102 7.40825C3.51065 7.40825 3.21685 7.70206 3.21685 8.06242V13.1489C3.21685 14.0165 3.92151 14.7212 4.78915 14.7212H13.073C13.9406 14.7212 14.6453 14.0165 14.6453 13.1489V8.06242C14.6453 7.70206 14.3515 7.40825 13.9911 7.40825H3.87102Z" fill="#91000A"/>
<path d="M15.734 5.3125C15.7363 5.35382 15.7386 5.39743 15.7386 5.43874C15.7386 5.94372 15.5343 6.40278 15.2015 6.73561C14.871 7.06613 14.4119 7.27271 13.9046 7.27271H13.8954C13.8748 7.27042 13.8541 7.27042 13.8335 7.27042H8.53125V6.80447C10.9574 6.79299 13.799 6.77922 14.086 6.77922C14.7791 6.77922 15.5664 6.24211 15.734 5.3125Z" fill="#C62020"/>
<path d="M13.9068 3.60156C14.8754 3.60156 15.6696 4.35443 15.7362 5.307C15.5686 6.23661 14.7813 6.77371 14.0904 6.77371C13.8035 6.77371 10.9619 6.78749 8.53572 6.79896V3.60156H13.9068ZM8.53572 7.80432C11.0767 7.70332 13.8747 7.62758 14.5518 7.60921C14.6757 7.7653 14.7515 7.9627 14.7515 8.17846V13.017C14.7515 13.0859 14.7469 13.1547 14.74 13.2213C14.5702 13.6184 13.8999 14.2519 13.0346 14.2519H8.09961V7.82268C8.24422 7.81579 8.39112 7.80891 8.53572 7.80432Z" fill="#FF2B3F"/>
<path d="M13.901 7.26562C14.1649 7.28399 14.399 7.41253 14.5551 7.60993C13.8757 7.62829 11.08 7.70174 8.53906 7.80503V7.26562H13.901Z" fill="#C62020"/>
<path d="M7.52702 7.26562H8.53467V7.80273C8.38777 7.80962 8.24317 7.81421 8.09856 7.8211V7.64206L7.50177 7.68797V7.84634C6.41149 7.89455 5.43827 7.94734 4.80017 8.00243C4.38471 8.03915 3.87285 8.36509 3.87285 8.78743C3.87285 10.0751 3.82924 12.2029 3.82924 12.6C3.82924 13.362 4.08173 14.2526 5.41302 14.2526H7.50177V14.3903L8.09856 14.4592V14.2526H13.0335C13.9012 14.2526 14.5691 13.6191 14.739 13.222C14.638 14.1379 13.8598 14.8517 12.9165 14.8517H4.8828C3.87056 14.8517 3.04883 14.03 3.04883 13.0177V8.17917C3.04883 7.69256 3.42985 7.29317 3.90958 7.26562H7.52702Z" fill="#D8000F"/>
<path d="M8.53499 6.79688V7.26283H7.52734C7.52964 7.15036 7.53193 6.98968 7.53423 6.80147C7.85328 6.79917 8.19069 6.79917 8.53499 6.79688Z" fill="#C62020"/>
<path d="M8.53591 3.60156V6.79896C8.19161 6.80126 7.85419 6.80126 7.53514 6.80355C7.54203 6.27333 7.54891 5.52735 7.54891 5.02696C7.54891 4.17769 6.92917 4.63676 6.40125 5.37126C5.91464 6.05068 5.91923 6.15168 5.55198 6.01396C5.18472 5.87624 5.09291 5.04992 5.06996 4.84334C5.047 4.63676 4.61089 4.77448 4.19773 5.09582C3.80064 5.40569 3.51372 5.24273 3.53208 4.70562C3.54586 4.31312 3.78228 3.8793 3.96361 3.60156H8.53591Z" fill="#D8000F"/>
<path d="M8.10069 14.2578V14.4644L7.50391 14.3955V14.2578H8.10069Z" fill="#C62020"/>
<path d="M8.10069 7.82812V14.2596H7.50391V7.85337C7.69901 7.84419 7.8987 7.83501 8.10069 7.82812Z" fill="#D8000F"/>
<path d="M8.10069 7.64844V7.82747C7.8987 7.83665 7.69901 7.84584 7.50391 7.85272V7.69434L8.10069 7.64844Z" fill="#C62020"/>
<path d="M7.54775 5.02696C7.54775 5.52735 7.54086 6.27563 7.53397 6.80355C6.11087 6.81044 5.02288 6.81732 5.02288 6.81732C3.64568 6.81732 2.68164 6.434 2.68164 5.16468C2.68164 3.89537 3.94178 3.60156 3.94178 3.60156H3.96244C3.78111 3.88159 3.54469 4.31541 3.53091 4.70562C3.51255 5.24273 3.79947 5.40569 4.19656 5.09582C4.60972 4.77448 5.04583 4.63676 5.06879 4.84334C5.09174 5.04992 5.18355 5.87624 5.55081 6.01396C5.91806 6.15168 5.91347 6.04839 6.40008 5.37126C6.92801 4.63676 7.54775 4.17769 7.54775 5.02696Z" fill="#FF2B3F"/>
<path d="M7.53325 6.80355C7.53095 6.99177 7.52865 7.15244 7.52636 7.26491H3.964C3.94564 7.26491 3.92728 7.26491 3.90892 7.26721C2.91045 7.24885 2.10938 6.4363 2.10938 5.43553C2.10938 4.93056 2.31366 4.47149 2.64648 4.13867C2.97931 3.80814 3.43608 3.60156 3.94335 3.60156C3.94335 3.60156 2.68321 3.89537 2.68321 5.16468C2.68321 6.434 3.64725 6.81732 5.02445 6.81732C5.02445 6.81732 6.11014 6.81044 7.53325 6.80355Z" fill="#D8000F"/>
<path d="M7.50066 7.85156V14.2578H5.4119C4.08061 14.2578 3.82812 13.3672 3.82812 12.6052C3.82812 12.2081 3.87174 10.0803 3.87174 8.79265C3.87174 8.37031 4.3836 8.04437 4.79905 8.00764C5.43945 7.95256 6.41037 7.89976 7.50066 7.85156Z" fill="#FF2B3F"/>
<path d="M13.9052 7.28235H3.90902C3.4224 7.27317 2.96793 7.07807 2.62592 6.73147C2.28392 6.38487 2.0957 5.92581 2.0957 5.4369C2.0957 4.94341 2.28851 4.48204 2.63511 4.13315C2.984 3.78426 3.44765 3.59375 3.93886 3.59375H13.9029C14.8692 3.59375 15.6772 4.34662 15.7438 5.31066C15.746 5.35198 15.7483 5.39559 15.7483 5.4392C15.7483 5.93269 15.5555 6.39406 15.2089 6.74295C14.8623 7.08954 14.3987 7.28235 13.9052 7.28235ZM3.94115 3.6167C3.45454 3.6167 2.99777 3.80722 2.65347 4.14922C2.30917 4.49352 2.12095 4.95029 2.12095 5.4369C2.12095 5.91892 2.30687 6.3711 2.64429 6.7154C2.9817 7.05741 3.43159 7.25022 3.91131 7.2594H13.9075C14.3941 7.2594 14.8509 7.06888 15.1952 6.72688C15.5395 6.38258 15.7277 5.92581 15.7277 5.4392C15.7277 5.39559 15.7254 5.35198 15.7231 5.31295C15.6588 4.36269 14.86 3.6167 13.9052 3.6167H3.94115Z" fill="#91000A"/>
<path d="M12.9185 14.8668H4.88256C3.86572 14.8668 3.03711 14.0405 3.03711 13.0214V8.18513C3.03711 7.69622 3.42043 7.28995 3.90704 7.26011C3.9254 7.26011 3.94377 7.25781 3.96213 7.25781H13.8344C13.8573 7.25781 13.878 7.25781 13.8963 7.26011C14.1557 7.27618 14.3967 7.40471 14.5597 7.6067C14.6928 7.77197 14.7617 7.97166 14.7617 8.18283V13.0214C14.7617 13.0903 14.7571 13.1591 14.7502 13.2257C14.6492 14.1622 13.8596 14.8668 12.9185 14.8668ZM3.96442 7.28077C3.94606 7.28077 3.9277 7.28077 3.90934 7.28306C3.43191 7.31061 3.06006 7.7077 3.06006 8.18513V13.0237C3.06006 14.029 3.8772 14.8462 4.88256 14.8462H12.9185C13.8481 14.8462 14.6262 14.1507 14.7295 13.228C14.7364 13.1614 14.741 13.0925 14.741 13.026V8.18513C14.741 7.97855 14.6721 7.78344 14.5436 7.62277C14.3852 7.42308 14.1511 7.30142 13.8963 7.28306C13.878 7.28077 13.8573 7.28077 13.8366 7.28077H3.96442Z" fill="#91000A"/>
<path d="M8.52344 3.46875H8.54639V7.82988H8.52344V3.46875Z" fill="#91000A"/>
<path d="M9.77344 3.44192V3.78622C9.77344 3.78622 10.5447 4.11216 11.0818 4.72731C11.5638 5.27819 11.9081 6.17337 12.1835 6.17337C12.5508 6.17337 12.8721 5.3241 12.8951 4.93389C12.918 4.54368 13.2394 4.65845 13.5837 4.93389C13.928 5.20933 14.2402 5.25753 14.2952 4.86503C14.3641 4.38301 13.446 3.28125 13.446 3.28125" fill="#C62020"/>
<path d="M13.9698 7.40984H3.93921C2.87188 7.40984 2.00195 6.53991 2.00195 5.47258V5.40601C2.00195 4.33868 2.87188 3.46875 3.93921 3.46875H13.9698C15.0371 3.46875 15.9071 4.33868 15.9071 5.40601V5.47258C15.9071 6.53991 15.0394 7.40984 13.9698 7.40984ZM3.93921 3.7419C3.02338 3.7419 2.27739 4.48788 2.27739 5.40372V5.47028C2.27739 6.38612 3.02338 7.1321 3.93921 7.1321H13.9698C14.8857 7.1321 15.6316 6.38612 15.6316 5.47028V5.40372C15.6316 4.48788 14.8857 3.7419 13.9698 3.7419H3.93921Z" fill="#91000A"/>
<path d="M12.9851 14.9943H4.88257C3.81524 14.9943 2.94531 14.1244 2.94531 13.0571V8.15194C2.94531 7.58958 3.40208 7.13281 3.96444 7.13281H13.9032C14.4656 7.13281 14.9224 7.58958 14.9224 8.15194V13.0571C14.9224 14.1244 14.0524 14.9943 12.9851 14.9943ZM3.96444 7.40825C3.55358 7.40825 3.22075 7.74108 3.22075 8.15194V13.0571C3.22075 13.9729 3.96674 14.7189 4.88257 14.7189H12.9851C13.9009 14.7189 14.6469 13.9729 14.6469 13.0571V8.15194C14.6469 7.74108 14.3141 7.40825 13.9032 7.40825H3.96444Z" fill="#91000A"/>
<path d="M14.8644 1.85938C14.8851 2.82571 14.1942 3.84025 13.0786 3.84025C10.9486 3.84025 8.62109 3.73466 8.62109 3.73466C8.67159 3.62908 8.72897 3.50513 8.79324 3.3697C9.46348 3.39036 11.0863 3.43856 11.6395 3.43856C12.3189 3.44086 13.8361 3.98256 14.8644 1.85938Z" fill="#FFC603"/>
<path d="M12.8262 0.140625C14.2378 0.140625 14.8438 0.980717 14.8622 1.86212C13.8339 3.98531 12.3166 3.44131 11.6372 3.44131C11.0863 3.44131 9.46125 3.39311 8.79102 3.37245C9.3373 2.22479 10.4414 0.140625 12.8262 0.140625ZM12.8469 2.59204C13.1062 2.59434 13.4873 2.5117 13.4873 2.00214C13.4873 1.37551 13.1269 1.04958 12.2524 1.21025C11.3182 1.3824 10.1935 2.61958 10.0925 2.97995C10.0121 3.26457 11.0152 2.89273 11.5202 2.67238C11.8025 2.68156 12.1629 2.68844 12.5117 2.68844C12.6426 2.68844 12.7551 2.65172 12.8469 2.59204Z" fill="#FFEB00"/>
<path d="M13.4892 1.99662C13.4892 2.50618 13.1082 2.58882 12.8488 2.58652C13.2688 2.31338 13.2597 1.56051 12.4425 1.56051C11.7884 1.56051 11.327 2.11368 11.1066 2.48094C11.0607 2.55668 11.1135 2.65079 11.2007 2.65538C11.2857 2.65768 11.3958 2.66227 11.5221 2.66686C11.0171 2.88721 10.0141 3.25676 10.0944 2.97443C10.1977 2.61407 11.3224 1.37688 12.2543 1.20473C13.1311 1.04406 13.4892 1.36999 13.4892 1.99662Z" fill="#FFC603"/>
<path d="M13.0795 3.97781C10.9701 3.97781 8.63808 3.87452 8.61513 3.87223L8.40625 3.86305L8.49577 3.67483C8.52331 3.61974 8.55086 3.56006 8.5807 3.4935C8.60824 3.43611 8.63808 3.37414 8.66792 3.30987C8.98467 2.64422 9.39324 1.87758 10.0199 1.228C10.8072 0.41316 11.7505 0 12.8271 0C13.5134 0 14.0803 0.197399 14.4636 0.569243C14.7988 0.89518 14.9916 1.35195 15.0007 1.85692C15.0122 2.43535 14.785 3.02295 14.3902 3.42693C14.0367 3.7873 13.5822 3.97781 13.0795 3.97781ZM8.83548 3.60597C9.45292 3.63122 11.342 3.70237 13.0795 3.70237C13.5088 3.70237 13.8944 3.5394 14.1951 3.23183C14.5394 2.88064 14.7391 2.36878 14.7276 1.86152C14.7115 1.09487 14.2043 0.27544 12.8294 0.27544C11.8332 0.27544 10.9541 0.661056 10.2219 1.41852C9.62048 2.04055 9.22568 2.78424 8.9204 3.42923C8.88827 3.4912 8.86073 3.54858 8.83548 3.60597Z" fill="#91000A"/>
<path d="M12.5115 2.82754C12.22 2.82754 11.8849 2.82295 11.5154 2.81148C11.3891 2.80689 11.2789 2.80459 11.194 2.8C11.1045 2.79541 11.0242 2.74721 10.9805 2.66687C10.9369 2.58883 10.9392 2.49472 10.9851 2.41668C11.0884 2.24224 11.2675 1.99204 11.5222 1.78317C11.8092 1.54904 12.1167 1.42969 12.4404 1.42969C12.8466 1.42969 13.1427 1.60872 13.2323 1.91171C13.3172 2.20092 13.1864 2.53604 12.9224 2.70819C12.803 2.78623 12.6607 2.82754 12.5115 2.82754ZM11.2422 2.52456C11.3203 2.52686 11.4167 2.53145 11.5245 2.53374C11.8895 2.54522 12.2223 2.54981 12.5115 2.54981C12.6079 2.54981 12.6952 2.52456 12.7709 2.47636C12.9339 2.37077 13.0188 2.1596 12.9683 1.98745C12.9132 1.80383 12.7273 1.70283 12.4404 1.70283C12.2315 1.70513 11.699 1.78546 11.2422 2.52456Z" fill="#91000A"/>
<path d="M3.29325 1.44531C3.027 2.51035 3.74773 3.84164 5.02623 3.84164C7.1563 3.84164 9.48377 3.73605 9.48377 3.73605C9.43327 3.63047 9.37589 3.50652 9.31162 3.3711C8.64138 3.39175 7.01858 3.43996 6.46541 3.43996C5.7814 3.43996 4.15171 3.96329 3.29325 1.44531Z" fill="#FFC500"/>
<path d="M3.29492 1.44667C4.15567 3.96465 5.78306 3.44131 6.46707 3.44131C7.01795 3.44131 8.64305 3.39311 9.31328 3.37245C8.767 2.22479 7.66294 0.140625 5.27809 0.140625C4.08911 0.140625 3.47166 0.735116 3.29492 1.44667ZM5.59025 2.68844C5.06003 2.68844 4.80755 2.08018 5.11283 1.75883C5.16332 1.51553 5.35613 1.19648 6.03096 1.22861C6.97893 1.27452 7.90854 2.61729 8.01183 2.97766C8.09217 3.26228 7.08911 2.89043 6.58413 2.67008C6.29951 2.67926 5.93915 2.68844 5.59025 2.68844Z" fill="#FFEB00"/>
<path d="M5.10938 1.75707C5.21726 1.64231 5.39629 1.56426 5.66025 1.56426C6.31442 1.56426 6.77579 2.11744 6.99614 2.48469C7.04204 2.56044 6.98925 2.65455 6.90203 2.65914C6.8171 2.66143 6.70693 2.66603 6.58068 2.67062C7.08566 2.89097 8.08872 3.26052 8.00838 2.97819C7.90509 2.61782 6.97548 1.27276 6.02751 1.22915C5.35498 1.19472 5.15987 1.51147 5.10938 1.75707Z" fill="#FFC500"/>
<path d="M5.0259 3.98011C4.44747 3.98011 3.92873 3.72303 3.56606 3.25708C3.16208 2.73833 3.006 2.03137 3.15979 1.41163C3.26078 1.00077 3.49261 0.656465 3.82544 0.41316C4.19958 0.140015 4.68848 0 5.27609 0C6.3503 0 7.29598 0.41316 8.08328 1.228C8.7122 1.87758 9.12077 2.64652 9.43752 3.30987C9.46736 3.37414 9.4972 3.43611 9.52475 3.49579C9.55459 3.56006 9.58213 3.61974 9.60967 3.67483L9.69919 3.86305L9.49032 3.87223C9.46737 3.87452 7.13531 3.98011 5.0259 3.98011ZM3.42834 1.47819C3.29292 2.0176 3.43064 2.63504 3.78412 3.08722C4.09399 3.48432 4.53699 3.70237 5.02819 3.70237C6.76576 3.70237 8.65482 3.63122 9.27226 3.60597C9.24701 3.55088 9.21717 3.4912 9.18963 3.42923C8.88205 2.78424 8.48726 2.04055 7.88588 1.41852C7.15137 0.658761 6.27456 0.27544 5.27838 0.27544C4.29139 0.277735 3.61886 0.716144 3.42834 1.47819Z" fill="#91000A"/>
<path d="M5.59035 2.82754C5.28507 2.82754 5.02111 2.65539 4.90405 2.37996C4.79387 2.12517 4.83748 1.85203 5.01193 1.66611C5.11292 1.55823 5.30803 1.42969 5.66151 1.42969C5.98515 1.42969 6.29272 1.54904 6.57964 1.78317C6.83442 1.99204 7.01116 2.24224 7.11675 2.41668C7.16266 2.49472 7.16495 2.58653 7.12134 2.66687C7.07773 2.74721 6.99969 2.79541 6.90787 2.8C6.82295 2.8023 6.71277 2.80689 6.58653 2.81148C6.21698 2.82066 5.88186 2.82754 5.59035 2.82754ZM5.66151 1.70513C5.45952 1.70513 5.30344 1.75562 5.21162 1.85432C5.09227 1.98057 5.10374 2.15042 5.15654 2.26978C5.21621 2.4052 5.36082 2.5521 5.59035 2.5521C5.87956 2.5521 6.21239 2.54751 6.57735 2.53604C6.68523 2.53145 6.78163 2.52915 6.85967 2.52686C6.4029 1.78546 5.87038 1.70513 5.66151 1.70513Z" fill="#91000A"/>
<path d="M14.1582 4.73921C14.1719 4.792 14.1031 4.83102 14.0526 4.79889C13.8322 4.66346 13.1299 4.36507 12.7351 4.34441C12.657 4.33982 12.5675 4.36966 12.5652 4.4477C12.5629 4.75069 12.5124 5.21434 12.2944 5.59537C12.253 5.66653 12.2163 5.6803 12.1704 5.60914C11.8927 5.16844 11.1146 3.70861 9.24844 3.39874C8.76872 3.3184 8.8743 3.06591 9.1199 2.82031C9.38387 2.92819 9.90032 3.13936 10.504 3.38726C11.3785 3.74763 11.7641 4.21128 11.8674 4.31228C11.9707 4.41557 12.074 4.49131 12.1497 4.20899C12.2278 3.92666 12.4596 3.8119 12.7924 3.90141C13.1299 3.99093 13.683 4.11947 13.9722 4.22047C14.0457 4.38114 14.1077 4.55329 14.1582 4.73921Z" fill="#FFC500"/>
<path d="M13.9754 4.21771C13.6862 4.11901 13.133 3.98818 12.7956 3.89866C12.4628 3.80914 12.2286 3.92391 12.1529 4.20624C12.0748 4.48856 11.9738 4.41282 11.8706 4.30953C11.7673 4.20624 11.3817 3.74258 10.5071 3.38451C9.90346 3.13661 9.38471 2.92315 9.12305 2.81756C9.40078 2.54212 9.85755 2.27357 9.86214 2.27357C10.032 2.28275 13.0045 2.11519 13.9754 4.21771Z" fill="#FFEB00"/>
<path d="M12.2282 5.78969C12.1799 5.78969 12.1111 5.76903 12.0537 5.67951C12.0353 5.64967 12.0147 5.61524 11.9894 5.57622C11.6658 5.04829 10.906 3.80881 9.22586 3.52878C9.13404 3.51272 8.85631 3.46681 8.78745 3.25334C8.73924 3.09956 8.81499 2.92511 9.02157 2.71853C9.17306 2.56704 9.37276 2.42243 9.51277 2.32603C9.7951 2.13322 9.82264 2.13322 9.85707 2.13322H9.91904C10.6099 2.12633 11.248 2.20667 11.8196 2.36964C12.9305 2.6864 13.6972 3.28777 14.0966 4.1577C14.1746 4.32756 14.2389 4.50889 14.2894 4.6994C14.3077 4.77515 14.2802 4.85549 14.2159 4.90369C14.147 4.95418 14.0529 4.95878 13.9795 4.91287C13.7798 4.78892 13.0981 4.49741 12.7262 4.47905H12.701C12.6964 4.75449 12.6482 5.24569 12.4118 5.65885C12.3636 5.74378 12.3016 5.78739 12.2304 5.78969H12.2282ZM9.89609 2.41096C9.79051 2.47293 9.43703 2.69558 9.21897 2.91363C9.03305 3.09956 9.0537 3.16842 9.0537 3.16842C9.0583 3.18448 9.1065 3.22809 9.27406 3.25793C10.0476 3.38647 10.7316 3.72389 11.3054 4.2587C11.7737 4.69481 12.056 5.15388 12.2259 5.42932C12.398 5.07125 12.4278 4.66497 12.4301 4.44233C12.4301 4.38035 12.4554 4.32297 12.5013 4.27936C12.5587 4.22427 12.6459 4.19672 12.7446 4.20132C13.1096 4.21968 13.6742 4.44462 13.9772 4.59382C13.9405 4.48364 13.8992 4.37576 13.851 4.27247C13.486 3.47829 12.7767 2.92741 11.7484 2.6336C11.2044 2.47752 10.5916 2.40177 9.92823 2.40866C9.91445 2.41096 9.90298 2.41096 9.89609 2.41096Z" fill="#91000A"/>
<path d="M3.82014 4.73921C3.80637 4.792 3.87523 4.83102 3.92573 4.79889C4.14608 4.66346 4.84845 4.36507 5.24555 4.34441C5.32359 4.33982 5.4131 4.36966 5.4131 4.4477C5.4154 4.75069 5.4659 5.21434 5.68395 5.59537C5.72527 5.66653 5.762 5.6803 5.8079 5.60914C6.08564 5.16844 6.86376 3.70861 8.72757 3.39874C9.20729 3.3184 9.1017 3.06591 8.8561 2.82031C8.59214 2.92819 8.07569 3.13936 7.47202 3.38726C6.5975 3.74763 6.21188 4.21128 6.10859 4.31228C6.0053 4.41557 5.90201 4.49131 5.82626 4.20899C5.74822 3.92666 5.51639 3.8119 5.18357 3.90141C4.84616 3.99093 4.29298 4.11947 4.00377 4.22047C3.93032 4.38114 3.86835 4.55329 3.82014 4.73921Z" fill="#FFC500"/>
<path d="M4.00391 4.21771C4.29312 4.11901 4.84629 3.98818 5.18371 3.89866C5.51653 3.80914 5.75065 3.92391 5.8264 4.20624C5.90444 4.48856 6.00544 4.41282 6.10873 4.30953C6.21202 4.20624 6.59763 3.74258 7.47215 3.38451C8.07583 3.13661 8.59457 2.92315 8.85624 2.81756C8.5785 2.54212 8.12173 2.27357 8.11714 2.27357C7.94729 2.28275 4.97483 2.11519 4.00391 4.21771Z" fill="#FFEB00"/>
<path d="M5.74704 5.79269H5.74245C5.67129 5.79039 5.60932 5.74678 5.56111 5.66186C5.32469 5.2487 5.27879 4.75979 5.2742 4.48435C5.26731 4.48435 5.26043 4.48206 5.25124 4.48435C4.8794 4.50271 4.19769 4.79652 3.99799 4.91817C3.92454 4.96408 3.83043 4.95948 3.76157 4.90899C3.6973 4.86079 3.66747 4.78274 3.68812 4.707C3.73633 4.51878 3.80059 4.33745 3.88093 4.1653C4.28261 3.29537 5.04925 2.69399 6.1579 2.37724C6.72714 2.21427 7.36754 2.13623 8.05614 2.14082H8.11811C8.15254 2.14082 8.18009 2.14082 8.46241 2.33362C8.60243 2.43003 8.80212 2.57463 8.95361 2.72613C9.16019 2.93271 9.23594 3.10715 9.18774 3.26094C9.11888 3.4767 8.84114 3.52261 8.74933 3.53638C7.06915 3.81641 6.30939 5.05359 5.98575 5.58381C5.9628 5.62284 5.94214 5.65497 5.92378 5.68481C5.8641 5.77433 5.79524 5.79269 5.74704 5.79269ZM5.25813 4.20662C5.34535 4.20662 5.42569 4.23416 5.47848 4.28466C5.52439 4.32827 5.54964 4.38565 5.54964 4.44763C5.55193 4.66798 5.58177 5.07655 5.75392 5.43462C5.92378 5.15918 6.20381 4.70011 6.67205 4.264C7.24589 3.72919 7.9299 3.39177 8.70572 3.26323C8.87328 3.23569 8.92148 3.18978 8.92607 3.17372C8.92607 3.17372 8.94673 3.10256 8.76081 2.91893C8.54275 2.70088 8.18927 2.47823 8.08368 2.41626H8.05614C7.39279 2.40937 6.77994 2.48512 6.23594 2.6412C5.20534 2.935 4.49838 3.48588 4.13342 4.28007C4.08522 4.38336 4.0439 4.49124 4.00947 4.60141C4.31245 4.44992 4.87711 4.22727 5.24206 4.20891C5.24206 4.20662 5.24895 4.20662 5.25813 4.20662Z" fill="#91000A"/>
<path d="M8.39632 3.76185H8.37108C8.12548 3.76185 7.92578 3.56215 7.92578 3.31655V2.39842C7.92578 2.15282 8.12548 1.95312 8.37108 1.95312H8.52027C8.45141 2.07937 8.3596 2.31349 8.3596 2.63943C8.3596 3.15358 8.33894 3.36016 8.63274 3.36016H9.51645C9.61974 3.36016 9.78959 3.33262 9.90895 3.26376V3.31655C9.90895 3.56215 9.70925 3.76185 9.46365 3.76185H8.39632Z" fill="#FFC500"/>
<path d="M9.91294 2.39842V3.26376C9.79359 3.33262 9.62144 3.36016 9.52044 3.36016H8.63674C8.34294 3.36016 8.3636 3.15358 8.3636 2.63943C8.3636 2.31349 8.45541 2.08166 8.52427 1.95312H9.46995C9.71325 1.95542 9.91294 2.15282 9.91294 2.39842Z" fill="#FFEB00"/>
<path d="M9.89107 14.377V14.8659H7.94922V3.84375H8.3991V13.9662C8.3991 14.2737 8.3991 14.377 8.69291 14.377H9.89107Z" fill="#FFC500"/>
<path d="M9.8904 3.84375V14.377H8.69224C8.39844 14.377 8.39844 14.2737 8.39844 13.9662V3.84375H9.8904Z" fill="#FFEB00"/>
<path d="M10.0298 14.9985H7.8125V3.70312H10.0298V14.9985ZM8.08794 14.723H9.75435V3.97856H8.08794V14.723Z" fill="#91000A"/>
<path d="M9.46695 3.90447H8.37208C8.05073 3.90447 7.78906 3.64281 7.78906 3.32146V2.40333C7.78906 2.08198 8.05073 1.82031 8.37208 1.82031H9.46695C9.7883 1.82031 10.05 2.08198 10.05 2.40333V3.32146C10.05 3.64281 9.7883 3.90447 9.46695 3.90447ZM8.37208 2.09805C8.20222 2.09805 8.0645 2.23577 8.0645 2.40562V3.32376C8.0645 3.49361 8.20222 3.63133 8.37208 3.63133H9.46695C9.63681 3.63133 9.77452 3.49361 9.77452 3.32376V2.40562C9.77452 2.23577 9.63681 2.09805 9.46695 2.09805H8.37208Z" fill="#91000A"/>
</svg>
