<svg width="16" height="16" viewBox="0 0 16 16" fill="none" xmlns="http://www.w3.org/2000/svg">
<g clip-path="url(#clip0_2015_2993)">
<path d="M6.9644 2.43269H4.3997C4.25231 2.44248 4.10643 2.39798 3.9896 2.30759C3.89524 2.22359 3.82557 2.11545 3.78805 1.99481C3.7507 1.85659 3.73198 1.71401 3.73244 1.57084C3.7319 1.41926 3.74586 1.26798 3.77414 1.11906C3.78574 0.966916 3.80898 0.815864 3.84365 0.667265C3.87729 0.520448 3.93356 0.379774 4.01045 0.250254C4.03998 0.187941 4.08382 0.133466 4.13838 0.0912972C4.19293 0.0491282 4.25668 0.020448 4.32442 0.00757673C4.39216 -0.00529449 4.46199 -0.00199296 4.52822 0.0172278C4.59444 0.0364486 4.65517 0.0710528 4.7055 0.118193L5.35191 0.486567L6.04696 0.88275L6.68639 1.24417L7.13123 1.50133C7.24488 1.57849 7.3418 1.67779 7.4162 1.79326C7.47492 1.88389 7.50181 1.99148 7.49265 2.09908C7.48592 2.14724 7.46875 2.19334 7.44233 2.23416C7.41592 2.27498 7.3809 2.30953 7.33974 2.3354C7.2279 2.40633 7.09662 2.44035 6.9644 2.43269Z" fill="#808994"/>
<path d="M9.05639 2.41188H11.5794C11.7256 2.42061 11.8704 2.37892 11.9895 2.29373C12.0849 2.20782 12.1547 2.09714 12.1911 1.974C12.2289 1.83588 12.2476 1.69323 12.2467 1.55003C12.2541 1.40184 12.2541 1.25337 12.2467 1.10519C12.2467 0.966176 12.1911 0.813277 12.1633 0.660366C12.136 0.515976 12.0842 0.377299 12.0103 0.250291C11.9516 0.140114 11.8517 0.0576444 11.7323 0.0209129C11.6614 0.00328574 11.5875 0.000984098 11.5156 0.0141678C11.4437 0.0273514 11.3754 0.0557285 11.3153 0.0973792L10.6689 0.465754C10.4326 0.597813 10.1893 0.729863 9.97386 0.868872L9.32747 1.23031C9.17883 1.30481 9.03492 1.38837 8.89654 1.48052C8.77356 1.55605 8.66905 1.65817 8.59072 1.77938C8.53339 1.86785 8.5088 1.97359 8.52121 2.07827C8.52617 2.12705 8.54182 2.17414 8.56705 2.21618C8.59227 2.25823 8.62645 2.29419 8.66716 2.32152C8.78927 2.3918 8.92987 2.42332 9.0703 2.41188H9.05639Z" fill="#808994"/>
<path d="M7.33972 3.19723H1.08429C0.772983 3.16094 0.458303 3.22679 0.187676 3.38488C0.115131 3.46412 0.0597819 3.55753 0.0250927 3.65921C-0.00959658 3.76088 -0.0228592 3.86862 -0.0138723 3.97568V5.53258C-0.0231348 5.65194 -0.00822513 5.77194 0.0299924 5.8854C0.06821 5.99886 0.128954 6.10345 0.208548 6.19288C0.475064 6.3622 0.791266 6.43573 1.10514 6.40139H7.32583L7.33972 3.19723Z" fill="#808994"/>
<path d="M8.65342 3.19723H14.9088C15.2202 3.16094 15.5348 3.22679 15.8054 3.38488C15.8785 3.46517 15.9342 3.55976 15.9689 3.66264C16.0036 3.76552 16.0166 3.87448 16.007 3.98263V5.53953C16.0169 5.65844 16.0016 5.7781 15.9621 5.89068C15.9225 6.00327 15.8597 6.10625 15.7777 6.19288C15.5155 6.36679 15.2006 6.44306 14.888 6.40834H8.63257L8.65342 3.19723Z" fill="#808994"/>
<path d="M7.33973 7.16602H0.632524V14.0122C0.617466 14.2829 0.666958 14.5532 0.776929 14.8009C0.886901 15.0487 1.0542 15.2667 1.26502 15.4371C1.84553 15.8213 2.53805 16 3.232 15.9445H7.33973V7.16602Z" fill="#808994"/>
<path d="M8.65332 7.16602H15.3188V13.9566C15.3249 14.2311 15.2714 14.5037 15.1623 14.7556C15.0531 15.0076 14.8907 15.2329 14.6863 15.4162C14.1258 15.8169 13.4405 16.0043 12.7541 15.9445H8.65332V7.16602Z" fill="#808994"/>
</g>
<defs>
<clipPath id="clip0_2015_2993">
<rect width="16" height="15.9444" fill="white"/>
</clipPath>
</defs>
</svg>
