<svg width="16" height="16" viewBox="0 0 16 16" fill="none" xmlns="http://www.w3.org/2000/svg">
<g clip-path="url(#clip0_2015_2990)">
<path d="M12.8014 12.5665L9.25039 1.77548L8.82207 0.455961C8.77505 0.325705 8.68999 0.212588 8.57789 0.131284C8.46579 0.0499788 8.33184 0.0042368 8.19342 0C8.12298 0.000879675 8.05305 0.01252 7.98613 0.0345339L0.449017 2.54922C0.288185 2.61016 0.15585 2.72889 0.0779146 2.88221C-2.09585e-05 3.03552 -0.0179424 3.2124 0.0276107 3.37825L4.00685 15.4888C4.05387 15.619 4.13897 15.7321 4.25107 15.8134C4.36318 15.8947 4.49713 15.9405 4.63554 15.9447C4.70599 15.9439 4.77587 15.9322 4.84279 15.9102L6.68046 15.3091L12.3799 13.4301C12.5485 13.3689 12.6867 13.2447 12.7653 13.0835C12.844 12.9224 12.8569 12.737 12.8014 12.5665ZM6.98444 9.98965C6.96425 9.65573 6.92268 9.32345 6.86005 8.99483L6.99823 8.94647C7.1333 9.25454 7.30249 9.54653 7.50257 9.81694L6.98444 9.98965ZM7.9516 8.94647C7.5985 9.00208 7.23748 8.97845 6.89462 8.87736C6.83245 8.87736 6.51464 9.43694 6.10013 9.5682C5.98401 9.61271 5.86026 9.63391 5.73595 9.63057C5.61163 9.62722 5.4892 9.59941 5.37564 9.54872C5.26208 9.49804 5.15961 9.4255 5.07411 9.3352C4.98861 9.24489 4.92173 9.13861 4.87732 9.02245C4.5319 8 5.86523 5.81 5.86523 5.81C5.86523 5.81 8.24865 6.74957 8.62861 7.77202C8.66498 7.8936 8.67617 8.02133 8.66146 8.14738C8.64675 8.27343 8.60648 8.39513 8.5431 8.50507C8.47972 8.61502 8.3946 8.71089 8.29289 8.78679C8.19118 8.86268 8.07503 8.91701 7.9516 8.94647Z" fill="url(#paint0_linear_2015_2990)"/>
<path d="M15.24 2.3834L10.3281 1.88599L11.6476 5.88599C11.9642 5.99106 12.259 6.15256 12.518 6.36268C12.5871 6.36268 13.0984 6.02413 13.5336 6.07249C13.6577 6.07952 13.7791 6.1111 13.8909 6.16538C14.0027 6.21967 14.1026 6.29561 14.1849 6.38878C14.2671 6.48195 14.3301 6.59048 14.3701 6.70814C14.4101 6.82581 14.4263 6.95024 14.4179 7.07423C14.335 7.76507 13.3609 8.67008 12.7253 9.14677L13.7409 12.228C13.8739 12.643 13.8374 13.0938 13.6394 13.482C13.4414 13.8703 13.0979 14.1645 12.6839 14.3005L9.09839 15.4818L13.8583 15.9654C14.0259 15.9671 14.1885 15.9077 14.3156 15.7984C14.4427 15.6891 14.5257 15.5373 14.5491 15.3713L15.7927 3.06733C15.7943 2.90688 15.7401 2.75088 15.6392 2.62608C15.5384 2.50128 15.3972 2.41548 15.24 2.3834Z" fill="url(#paint1_linear_2015_2990)"/>
</g>
<defs>
<linearGradient id="paint0_linear_2015_2990" x1="6.41914" y1="0" x2="6.41914" y2="15.9447" gradientUnits="userSpaceOnUse">
<stop stop-color="#76CD00"/>
<stop offset="1" stop-color="#478A03"/>
</linearGradient>
<linearGradient id="paint1_linear_2015_2990" x1="12.4456" y1="1.88599" x2="12.4456" y2="15.9654" gradientUnits="userSpaceOnUse">
<stop stop-color="#76CD00"/>
<stop offset="1" stop-color="#478A03"/>
</linearGradient>
<clipPath id="clip0_2015_2990">
<rect width="15.8342" height="16" fill="white"/>
</clipPath>
</defs>
</svg>
