<svg width="16" height="18" viewBox="0 0 16 18" fill="none" xmlns="http://www.w3.org/2000/svg">
<g clip-path="url(#clip0_1_61894)">
<path d="M13.6713 7.20002H4.20576V4.85002C4.21169 4.82365 4.21169 4.79639 4.20576 4.77003C4.20438 4.35468 4.28875 3.94317 4.45399 3.55918C4.61923 3.1752 4.86209 2.82633 5.1686 2.53263C5.47511 2.23894 5.8392 2.00622 6.23993 1.84788C6.64067 1.68954 7.07012 1.60871 7.50358 1.61003C8.36925 1.60992 9.20025 1.93599 9.81724 2.51783C10.4342 3.09968 10.7877 3.89062 10.8014 4.72001V5.23002C10.8014 5.33593 10.8233 5.44077 10.8659 5.53849C10.9085 5.63621 10.971 5.72485 11.0496 5.79927C11.1282 5.87368 11.2215 5.93242 11.324 5.97203C11.4265 6.01164 11.5362 6.03133 11.6467 6.03001C11.8682 6.03001 12.0805 5.94572 12.2371 5.7957C12.3937 5.64567 12.4816 5.44219 12.4816 5.23002V4.75001C12.4803 4.12492 12.3504 3.50622 12.0995 2.92921C11.8486 2.3522 11.4815 1.8282 11.0193 1.38713C10.557 0.946047 10.0086 0.59653 9.4054 0.358531C8.80218 0.120532 8.15594 -0.00130407 7.50358 1.05258e-05C6.85035 9.14447e-06 6.20353 0.123485 5.60015 0.363322C4.99677 0.60316 4.44869 0.954649 3.98726 1.39772C3.52584 1.84078 3.16015 2.36672 2.91112 2.94538C2.66209 3.52405 2.53461 4.1441 2.53598 4.77003V7.20002H1.38801C1.01989 7.20002 0.666841 7.34016 0.406539 7.58958C0.146237 7.839 0 8.17727 0 8.53001V16.25C0.0314926 16.5417 0.163485 16.8151 0.37514 17.027C0.586795 17.2389 0.866056 17.3771 1.16885 17.42H13.9114C14.1747 17.361 14.4141 17.229 14.5997 17.0405C14.7852 16.852 14.9088 16.6154 14.955 16.36V8.42002C14.9305 8.10253 14.7871 7.80419 14.5513 7.58C14.3154 7.3558 14.0029 7.22087 13.6713 7.20002ZM8.1715 13.5H6.8148C6.59337 13.5 6.38101 13.4157 6.22444 13.2657C6.06787 13.1157 5.97991 12.9122 5.97991 12.7C5.97852 12.5941 5.9991 12.489 6.04044 12.3908C6.08178 12.2926 6.14306 12.2032 6.22072 12.1278C6.29839 12.0525 6.39089 11.9927 6.49287 11.9519C6.59485 11.911 6.70427 11.89 6.8148 11.89H8.1715C8.28202 11.89 8.39144 11.911 8.49342 11.9519C8.5954 11.9927 8.68791 12.0525 8.76557 12.1278C8.84324 12.2032 8.90452 12.2926 8.94586 12.3908C8.98719 12.489 9.00777 12.5941 9.00639 12.7C9.00639 12.9122 8.91842 13.1157 8.76185 13.2657C8.60528 13.4157 8.39292 13.5 8.1715 13.5Z" fill="#808994"/>
</g>
<defs>
<clipPath id="clip0_1_61894">
<rect width="15.0176" height="17.4" fill="white"/>
</clipPath>
</defs>
</svg>
