<svg width="10" height="10" viewBox="0 0 10 10" fill="none" xmlns="http://www.w3.org/2000/svg">
<g clip-path="url(#clip0_1_10574)">
<path d="M2.62928 1.48913H7.83801V0.679154C7.83637 0.498468 7.76343 0.32574 7.63508 0.198554C7.50673 0.0713693 7.33334 2.11218e-05 7.15265 2.85886e-05H0.68536C0.595653 -0.000794448 0.506671 0.0161608 0.423555 0.0499215C0.340439 0.0836822 0.264834 0.133584 0.201109 0.196729C0.137385 0.259874 0.0868046 0.33502 0.0522863 0.417825C0.017768 0.500629 -3.77488e-06 0.589443 6.01429e-10 0.679154V6.97823C-3.77488e-06 7.06794 0.017768 7.15675 0.0522863 7.23956C0.0868046 7.32236 0.137385 7.39751 0.201109 7.46065C0.264834 7.5238 0.340439 7.5737 0.423555 7.60746C0.506671 7.64122 0.595653 7.65818 0.68536 7.65735H1.30841V2.84739C1.30985 2.49401 1.44832 2.15498 1.69468 1.90164C1.94105 1.64831 2.27609 1.50043 2.62928 1.48913Z" fill="#DCDCDC"/>
<path d="M10.0005 2.84725V9.27093C10.0005 9.36666 9.9816 9.46146 9.94496 9.5499C9.90833 9.63835 9.85463 9.71871 9.78694 9.7864C9.71925 9.85409 9.63889 9.90777 9.55045 9.94441C9.462 9.98104 9.36721 9.99991 9.27148 9.99991H2.62973C2.43582 9.99992 2.24976 9.92331 2.11206 9.78678C1.97436 9.65025 1.89617 9.46484 1.89453 9.27093V2.84725C1.89453 2.65227 1.97199 2.46527 2.10987 2.32739C2.24775 2.18951 2.43475 2.11206 2.62973 2.11206H9.25279C9.35061 2.10954 9.44793 2.12675 9.53895 2.16265C9.62998 2.19855 9.71285 2.2524 9.78262 2.321C9.85239 2.38961 9.90763 2.47158 9.94506 2.56199C9.98248 2.6524 10.0013 2.74941 10.0005 2.84725Z" fill="#D9D9D9"/>
</g>
<defs>
<clipPath id="clip0_1_10574">
<rect width="10" height="10" fill="white"/>
</clipPath>
</defs>
</svg>
