<svg width="17" height="15" viewBox="0 0 17 15" fill="none" xmlns="http://www.w3.org/2000/svg">
<g clip-path="url(#clip0_2002_4173)">
<path d="M16.41 6.52016L13.41 2.76015C13.3353 2.66268 13.2392 2.58372 13.129 2.52938C13.0189 2.47503 12.8978 2.44677 12.775 2.44677C12.6522 2.44677 12.531 2.47503 12.4209 2.52938C12.3108 2.58372 12.2147 2.66268 12.14 2.76015L9.13997 6.52016C9.08981 6.58469 9.05861 6.66192 9.04987 6.74318C9.04113 6.82445 9.0552 6.90656 9.0905 6.98027C9.1258 7.05399 9.18094 7.1164 9.24973 7.16054C9.31853 7.20468 9.39825 7.22878 9.47997 7.23015H10.65C10.65 9.43015 10.65 12.2302 6.77997 14.4402C6.67997 14.5102 6.72997 14.6602 6.83997 14.6402C14.2 13.5002 14.84 8.57017 14.84 7.25017H16.07C16.1527 7.24615 16.2328 7.21935 16.3012 7.17275C16.3697 7.12615 16.424 7.06153 16.4582 6.98604C16.4923 6.91055 16.5049 6.82713 16.4946 6.74492C16.4844 6.66272 16.4516 6.58494 16.4 6.52016H16.41ZM6.99997 7.46016H5.85997C5.85997 5.27016 5.85998 2.46017 9.73998 0.250171C9.83998 0.180171 9.73997 0.0301589 9.67997 0.0501589C2.31997 1.19016 1.67997 6.14015 1.67997 7.45015H0.459973C0.378249 7.45152 0.298525 7.47562 0.229733 7.51976C0.160941 7.5639 0.105802 7.62634 0.0704999 7.70006C0.0351982 7.77378 0.0211274 7.85589 0.0298658 7.93715C0.0386041 8.01842 0.0698057 8.09565 0.119973 8.16017L3.11997 11.9202C3.19581 12.0159 3.29232 12.0933 3.40229 12.1465C3.51225 12.1997 3.63282 12.2273 3.75497 12.2273C3.87713 12.2273 3.9977 12.1997 4.10766 12.1465C4.21763 12.0933 4.31414 12.0159 4.38997 11.9202L7.38997 8.16017C7.43733 8.09562 7.46617 8.01936 7.4734 7.93962C7.48062 7.85989 7.46595 7.77968 7.43097 7.70766C7.39599 7.63564 7.34203 7.57455 7.2749 7.53093C7.20776 7.48732 7.12999 7.46285 7.04997 7.46016H6.99997Z" fill="#85D420"/>
</g>
<defs>
<clipPath id="clip0_2002_4173">
<rect width="16.51" height="14.6" fill="white"/>
</clipPath>
</defs>
</svg>
