<svg width="21" height="20" viewBox="0 0 21 20" fill="none" xmlns="http://www.w3.org/2000/svg">
<g clip-path="url(#clip0_2015_1636)">
<path d="M8.73583 3.05162H5.51877C5.33389 3.06389 5.1509 3.00808 5.00436 2.8947C4.88599 2.78933 4.7986 2.65368 4.75154 2.50236C4.70469 2.32899 4.68121 2.15014 4.68178 1.97055C4.68111 1.78042 4.69862 1.59066 4.73409 1.40386C4.74864 1.21301 4.77779 1.02354 4.82128 0.837144C4.86348 0.652982 4.93407 0.476527 5.03051 0.314061C5.06755 0.235899 5.12254 0.167568 5.19098 0.114673C5.25941 0.0617775 5.33937 0.0258022 5.42434 0.00965706C5.50931 -0.00648807 5.59691 -0.00234677 5.67997 0.021763C5.76304 0.0458728 5.83923 0.0892789 5.90235 0.14841L6.71318 0.610484L7.58502 1.10744L8.3871 1.56079L8.94509 1.88336C9.08764 1.98015 9.20922 2.1047 9.30255 2.24955C9.3762 2.36323 9.40993 2.49819 9.39844 2.63316C9.39 2.69356 9.36846 2.75138 9.33533 2.80259C9.30219 2.85379 9.25827 2.89713 9.20663 2.92958C9.06635 3.01855 8.90167 3.06123 8.73583 3.05162Z" fill="#808994"/>
<path d="M11.3601 3.02549H14.5248C14.7082 3.03645 14.8898 2.98414 15.0392 2.87729C15.1589 2.76953 15.2465 2.6307 15.2921 2.47623C15.3396 2.30298 15.363 2.12405 15.3618 1.94442C15.3711 1.75854 15.3711 1.5723 15.3618 1.38643C15.3618 1.21206 15.2921 1.02027 15.2572 0.828464C15.2229 0.647347 15.1581 0.473397 15.0654 0.314082C14.9917 0.175881 14.8663 0.0724344 14.7166 0.0263599C14.6276 0.00424908 14.535 0.00136199 14.4448 0.017899C14.3546 0.0344361 14.2689 0.0700311 14.1935 0.122276L13.3827 0.58435C13.0863 0.749999 12.7812 0.915637 12.5109 1.09001L11.7001 1.54338C11.5137 1.63683 11.3331 1.74164 11.1596 1.85723C11.0053 1.95197 10.8742 2.08006 10.7759 2.23211C10.704 2.34308 10.6732 2.47572 10.6888 2.60702C10.695 2.66822 10.7146 2.72728 10.7463 2.78002C10.7779 2.83276 10.8208 2.87786 10.8718 2.91215C11.025 3.0003 11.2014 3.03984 11.3775 3.02549H11.3601Z" fill="#808994"/>
<path d="M9.2066 4.01025H1.36004C0.969548 3.96473 0.574827 4.04733 0.235364 4.24563C0.144367 4.34503 0.0749383 4.4622 0.0314255 4.58973C-0.0120873 4.71727 -0.0287234 4.85242 -0.0174505 4.9867V6.93962C-0.029069 7.08934 -0.010367 7.23987 0.0375716 7.38219C0.0855101 7.5245 0.161705 7.65569 0.261544 7.76787C0.595851 7.98026 0.992482 8.07249 1.3862 8.02941H9.18917L9.2066 4.01025Z" fill="#808994"/>
<path d="M10.8544 4.01025H18.701C19.0915 3.96473 19.4861 4.04733 19.8256 4.24563C19.9173 4.34635 19.9871 4.46499 20.0306 4.59405C20.0741 4.7231 20.0904 4.85977 20.0785 4.99543V6.94834C20.0909 7.0975 20.0716 7.24759 20.0221 7.38881C19.9725 7.53003 19.8937 7.6592 19.7908 7.76787C19.462 7.98602 19.067 8.08168 18.6748 8.03814H10.8282L10.8544 4.01025Z" fill="#808994"/>
<path d="M9.2066 8.98877H0.793352V17.5764C0.774464 17.9158 0.836545 18.2549 0.974488 18.5657C1.11243 18.8765 1.32229 19.1499 1.58673 19.3636C2.31489 19.8456 3.18357 20.0697 4.05402 20.0001H9.2066V8.98877Z" fill="#808994"/>
<path d="M10.8544 8.98877H19.2153V17.5066C19.2229 17.8509 19.1559 18.1929 19.0189 18.5089C18.882 18.8249 18.6783 19.1076 18.4219 19.3375C17.7188 19.8401 16.8593 20.0751 15.9982 20.0001H10.8544V8.98877Z" fill="#808994"/>
</g>
<defs>
<clipPath id="clip0_2015_1636">
<rect width="20.0697" height="20" fill="white"/>
</clipPath>
</defs>
</svg>
