<svg width="17" height="15" viewBox="0 0 17 15" fill="none" xmlns="http://www.w3.org/2000/svg">
<g clip-path="url(#clip0_2015_2926)">
<path d="M16.41 6.51967L13.41 2.75966C13.3353 2.66219 13.2392 2.58324 13.129 2.52889C13.0189 2.47454 12.8978 2.44628 12.775 2.44628C12.6522 2.44628 12.531 2.47454 12.4209 2.52889C12.3108 2.58324 12.2147 2.66219 12.14 2.75966L9.13997 6.51967C9.08981 6.5842 9.05861 6.66143 9.04987 6.74269C9.04113 6.82396 9.0552 6.90607 9.0905 6.97979C9.1258 7.0535 9.18094 7.11591 9.24973 7.16005C9.31853 7.20419 9.39825 7.22829 9.47997 7.22966H10.65C10.65 9.42966 10.65 12.2297 6.77997 14.4397C6.67997 14.5097 6.72997 14.6597 6.83997 14.6397C14.2 13.4997 14.84 8.56968 14.84 7.24968H16.07C16.1527 7.24566 16.2328 7.21886 16.3012 7.17226C16.3697 7.12566 16.424 7.06104 16.4582 6.98555C16.4923 6.91006 16.5049 6.82664 16.4946 6.74443C16.4844 6.66223 16.4516 6.58445 16.4 6.51967H16.41ZM6.99997 7.45967H5.85997C5.85997 5.26967 5.85998 2.45968 9.73998 0.249683C9.83998 0.179683 9.73997 0.0296706 9.67997 0.0496706C2.31997 1.18967 1.67997 6.13966 1.67997 7.44966H0.459973C0.378249 7.45103 0.298525 7.47514 0.229733 7.51928C0.160941 7.56341 0.105802 7.62585 0.0704999 7.69957C0.0351982 7.77329 0.0211274 7.8554 0.0298658 7.93666C0.0386041 8.01793 0.0698057 8.09516 0.119973 8.15969L3.11997 11.9197C3.19581 12.0154 3.29232 12.0928 3.40229 12.146C3.51225 12.1992 3.63282 12.2268 3.75497 12.2268C3.87713 12.2268 3.9977 12.1992 4.10766 12.146C4.21763 12.0928 4.31414 12.0154 4.38997 11.9197L7.38997 8.15969C7.43733 8.09513 7.46617 8.01887 7.4734 7.93914C7.48062 7.8594 7.46595 7.77919 7.43097 7.70717C7.39599 7.63516 7.34203 7.57406 7.2749 7.53044C7.20776 7.48683 7.12999 7.46236 7.04997 7.45967H6.99997Z" fill="#85D420"/>
</g>
<defs>
<clipPath id="clip0_2015_2926">
<rect width="16.51" height="14.6" fill="white"/>
</clipPath>
</defs>
</svg>
