<svg width="16" height="16" viewBox="0 0 16 16" fill="none" xmlns="http://www.w3.org/2000/svg">
<g clip-path="url(#clip0_1_1929)">
<path d="M8 3.0625C6.69122 3.06486 5.43672 3.58582 4.51127 4.51127C3.58582 5.43672 3.06486 6.69122 3.0625 8C3.06486 9.30878 3.58582 10.5633 4.51127 11.4887C5.43672 12.4142 6.69122 12.9351 8 12.9375C9.30878 12.9351 10.5633 12.4142 11.4887 11.4887C12.4142 10.5633 12.9351 9.30878 12.9375 8C12.9351 6.69122 12.4142 5.43672 11.4887 4.51127C10.5633 3.58582 9.30878 3.06486 8 3.0625ZM9.08929 11.6339H7.22322V6.84821C6.9408 7.00445 6.64117 7.1273 6.33036 7.21428L5.75893 7.37499V5.4732L6.09821 5.39284C6.37985 5.31566 6.65006 5.20158 6.90179 5.05355C7.15002 4.90513 7.37555 4.72171 7.57143 4.50892L7.70535 4.36606H9.08929V11.6339Z" fill="#ABB6CA"/>
<path d="M15.866 6.60711C15.6626 5.4514 15.2085 4.35429 14.5357 3.39285C13.9991 2.63221 13.3344 1.97058 12.5714 1.43749C11.2307 0.509431 9.63941 0.011178 8.00886 0.00891113C5.87766 0.00891113 3.83375 0.855536 2.32676 2.36252C0.81977 3.86951 -0.0268555 5.91342 -0.0268555 8.04463C-0.0268555 10.1758 0.81977 12.2197 2.32676 13.7267C3.83375 15.2337 5.87766 16.0803 8.00886 16.0803C9.63941 16.0781 11.2307 15.5798 12.5714 14.6518C13.3352 14.116 13.9999 13.4513 14.5357 12.6875C15.2108 11.7273 15.6651 10.6297 15.866 9.4732C15.9511 9.01369 15.9959 8.54764 15.9999 8.08035C16.0007 7.5862 15.9558 7.09302 15.866 6.60711ZM7.99994 0.223188C8.43693 0.225601 8.87297 0.264431 9.30351 0.339264C9.22466 0.636522 9.04963 0.899318 8.80575 1.08667C8.56187 1.27403 8.26283 1.37541 7.95529 1.37498C7.64771 1.37445 7.34908 1.27146 7.10655 1.08229C6.86402 0.893112 6.69141 0.628523 6.616 0.330327C7.07323 0.253668 7.53636 0.217817 7.99994 0.223188ZM3.491 1.67855C3.64466 1.9371 3.7087 2.23912 3.67318 2.53778C3.63767 2.83644 3.50458 3.11504 3.29457 3.33034C3.0814 3.54318 2.80386 3.6796 2.50512 3.71835C2.20639 3.7571 1.90322 3.69602 1.6428 3.54462C2.14657 2.82061 2.77187 2.18927 3.491 1.67855ZM0.348143 9.31249C0.266102 8.87978 0.224257 8.44041 0.223143 7.99999C0.224257 7.55958 0.266102 7.1202 0.348143 6.68749C0.636047 6.767 0.890237 6.93807 1.07227 7.17487C1.2543 7.41168 1.35428 7.70133 1.35708 7.99999C1.35428 8.29866 1.2543 8.58828 1.07227 8.82508C0.890237 9.06189 0.636047 9.23299 0.348143 9.31249ZM3.491 14.3303C2.77364 13.814 2.14876 13.1801 1.6428 12.4553C1.90406 12.3069 2.20654 12.2475 2.50454 12.2862C2.80253 12.3248 3.07984 12.4594 3.29457 12.6696C3.50532 12.8863 3.63877 13.1665 3.67427 13.4667C3.70978 13.7669 3.64537 14.0704 3.491 14.3303ZM7.99994 15.7768C7.53556 15.7733 7.07242 15.7285 6.616 15.6428C6.69141 15.3447 6.86402 15.0801 7.10655 14.8909C7.34908 14.7017 7.64771 14.5987 7.95529 14.5982C8.26639 14.5993 8.56819 14.7045 8.81253 14.8971C9.05688 15.0896 9.22973 15.3585 9.30351 15.6607C8.87297 15.7355 8.43693 15.7744 7.99994 15.7768ZM7.99994 13.9286C6.42758 13.9286 4.91962 13.304 3.8078 12.1921C2.69598 11.0803 2.07136 9.57235 2.07136 7.99999C2.07136 6.42764 2.69598 4.91968 3.8078 3.80786C4.91962 2.69604 6.42758 2.07141 7.99994 2.07141C9.57229 2.07141 11.0802 2.69604 12.1921 3.80786C13.3039 4.91968 13.9285 6.42764 13.9285 7.99999C13.9285 9.57235 13.3039 11.0803 12.1921 12.1921C11.0802 13.304 9.57229 13.9286 7.99994 13.9286ZM12.4642 14.375C12.2964 14.1125 12.2227 13.8009 12.2551 13.4911C12.2876 13.1812 12.4242 12.8916 12.6428 12.6696C12.8648 12.4511 13.1544 12.3144 13.4642 12.282C13.7741 12.2495 14.0857 12.3232 14.3482 12.4911C13.8265 13.2231 13.1833 13.8603 12.4464 14.375H12.4642ZM12.6428 3.33034C12.425 3.10979 12.2886 2.82171 12.2562 2.51342C12.2237 2.20514 12.2971 1.89499 12.4642 1.63392C13.1965 2.14451 13.8341 2.77904 14.3482 3.50892C14.0846 3.68297 13.7688 3.76028 13.4546 3.72772C13.1404 3.69517 12.8472 3.55474 12.6249 3.33034H12.6428ZM15.6696 9.35713C15.36 9.28847 15.0829 9.11689 14.8834 8.8704C14.6839 8.62391 14.5739 8.31707 14.5714 7.99999C14.5739 7.68292 14.6839 7.37605 14.8834 7.12956C15.0829 6.88307 15.36 6.71149 15.6696 6.64283C15.7474 7.09115 15.7892 7.545 15.7946 7.99999C15.7837 8.45549 15.736 8.90935 15.6517 9.35713H15.6696Z" fill="#ABB6CA"/>
</g>
<defs>
<clipPath id="clip0_1_1929">
<rect width="16" height="16" fill="white"/>
</clipPath>
</defs>
</svg>
