<svg width="20" height="14" viewBox="0 0 20 14" fill="none" xmlns="http://www.w3.org/2000/svg">
<g opacity="0.8">
<path fill-rule="evenodd" clip-rule="evenodd" d="M3.57885 10.3064L5.1041 8.78642C3.99755 8.12642 3.10034 7.38642 2.52214 6.85642C3.80814 5.67642 6.68916 3.41642 9.96894 3.41642C10.1284 3.41642 10.278 3.42642 10.4375 3.43642L12.2618 1.60642C11.5241 1.42642 10.7565 1.32642 9.96894 1.32642C4.63556 1.32642 0.438634 5.96642 0.269161 6.15642C-0.0897205 6.55642 -0.0897205 7.15642 0.269161 7.55642C0.358882 7.66642 1.61497 9.04642 3.57885 10.3064Z" fill="#808994"/>
<path fill-rule="evenodd" clip-rule="evenodd" d="M14.8372 4.92808C15.9438 5.58808 16.841 6.33808 17.4092 6.85808C16.1332 8.03808 13.2422 10.2981 9.97236 10.2981C9.81285 10.2981 9.65335 10.2981 9.50382 10.2881L7.6795 12.1181C8.40723 12.2881 9.17484 12.3881 9.97236 12.3881C15.3057 12.3881 19.4927 7.75808 19.6721 7.55808C20.031 7.15808 20.031 6.55808 19.6721 6.16808C19.5724 6.05808 18.3263 4.66808 16.3624 3.40808L14.8372 4.92808Z" fill="#808994"/>
<path fill-rule="evenodd" clip-rule="evenodd" d="M6.5355 11.7775L8.22025 10.0975L16.5044 1.7775C16.9132 1.3775 16.9132 0.7075 16.5044 0.3075C16.0957 -0.1025 15.4378 -0.1025 15.029 0.3075L6.05699 9.3075L4.50183 10.8575L3.43516 11.9375C3.02643 12.3475 3.02643 13.0075 3.43516 13.4175C3.63454 13.6175 3.9037 13.7275 4.17286 13.7275C4.43205 13.7275 4.70121 13.6175 4.91056 13.4175L6.5355 11.7775Z" fill="#808994"/>
</g>
</svg>
