<svg width="21" height="14" viewBox="0 0 21 14" fill="none" xmlns="http://www.w3.org/2000/svg">
<g opacity="0.8">
<path fill-rule="evenodd" clip-rule="evenodd" d="M3.73494 10.3067L5.32671 8.78666C4.17189 8.12666 3.23556 7.38666 2.63214 6.85666C3.97422 5.67666 6.9809 3.41666 10.4037 3.41666C10.5702 3.41666 10.7262 3.42666 10.8927 3.43666L12.7966 1.60666C12.0267 1.42666 11.2256 1.32666 10.4037 1.32666C4.83773 1.32666 0.457764 5.96666 0.280901 6.15666C-0.0936335 6.55666 -0.0936335 7.15666 0.280901 7.55666C0.374534 7.66666 1.6854 9.04666 3.73494 10.3067Z" fill="#808994"/>
<path fill-rule="evenodd" clip-rule="evenodd" d="M15.4843 4.9282C16.6391 5.5882 17.5754 6.3382 18.1684 6.8582C16.8368 8.0382 13.8197 10.2982 10.4073 10.2982C10.2408 10.2982 10.0743 10.2982 9.91829 10.2882L8.0144 12.1182C8.77388 12.2882 9.57496 12.3882 10.4073 12.3882C15.9733 12.3882 20.3428 7.7582 20.5301 7.5582C20.9046 7.1582 20.9046 6.5582 20.5301 6.1682C20.4261 6.0582 19.1256 4.6682 17.0761 3.4082L15.4843 4.9282Z" fill="#808994"/>
<path fill-rule="evenodd" clip-rule="evenodd" d="M6.82061 11.7775L8.57884 10.0975L14.4882 4.4075L16.1007 2.8575L17.2243 1.7775C17.6509 1.3775 17.6509 0.7075 17.2243 0.3075C16.7978 -0.1025 16.1111 -0.1025 15.6846 0.3075L12.2305 3.6275L6.32123 9.3075L4.69825 10.8575L3.58505 11.9375C3.1585 12.3475 3.1585 13.0075 3.58505 13.4175C3.79313 13.6175 4.07403 13.7275 4.35493 13.7275C4.62542 13.7275 4.90632 13.6175 5.1248 13.4175L6.82061 11.7775Z" fill="#808994"/>
</g>
</svg>
