<svg width="19" height="16" viewBox="0 0 19 16" fill="none" xmlns="http://www.w3.org/2000/svg">
<g opacity="0.8" clip-path="url(#clip0_1_10715)">
<path fill-rule="evenodd" clip-rule="evenodd" d="M5.75146 14.071L14.1519 5.67062L10.3194 1.8381L1.91895 10.2385L5.75146 14.071Z" fill="#808994"/>
<path fill-rule="evenodd" clip-rule="evenodd" d="M1.55 10.647L0 15.987V15.997H6.12V15.087H3.24L5.39 14.477L1.55 10.647Z" fill="#808994"/>
<path fill-rule="evenodd" clip-rule="evenodd" d="M14.5595 5.30994L15.6995 4.16994L15.6595 4.11994C15.8795 3.90994 15.9895 3.61994 15.9895 3.34994C15.9895 3.09994 15.8995 2.85994 15.6995 2.65994L13.3295 0.28994C12.9195 -0.12006 12.2795 -0.0800605 11.8695 0.32994C11.8395 0.35994 11.8095 0.38994 11.7895 0.41994L10.7295 1.46994L14.5595 5.30994Z" fill="#808994"/>
<path fill-rule="evenodd" clip-rule="evenodd" d="M0 15.9928H18.7267V15.0828H0V15.9928Z" fill="#808994"/>
</g>
<defs>
<clipPath id="clip0_1_10715">
<rect width="18.7267" height="15.9942" fill="white"/>
</clipPath>
</defs>
</svg>
