<svg width="19" height="16" viewBox="0 0 19 16" fill="none" xmlns="http://www.w3.org/2000/svg">
<g opacity="0.8" clip-path="url(#clip0_1_61898)">
<path fill-rule="evenodd" clip-rule="evenodd" d="M5.75146 14.0713L14.1519 5.67086L10.3194 1.83834L1.91895 10.2388L5.75146 14.0713Z" fill="#808994"/>
<path fill-rule="evenodd" clip-rule="evenodd" d="M1.55 10.647L0 15.987V15.997H6.12V15.087H3.24L5.39 14.477L1.55 10.647Z" fill="#808994"/>
<path fill-rule="evenodd" clip-rule="evenodd" d="M14.5595 5.31018L15.6995 4.17018L15.6595 4.12018C15.8795 3.91018 15.9895 3.62018 15.9895 3.35018C15.9895 3.10018 15.8995 2.86018 15.6995 2.66018L13.3295 0.290184C12.9195 -0.119816 12.2795 -0.0798163 11.8695 0.330184C11.8395 0.360184 11.8095 0.390184 11.7895 0.420184L10.7295 1.47018L14.5595 5.31018Z" fill="#808994"/>
<path fill-rule="evenodd" clip-rule="evenodd" d="M0 15.9925H18.7267V15.0825H0V15.9925Z" fill="#808994"/>
</g>
<defs>
<clipPath id="clip0_1_61898">
<rect width="18.7267" height="15.9942" fill="white"/>
</clipPath>
</defs>
</svg>
