<svg width="77" height="34" viewBox="0 0 77 34" fill="none" xmlns="http://www.w3.org/2000/svg">
<path d="M4 0.5H73C74.933 0.5 76.5 2.067 76.5 4V30C76.5 31.933 74.933 33.5 73 33.5H4C2.067 33.5 0.5 31.933 0.5 30V4C0.5 2.067 2.067 0.5 4 0.5Z" fill="url(#paint0_linear_1_10757)"/>
<path d="M4 0.5H73C74.933 0.5 76.5 2.067 76.5 4V30C76.5 31.933 74.933 33.5 73 33.5H4C2.067 33.5 0.5 31.933 0.5 30V4C0.5 2.067 2.067 0.5 4 0.5Z" fill="url(#paint1_linear_1_10757)"/>
<path d="M4 0.5H73C74.933 0.5 76.5 2.067 76.5 4V30C76.5 31.933 74.933 33.5 73 33.5H4C2.067 33.5 0.5 31.933 0.5 30V4C0.5 2.067 2.067 0.5 4 0.5Z" stroke="#85D420"/>
<defs>
<linearGradient id="paint0_linear_1_10757" x1="38.5" y1="0" x2="38.5" y2="34" gradientUnits="userSpaceOnUse">
<stop stop-color="#FFEE7F"/>
<stop offset="1" stop-color="#EEAD3C"/>
</linearGradient>
<linearGradient id="paint1_linear_1_10757" x1="38.5" y1="0" x2="38.5" y2="34" gradientUnits="userSpaceOnUse">
<stop stop-color="#76CD00"/>
<stop offset="1" stop-color="#478A03"/>
</linearGradient>
</defs>
</svg>
