<svg width="248" height="50" viewBox="0 0 248 50" fill="none" xmlns="http://www.w3.org/2000/svg">
<g filter="url(#filter0_d_1_11802)">
<path fill-rule="evenodd" clip-rule="evenodd" d="M23.228 35.5057C22.5972 36.4 21.6521 37.0233 20.5817 37.251C19.8809 37.4362 19.147 37.4588 18.4361 37.317C17.7252 37.1753 17.0562 36.8729 16.48 36.433C15.2669 35.533 14.352 33.7609 13.7353 31.1167C13.1545 28.6253 13.2167 26.7106 13.922 25.3723C14.2586 24.7207 14.7375 24.1532 15.3234 23.7119C15.9092 23.2705 16.5868 22.9667 17.306 22.823C18.3299 22.5429 19.4204 22.6391 20.3794 23.0944C21.3384 23.5496 22.1024 24.3336 22.5327 25.304L26.4793 23.3303C25.6127 21.7672 24.5999 20.6497 23.441 19.9777C21.4908 18.8383 19.2365 18.5671 16.678 19.164C13.7487 19.8473 11.61 21.3616 10.262 23.7067C8.91401 26.0518 8.6459 28.9648 9.45767 32.4457C10.2252 35.7363 11.7243 38.1217 13.955 39.6017C16.1857 41.0817 18.6895 41.4979 21.4663 40.8503C23.7108 40.3268 25.4337 39.3407 26.635 37.892C27.8363 36.4433 28.4847 34.5047 28.58 32.076L24.183 31.733C24.1883 33.3463 23.87 34.6039 23.228 35.5057ZM33.2057 34.433C34.061 35.5391 35.244 36.3467 36.5857 36.7403C37.939 37.1598 39.372 37.2552 40.769 37.019C41.8239 36.8731 42.837 36.5099 43.7444 35.9524C44.6518 35.395 45.4337 34.6554 46.0407 33.7803C47.2822 32.0026 47.7083 29.9532 47.319 27.6323C46.933 25.3303 45.872 23.5501 44.136 22.2917C42.4 21.0332 40.3714 20.5987 38.0503 20.988C36.6241 21.2071 35.2771 21.7858 34.1363 22.6693C33.0357 23.5292 32.2202 24.7013 31.7967 26.0323C31.3487 27.3443 31.2319 28.7467 31.4567 30.1147C31.6703 31.6777 32.2719 33.1623 33.2067 34.433H33.2057ZM36.1507 25.9557C36.4192 25.5188 36.7781 25.1444 37.2034 24.8579C37.6287 24.5713 38.1104 24.3792 38.6161 24.2943C39.1218 24.2095 39.6399 24.234 40.1354 24.3661C40.6309 24.4982 41.0923 24.735 41.4887 25.0603C42.3416 25.7492 42.8942 26.8448 43.1467 28.347C43.4049 29.8879 43.2431 31.123 42.6613 32.0523C42.3928 32.4892 42.0339 32.8636 41.6086 33.1501C41.1834 33.4367 40.7016 33.6289 40.1959 33.7137C39.6902 33.7985 39.1721 33.774 38.6766 33.6419C38.1811 33.5098 37.7197 33.2731 37.3233 32.9477C36.4653 32.2599 35.9088 31.1551 35.6537 29.6333C35.3986 28.1116 35.5642 26.8857 36.1507 25.9557ZM64.678 23.6053C64.5895 22.6809 64.4011 21.7688 64.116 20.885C63.8979 20.2803 63.5539 19.7288 63.1067 19.267C62.5903 18.7692 61.9546 18.4125 61.2607 18.2313C60.4381 17.9953 59.5754 17.9325 58.7273 18.047C56.6829 18.2977 55.0935 19.3778 53.959 21.2873L53.6813 19.0207L49.8863 19.4857L51.7773 34.9267L55.863 34.4267L55.0067 27.4313C54.7953 25.706 54.7547 24.5107 54.8847 23.8453C55.0079 23.1914 55.3486 22.5983 55.8513 22.1623C56.3631 21.7071 57.0038 21.4224 57.6847 21.3477C58.1859 21.272 58.6983 21.3535 59.1513 21.581C59.584 21.8118 59.9312 22.1754 60.1417 22.6183C60.3761 23.0866 60.5953 24.1542 60.7993 25.8213L61.766 33.702L65.852 33.202L64.678 23.6053ZM69.736 34.334C69.7814 34.9945 69.9803 35.6352 70.317 36.2052C70.6537 36.7752 71.1188 37.2588 71.6753 37.6173C72.8509 38.424 74.7524 38.7162 77.38 38.494C78.5488 38.4254 79.7004 38.1792 80.795 37.7637C81.584 37.4601 82.2947 36.983 82.8743 36.3677C83.4168 35.7229 83.7912 34.9538 83.964 34.129C84.1887 33.1986 84.2237 31.8187 84.069 29.9893L82.8913 16.079L79.0527 16.404L79.2367 18.579C77.8487 17.0012 76.1961 16.2933 74.279 16.4553C73.3973 16.5132 72.5388 16.7627 71.7635 17.1866C70.9882 17.6104 70.3147 18.1984 69.79 18.9093C68.6567 20.3873 68.1996 22.4253 68.4187 25.0233C68.594 27.096 69.2174 28.7877 70.289 30.0983C70.8871 30.8824 71.6773 31.4988 72.5832 31.8882C73.4892 32.2777 74.4802 32.4268 75.4607 32.3213C77.3289 32.1633 78.8052 31.1956 79.8897 29.418L80.0813 31.6803C80.1679 32.3115 80.1576 32.9522 80.051 33.5803C79.9409 34.0212 79.6835 34.4112 79.3213 34.6857C78.8133 35.0523 78.0245 35.2809 76.9547 35.3713C76.1176 35.4422 75.4922 35.3482 75.0787 35.0893C74.906 34.9613 74.7608 34.7998 74.6516 34.6146C74.5425 34.4294 74.4717 34.2241 74.4433 34.011L69.71 33.8387C69.7167 34.034 69.7258 34.1998 69.7373 34.336L69.736 34.334ZM73.2627 20.856C73.5213 20.4663 73.8664 20.1416 74.2712 19.9072C74.6759 19.6728 75.1293 19.5351 75.596 19.5047C76.075 19.455 76.559 19.5151 77.0112 19.6806C77.4634 19.8461 77.8719 20.1125 78.2057 20.4597C78.933 21.1823 79.3648 22.3463 79.501 23.9517C79.631 25.4895 79.3838 26.6791 78.7593 27.5207C78.4814 27.9191 78.1181 28.2505 77.696 28.491C77.2739 28.7314 76.8035 28.8748 76.319 28.9107C75.8647 28.9523 75.4069 28.8885 74.9812 28.7244C74.5555 28.5603 74.1735 28.3002 73.8647 27.9643C73.1627 27.2546 72.742 26.0774 72.6027 24.433C72.4698 22.8663 72.6898 21.674 73.2627 20.856ZM91.9353 26.3227C91.7844 23.6807 91.8 21.9387 91.982 21.0967C92.164 20.2547 92.4458 19.6639 92.8273 19.3243C93.2267 18.9775 93.734 18.7801 94.2627 18.7657C94.9594 18.7594 95.6431 18.9548 96.2313 19.3283L97.298 15.6727C96.4557 15.2176 95.5045 15.0029 94.5483 15.052C93.9196 15.0783 93.3121 15.2868 92.7997 15.652C92.297 16.0133 91.7488 16.7342 91.155 17.8147L91.029 15.6063L87.212 15.824L88.098 31.3573L92.2073 31.124L91.9353 26.3227ZM103.602 18.2493C104.105 17.9164 104.699 17.7461 105.302 17.7613C106.385 17.726 107.128 17.8705 107.529 18.1947C107.931 18.5189 108.144 19.0761 108.17 19.8663L108.183 20.2763C106.9 20.7776 105.573 21.1595 104.22 21.417C103.099 21.6371 102.011 21.9954 100.979 22.4837C100.259 22.85 99.6637 23.4199 99.266 24.1223C98.8637 24.8453 98.6723 25.6666 98.7133 26.493C98.7165 27.1094 98.8512 27.718 99.1083 28.2782C99.3654 28.8385 99.7391 29.3374 100.204 29.7417C101.155 30.5803 102.431 30.9736 104.032 30.9213C104.912 30.898 105.778 30.6951 106.577 30.325C107.405 29.929 108.152 29.3829 108.781 28.7143C108.813 28.7912 108.867 28.9507 108.944 29.1927C109.117 29.7242 109.262 30.1249 109.379 30.3947L113.449 30.2613C113.094 29.6105 112.823 28.9176 112.641 28.199C112.451 27.2045 112.352 26.1948 112.345 25.1823L112.232 20.3787C112.174 18.5927 111.95 17.3713 111.563 16.7147C111.096 15.9921 110.414 15.4348 109.613 15.122C108.7 14.7173 107.327 14.5448 105.492 14.6043C103.472 14.671 101.961 15.0821 100.959 15.8377C99.9567 16.5932 99.2708 17.7296 98.901 19.2467L102.656 19.798C102.804 19.1964 103.135 18.6554 103.603 18.249L103.602 18.2493ZM108.297 23.776C108.349 24.4477 108.317 25.1232 108.202 25.787C108.054 26.343 107.724 26.8334 107.265 27.1803C106.67 27.6665 105.933 27.9471 105.165 27.9803C104.864 28.0006 104.562 27.96 104.277 27.8611C103.991 27.7621 103.729 27.6068 103.505 27.4043C103.294 27.2204 103.123 26.9946 103.004 26.7411C102.884 26.4876 102.819 26.2121 102.812 25.932C102.803 25.642 102.868 25.3546 103.001 25.0966C103.134 24.8385 103.329 24.6182 103.57 24.4563C103.914 24.2103 104.652 23.9468 105.787 23.6657C106.626 23.4703 107.454 23.2329 108.27 22.9543L108.297 23.776ZM120.764 14.6427L120.705 9.14968L116.6 11.5963L116.634 14.687L114.744 14.7073L114.778 17.9883L116.667 17.968L116.74 24.75C116.724 25.7193 116.778 26.6886 116.903 27.65C116.978 28.2207 117.182 28.7669 117.499 29.2477C117.84 29.6838 118.298 30.0141 118.82 30.2003C119.46 30.4505 120.144 30.5702 120.831 30.5523C121.945 30.5589 123.05 30.3377 124.076 29.9023L123.69 26.7093C123.165 26.9346 122.608 27.0741 122.039 27.1223C121.792 27.1328 121.547 27.0637 121.341 26.925C121.159 26.8037 121.027 26.6202 120.97 26.4087C120.882 25.6728 120.847 24.9316 120.865 24.1907L120.798 17.9213L123.611 17.8913L123.575 14.6103L120.764 14.6427ZM140.666 30.3093L140.854 14.7537L136.738 14.704L136.659 21.266C136.632 23.4925 136.512 24.89 136.3 25.4587C136.075 26.0441 135.669 26.5422 135.14 26.8803C134.582 27.2589 133.919 27.4532 133.244 27.436C132.703 27.4514 132.171 27.2936 131.726 26.9857C131.33 26.6941 131.043 26.2778 130.912 25.8037C130.767 25.309 130.708 23.9679 130.734 21.7803L130.821 14.6323L126.705 14.5827L126.586 24.4257C126.568 25.8903 126.74 27.04 127.101 27.8747C127.459 28.7063 128.085 29.3944 128.879 29.8297C129.736 30.3073 130.701 30.5562 131.683 30.5523C132.701 30.5663 133.707 30.3321 134.614 29.87C135.517 29.4244 136.293 28.7586 136.871 27.934L136.843 30.263L140.666 30.3093ZM149.038 30.6023L149.77 9.14001L145.656 9L144.923 30.4593L149.038 30.6023ZM158.005 18.6647C158.535 18.3777 159.141 18.2603 159.74 18.3283C160.823 18.3888 161.549 18.5979 161.921 18.9557C162.292 19.3134 162.456 19.8875 162.412 20.6777L162.389 21.087C161.067 21.4733 159.711 21.7369 158.34 21.8743C157.205 21.9947 156.089 22.2555 155.018 22.6507C154.269 22.9523 153.626 23.4676 153.168 24.1323C152.703 24.8161 152.439 25.6165 152.407 26.4427C152.356 27.0569 152.436 27.6749 152.643 28.2555C152.85 28.8361 153.179 29.3658 153.607 29.8093C154.48 30.7287 155.716 31.2327 157.315 31.3213C158.194 31.3757 159.075 31.2499 159.903 30.9517C160.762 30.6304 161.555 30.1527 162.24 29.5427C162.265 29.6224 162.304 29.786 162.359 30.0333C162.485 30.5782 162.594 30.9902 162.687 31.2693L166.753 31.4953C166.457 30.8159 166.248 30.1018 166.131 29.37C166.029 28.3627 166.019 27.3482 166.101 26.339L166.412 21.544C166.511 19.7596 166.396 18.5233 166.068 17.8353C165.667 17.0744 165.036 16.4593 164.265 16.0773C163.392 15.5936 162.039 15.3007 160.206 15.1987C158.188 15.0876 156.647 15.3638 155.583 16.0273C154.519 16.6909 153.736 17.7623 153.233 19.2417L156.925 20.122C157.126 19.5357 157.503 19.0257 158.004 18.662L158.005 18.6647ZM162.195 24.5827C162.187 25.2563 162.096 25.9263 161.923 26.5773C161.726 27.1182 161.355 27.5778 160.867 27.883C160.232 28.3152 159.473 28.5305 158.706 28.4967C158.404 28.4903 158.106 28.4233 157.831 28.2996C157.556 28.1759 157.308 27.9981 157.103 27.7767C156.908 27.5749 156.758 27.3349 156.662 27.0719C156.565 26.8088 156.524 26.5286 156.542 26.249C156.559 25.9594 156.649 25.6788 156.804 25.4334C156.958 25.188 157.173 24.9858 157.427 24.8457C157.791 24.6312 158.55 24.4338 159.704 24.2533C160.557 24.1327 161.404 23.9693 162.24 23.7637L162.195 24.5827ZM175.454 16.6L175.892 11.1243L171.583 13.191L171.337 16.272L169.453 16.1213L169.192 19.3923L171.075 19.5427L170.535 26.3033C170.431 27.2669 170.398 28.2366 170.435 29.205C170.459 29.7802 170.612 30.3425 170.884 30.85C171.185 31.3152 171.611 31.6856 172.114 31.9183C172.729 32.2258 173.399 32.4071 174.085 32.4517C175.194 32.5591 176.314 32.4385 177.375 32.0973L177.279 28.8863C176.736 29.0634 176.169 29.152 175.598 29.1487C175.35 29.1367 175.112 29.0456 174.92 28.8887C174.75 28.7515 174.635 28.557 174.597 28.3413C174.576 27.6004 174.608 26.859 174.693 26.1227L175.193 19.873L177.997 20.097L178.258 16.8263L175.454 16.6ZM185.683 15.4223L186.054 11.6317L181.957 11.2317L181.587 15.0223L185.683 15.4223ZM183.964 33.0043L185.478 17.5217L181.381 17.1217L179.867 32.6043L183.964 33.0043ZM188.655 29.987C189.156 31.2922 190.057 32.4058 191.229 33.1687C192.404 33.9599 193.749 34.4636 195.155 34.639C196.207 34.8027 197.282 34.7463 198.312 34.4735C199.341 34.2006 200.303 33.7171 201.136 33.0537C202.836 31.7083 203.833 29.8681 204.128 27.533C204.421 25.2172 203.917 23.2071 202.616 21.5027C201.315 19.7982 199.497 18.7982 197.162 18.5027C195.733 18.3021 194.276 18.4689 192.929 18.9873C191.627 19.4942 190.509 20.3823 189.721 21.5353C188.914 22.663 188.399 23.9723 188.221 25.347C187.976 26.9048 188.125 28.499 188.655 29.9843L188.655 29.987ZM193.914 22.7147C194.297 22.3735 194.748 22.1183 195.238 21.9662C195.728 21.8141 196.244 21.7686 196.753 21.8329C197.262 21.8971 197.751 22.0695 198.188 22.3386C198.624 22.6076 198.998 22.9671 199.284 23.3927C199.903 24.2976 200.117 25.5058 199.927 27.0173C199.731 28.5678 199.22 29.7042 198.396 30.4267C198.013 30.7678 197.562 31.023 197.072 31.1752C196.582 31.3273 196.066 31.3727 195.557 31.3085C195.048 31.2442 194.559 31.0718 194.122 30.8028C193.686 30.5337 193.312 30.1743 193.026 29.7487C192.402 28.8431 192.187 27.6249 192.38 26.094C192.573 24.5631 193.084 23.4358 193.913 22.712L193.914 22.7147ZM221.919 28.656C222.101 27.7454 222.184 26.8178 222.166 25.8893C222.131 25.2474 221.961 24.6202 221.666 24.049C221.315 23.4233 220.809 22.8984 220.197 22.525C219.478 22.0618 218.671 21.7529 217.826 21.618C215.796 21.268 213.962 21.8438 212.326 23.3453L212.715 21.0933L208.948 20.4437L206.304 35.774L210.361 36.474L211.558 29.5303C211.853 27.8177 212.159 26.6614 212.476 26.0617C212.783 25.4708 213.28 25.0009 213.887 24.7283C214.509 24.4399 215.204 24.3519 215.878 24.4767C216.38 24.5488 216.847 24.7749 217.216 25.1237C217.564 25.4692 217.791 25.9175 217.865 26.4023C217.954 26.9183 217.856 28.004 217.571 29.6593L216.222 37.483L220.278 38.183L221.919 28.656ZM225.535 38.3153C226.546 39.43 228.084 40.2249 230.149 40.7C232.424 41.2233 234.257 41.119 235.649 40.387C236.289 40.0841 236.852 39.6406 237.296 39.0895C237.741 38.5385 238.055 37.8942 238.216 37.2047C238.509 35.9298 238.319 34.8389 237.646 33.932C236.961 33.0331 235.606 32.095 233.581 31.1177C231.557 30.1403 230.394 29.477 230.094 29.1277C229.991 29.0204 229.916 28.8897 229.875 28.7467C229.834 28.6038 229.829 28.453 229.86 28.3077C229.898 28.1442 229.977 27.993 230.089 27.8689C230.202 27.7448 230.345 27.6518 230.504 27.599C231.029 27.4094 231.82 27.4361 232.876 27.679C233.563 27.7934 234.199 28.1127 234.702 28.595C235.087 29.0268 235.303 29.5831 235.311 30.1617L239.255 30.333C239.227 29.043 238.732 27.8071 237.86 26.8553C237.007 25.9478 235.543 25.2552 233.468 24.7777C231.289 24.2759 229.578 24.353 228.335 25.009C227.751 25.2949 227.239 25.709 226.838 26.2205C226.436 26.7319 226.156 27.3275 226.017 27.9627C225.84 28.6336 225.841 29.3388 226.018 30.0095C226.196 30.6801 226.545 31.2932 227.03 31.7887C227.761 32.578 229.662 33.7018 232.733 35.16C233.198 35.3427 233.615 35.6289 233.953 35.997C234.025 36.12 234.072 36.2559 234.091 36.3971C234.11 36.5382 234.101 36.6817 234.065 36.8193C234.023 37.0288 233.931 37.2248 233.796 37.3903C233.661 37.5558 233.487 37.6857 233.29 37.7687C232.679 38.0287 231.855 38.0398 230.818 37.802C230.027 37.67 229.303 37.2786 228.759 36.6893C228.312 36.1151 228.087 35.399 228.126 34.6723L223.959 34.3597C223.978 35.8267 224.539 37.2348 225.534 38.3127L225.535 38.3153Z" fill="url(#paint0_linear_1_11802)"/>
</g>
<defs>
<filter id="filter0_d_1_11802" x="0.3" y="0.3" width="247.655" height="49.546" filterUnits="userSpaceOnUse" color-interpolation-filters="sRGB">
<feFlood flood-opacity="0" result="BackgroundImageFix"/>
<feColorMatrix in="SourceAlpha" type="matrix" values="0 0 0 0 0 0 0 0 0 0 0 0 0 0 0 0 0 0 127 0" result="hardAlpha"/>
<feOffset/>
<feGaussianBlur stdDeviation="4.35"/>
<feComposite in2="hardAlpha" operator="out"/>
<feColorMatrix type="matrix" values="0 0 0 0 1 0 0 0 0 1 0 0 0 0 1 0 0 0 0.46 0"/>
<feBlend mode="normal" in2="BackgroundImageFix" result="effect1_dropShadow_1_11802"/>
<feBlend mode="normal" in="SourceGraphic" in2="effect1_dropShadow_1_11802" result="shape"/>
</filter>
<linearGradient id="paint0_linear_1_11802" x1="17.8919" y1="-8.22106" x2="20.7029" y2="50.2178" gradientUnits="userSpaceOnUse">
<stop stop-color="white"/>
<stop offset="1" stop-color="#FFE9BE"/>
</linearGradient>
</defs>
</svg>
