<svg width="18" height="18" viewBox="0 0 18 18" fill="none" xmlns="http://www.w3.org/2000/svg">
<path d="M3.92077 2.19189H13.3879C14.5972 2.19189 15.5647 3.16322 15.5647 4.37642V14.9109C15.5647 16.1243 14.5972 17.0957 13.3879 17.0957H3.92077C2.7114 17.0957 1.7439 16.1243 1.7439 14.9109V4.37439C1.7439 3.16119 2.7114 2.19189 3.92077 2.19189Z" fill="#808994"/>
<path d="M7.3362 10.9211H5.21783V12.9026H7.3362V10.9211ZM6.80858 12.4072H5.74928V11.4165H6.80858V12.4072ZM7.3362 6.46675H5.21783V8.44832H7.3362V6.46675ZM6.80858 7.95287H5.74928V6.9622H6.80858V7.95287ZM13.1563 10.9211H12.097V9.9304H13.1563V10.9211ZM8.92313 5.47607H13.1563V9.43517H8.92313V5.47607ZM8.92313 12.9026H9.98243V10.9211H8.92313V9.9304H9.98243V10.9211H11.0417V12.9026H12.1008V11.912H13.1601V13.8933H11.0417V12.9026H9.98243V13.8933H8.92313V12.9026ZM8.3955 13.8933H4.16235V9.93422H8.3955V13.8933ZM8.3955 9.439H4.16235V5.47607H8.3955V9.439ZM9.98243 8.44832H12.1008V6.46675H9.98243V8.44832ZM10.5101 6.9622H11.5694V7.95287H10.5101V6.9622Z" fill="#1B1D20"/>
<path d="M10.969 3.56958H6.33935C5.71768 3.56958 5.19995 3.05005 5.19995 2.39058V2.32083C5.19995 1.66315 5.71745 1.1416 6.33935 1.1416H10.969C11.5906 1.1416 12.1084 1.66135 12.1084 2.3206V2.3548C12.1084 2.66643 12.0046 2.97828 11.7628 3.18618C11.5567 3.43188 11.2808 3.5698 10.969 3.5698" fill="#949EAA"/>
</svg>
