<svg width="18" height="19" viewBox="0 0 18 19" fill="none" xmlns="http://www.w3.org/2000/svg">
<path d="M9.18107 2.10486C5.01848 2.10486 1.64392 5.6281 1.64392 9.9741C1.64392 14.3201 5.01848 17.8433 9.18107 17.8433C13.3437 17.8433 16.7182 14.3201 16.7182 9.9741C16.7182 5.6281 13.3437 2.10486 9.18107 2.10486ZM8.6427 6.57135C7.91961 6.50812 7.22999 6.32386 6.59438 6.03087C7.1092 4.61634 7.86981 3.65587 8.6427 3.34303V6.57135ZM8.6427 7.69571V9.41201H5.96584C6.00033 8.57854 6.10918 7.80584 6.27523 7.1078C7.01195 7.43188 7.8079 7.63353 8.6427 7.69571ZM8.6427 10.5362V12.2525C7.8079 12.3147 7.01195 12.5163 6.27523 12.8404C6.10901 12.1424 6.00033 11.3697 5.96584 10.5362H8.6427ZM8.6427 13.3768V16.6052C7.86981 16.2923 7.1092 15.3317 6.59438 13.9173C7.22999 13.6242 7.91961 13.4399 8.6427 13.3768ZM9.71944 13.3768C10.4425 13.4401 11.1322 13.6243 11.7678 13.9173C11.2529 15.3319 10.4923 16.2925 9.71944 16.6052V13.3768ZM9.71944 12.2525V10.5362H12.3963C12.3618 11.3697 12.2531 12.1424 12.0869 12.8404C11.3502 12.5161 10.5542 12.3147 9.71944 12.2525ZM9.71944 9.41201V7.69571C10.5542 7.63353 11.3502 7.43188 12.0869 7.1078C12.2531 7.80584 12.3618 8.57854 12.3963 9.41201H9.71944ZM9.71944 6.57135V3.34303C10.4923 3.6557 11.2529 4.61652 11.7678 6.03087C11.1322 6.32403 10.4425 6.50829 9.71944 6.57135ZM11.8891 3.8584C12.4515 4.13099 12.9735 4.48658 13.4391 4.91425C13.2126 5.12275 12.9682 5.30911 12.7155 5.48336C12.4826 4.87332 12.2047 4.32581 11.8891 3.8584ZM5.64685 5.48354C5.39416 5.30911 5.14971 5.12292 4.92325 4.91442C5.38875 4.4867 5.91076 4.1311 6.47325 3.85857C6.15746 4.32581 5.87953 4.87332 5.64685 5.48354ZM5.29792 6.58751C5.07114 7.45401 4.92881 8.40569 4.88977 9.41201H2.74808C2.85878 8.02031 3.37259 6.74701 4.17173 5.7226C4.51897 6.04685 4.89751 6.33405 5.29792 6.58751ZM4.88961 10.5362C4.92864 11.5425 5.07097 12.4942 5.29776 13.3607C4.89735 13.6141 4.51897 13.9013 4.17139 14.2256C3.37225 13.2012 2.85845 11.9279 2.74774 10.5362H4.88961ZM5.64685 14.4647C5.87953 15.0749 6.15746 15.6226 6.47325 16.0898C5.9108 15.8172 5.3888 15.4616 4.92325 15.0339C5.14971 14.8253 5.39416 14.6389 5.64685 14.4647ZM12.7153 14.4647C12.968 14.6391 13.2124 14.8253 13.4389 15.0338C12.9734 15.4615 12.4514 15.8171 11.8889 16.0896C12.2047 15.6224 12.4826 15.0749 12.7153 14.4647ZM13.0642 13.3607C13.291 12.4942 13.4333 11.5425 13.4724 10.5362H15.6141C15.5034 11.9279 14.9896 13.2012 14.1904 14.2256C13.8432 13.9013 13.4646 13.6141 13.0642 13.3607ZM13.4725 9.41201C13.4335 8.40569 13.2912 7.45401 13.0644 6.58751C13.4648 6.33405 13.8432 6.04685 14.1908 5.7226C14.9899 6.74701 15.5037 8.02031 15.6144 9.41201H13.4725Z" fill="white"/>
</svg>
