<svg width="18" height="19" viewBox="0 0 18 19" fill="none" xmlns="http://www.w3.org/2000/svg">
<path d="M9.18046 2.10486C5.01787 2.10486 1.64331 5.6281 1.64331 9.9741C1.64331 14.3201 5.01787 17.8433 9.18046 17.8433C13.3431 17.8433 16.7176 14.3201 16.7176 9.9741C16.7176 5.6281 13.3431 2.10486 9.18046 2.10486ZM8.64209 6.57135C7.919 6.50812 7.22938 6.32386 6.59377 6.03087C7.10859 4.61634 7.8692 3.65587 8.64209 3.34303V6.57135ZM8.64209 7.69571V9.41201H5.96523C5.99972 8.57854 6.10857 7.80584 6.27462 7.1078C7.01134 7.43188 7.80729 7.63353 8.64209 7.69571ZM8.64209 10.5362V12.2525C7.80729 12.3147 7.01134 12.5163 6.27462 12.8404C6.1084 12.1424 5.99972 11.3697 5.96523 10.5362H8.64209ZM8.64209 13.3768V16.6052C7.8692 16.2923 7.10859 15.3317 6.59377 13.9173C7.22938 13.6242 7.919 13.4399 8.64209 13.3768ZM9.71883 13.3768C10.4419 13.4401 11.1315 13.6243 11.7672 13.9173C11.2523 15.3319 10.4917 16.2925 9.71883 16.6052V13.3768ZM9.71883 12.2525V10.5362H12.3957C12.3612 11.3697 12.2525 12.1424 12.0863 12.8404C11.3496 12.5161 10.5536 12.3147 9.71883 12.2525ZM9.71883 9.41201V7.69571C10.5536 7.63353 11.3496 7.43188 12.0863 7.1078C12.2525 7.80584 12.3612 8.57854 12.3957 9.41201H9.71883ZM9.71883 6.57135V3.34303C10.4917 3.6557 11.2523 4.61652 11.7672 6.03087C11.1315 6.32403 10.4419 6.50829 9.71883 6.57135ZM11.8885 3.8584C12.4509 4.13099 12.9729 4.48658 13.4384 4.91425C13.212 5.12275 12.9675 5.30911 12.7148 5.48336C12.482 4.87332 12.2041 4.32581 11.8885 3.8584ZM5.64624 5.48354C5.39355 5.30911 5.1491 5.12292 4.92264 4.91442C5.38814 4.4867 5.91015 4.1311 6.47264 3.85857C6.15685 4.32581 5.87892 4.87332 5.64624 5.48354ZM5.29731 6.58751C5.07053 7.45401 4.9282 8.40569 4.88916 9.41201H2.74747C2.85817 8.02031 3.37198 6.74701 4.17112 5.7226C4.51836 6.04685 4.8969 6.33405 5.29731 6.58751ZM4.889 10.5362C4.92803 11.5425 5.07036 12.4942 5.29715 13.3607C4.89674 13.6141 4.51836 13.9013 4.17078 14.2256C3.37164 13.2012 2.85783 11.9279 2.74713 10.5362H4.889ZM5.64624 14.4647C5.87892 15.0749 6.15685 15.6226 6.47264 16.0898C5.91019 15.8172 5.38819 15.4616 4.92264 15.0339C5.1491 14.8253 5.39355 14.6389 5.64624 14.4647ZM12.7147 14.4647C12.9674 14.6391 13.2118 14.8253 13.4383 15.0338C12.9728 15.4615 12.4508 15.8171 11.8883 16.0896C12.2041 15.6224 12.482 15.0749 12.7147 14.4647ZM13.0636 13.3607C13.2904 12.4942 13.4327 11.5425 13.4718 10.5362H15.6135C15.5028 11.9279 14.9889 13.2012 14.1898 14.2256C13.8426 13.9013 13.464 13.6141 13.0636 13.3607ZM13.4719 9.41201C13.4329 8.40569 13.2906 7.45401 13.0638 6.58751C13.4642 6.33405 13.8426 6.04685 14.1901 5.7226C14.9893 6.74701 15.5031 8.02031 15.6138 9.41201H13.4719Z" fill="white"/>
</svg>
