<svg width="18" height="18" viewBox="0 0 18 18" fill="none" xmlns="http://www.w3.org/2000/svg">
<path d="M8.35925 9.088C9.52007 5.73574 8.97064 2.50207 7.13205 1.86541C5.29346 1.22874 2.86196 3.43016 1.70113 6.78242C0.540309 10.1347 1.08975 13.3683 2.92833 14.005C4.76692 14.6417 7.19842 12.4403 8.35925 9.088Z" fill="url(#paint0_linear_1_1919)"/>
<path d="M3.78217 15.8959C3.42595 15.8962 3.07217 15.8371 2.73534 15.7212C1.47128 15.2836 0.56692 14.0746 0.189118 12.317C-0.1816 10.5949 -0.00371822 8.53901 0.69128 6.53666C1.38628 4.53431 2.51102 2.80822 3.86718 1.68112C5.25166 0.533542 6.71013 0.143147 7.97341 0.579193C9.23668 1.01524 10.1418 2.23208 10.5204 3.98807C10.8911 5.71022 10.7125 7.76609 10.0183 9.76844C9.32405 11.7708 8.19379 13.4969 6.83764 14.6208C5.82387 15.4614 4.76996 15.8959 3.78217 15.8959ZM6.92422 0.803513C6.02773 0.803513 5.05961 1.20729 4.11826 1.98414C2.8172 3.06245 1.73023 4.72399 1.05885 6.66259C0.387463 8.60119 0.214301 10.5784 0.569277 12.2312C0.917957 13.8487 1.73102 14.9546 2.86049 15.3457C5.22805 16.1659 8.27171 13.6047 9.64597 9.63621C10.3174 7.69761 10.4913 5.72045 10.1355 4.06756C9.78765 2.4501 8.9738 1.34424 7.84511 0.95306C7.54868 0.852027 7.23739 0.801475 6.92422 0.803513Z" fill="url(#paint1_linear_1_1919)"/>
<path d="M2.30245 15.7306C2.30245 15.7306 2.42129 16.0675 2.98878 16.3343C3.78059 16.7058 4.79515 17.0553 6.25126 16.1769L12.5897 17.5346C12.2641 17.8187 11.8511 17.9829 11.4193 17.9998C10.836 18.0108 5.00452 17.5748 2.93212 16.4563C2.53385 16.2422 2.36777 15.9967 2.30245 15.7306Z" fill="url(#paint2_linear_1_1919)"/>
<path d="M7.2611 0.120321C7.2611 0.120321 9.72704 -0.562083 10.9077 2.17934L16.8769 5.02624C16.4446 4.29482 15.847 3.67483 15.132 3.21594L10.252 0.775965C10.252 0.775965 8.70383 -0.365312 7.2611 0.120321Z" fill="url(#paint3_linear_1_1919)"/>
<path d="M6.6574 15.9534L12.9147 17.3308C12.9147 17.3308 15.4602 16.4256 16.8769 12.3595L10.5802 10.2604C10.5802 10.2604 10.1733 13.0679 6.6574 15.9534ZM12.1017 13.4528C11.9773 13.4103 11.8349 13.4457 11.6798 13.5575C11.6211 13.5999 11.5595 13.6382 11.4956 13.6724C11.4508 13.6952 11.3138 13.6724 11.08 13.5976C10.9966 13.5716 10.9675 13.5354 10.9943 13.4874L11.0131 13.4536L11.8136 12.3068C11.8923 12.2005 11.9514 12.1407 11.9986 12.1281C12.0903 12.125 12.1811 12.1467 12.2615 12.1911L14.9864 13.345C15.0297 13.3631 15.0525 13.3772 15.0556 13.3867C15.0588 13.3961 15.0438 13.4174 15.0115 13.4496L14.8919 13.5716C14.8011 13.6497 14.6999 13.7149 14.5912 13.7653C14.2292 13.9565 13.7254 14.2714 13.1107 14.6862C12.6024 15.022 12.141 15.4241 11.7388 15.8817C11.6042 16.0392 11.5381 16.1289 11.5342 16.1596C11.5303 16.1903 11.5499 16.2178 11.5909 16.2446C11.6176 16.2603 11.6129 16.2902 11.5751 16.332C11.55 16.3642 11.5203 16.3926 11.487 16.4162C11.4569 16.4232 11.4257 16.4232 11.3957 16.4162L10.215 16.2422C10.1831 16.2413 10.1519 16.232 10.1245 16.2155C10.1159 16.2052 10.1245 16.1785 10.1544 16.1368C10.1727 16.1032 10.1979 16.074 10.2284 16.051C10.2689 16.0364 10.3114 16.0284 10.3543 16.0274C10.3897 16.0262 10.424 16.0153 10.4535 15.9959C10.484 15.9676 10.5104 15.9353 10.5322 15.8998C10.6338 15.7527 10.8423 15.5551 11.169 15.3001C11.5607 15.0004 11.98 14.7387 12.4212 14.5185L13.5334 13.9447L12.1017 13.4528Z" fill="url(#paint4_linear_1_1919)"/>
<path d="M16.9557 5.36705L11.0391 2.66497C11.0391 2.66497 12.167 5.18365 10.9077 9.56537L17.047 11.7692C17.047 11.7692 18.5298 8.5941 16.9557 5.36705ZM15.5838 5.87236C15.4547 6.05102 15.3004 6.36822 15.1178 6.83575C14.9281 7.32138 14.8329 7.91327 14.8376 8.62244C14.8376 8.92547 14.8533 9.11201 14.8785 9.17734C14.9113 9.25276 14.9621 9.31898 15.0265 9.37017C15.0529 9.39623 15.0732 9.42781 15.086 9.46264C15.0988 9.49748 15.1038 9.5347 15.1005 9.57167C15.1071 9.6372 15.1031 9.70338 15.0887 9.76765C15.0787 9.78077 15.0425 9.77683 14.9801 9.75584L13.5082 9.2466C13.4647 9.23585 13.4251 9.21292 13.3941 9.18048C13.3741 9.127 13.3679 9.06935 13.376 9.01283C13.3733 8.95526 13.3821 8.89773 13.402 8.84361C13.4161 8.82393 13.4539 8.81134 13.5169 8.80504C13.5339 8.80426 13.5503 8.79867 13.5642 8.78892C13.5782 8.77916 13.589 8.76565 13.5956 8.74995C13.6112 8.69169 13.6189 8.63159 13.6184 8.57128C13.6447 8.23648 13.7244 7.90805 13.8545 7.59844C13.9887 7.23919 14.1838 6.90581 14.4315 6.61301L14.921 6.02663L13.6444 5.57484C13.6017 5.55715 13.5539 5.55589 13.5103 5.5713C13.4667 5.5867 13.4304 5.61767 13.4082 5.65827C13.3862 5.69371 13.3597 5.72624 13.3295 5.75508C13.3075 5.77397 13.2052 5.75508 13.0234 5.68739C12.9588 5.66456 12.9281 5.63387 12.9305 5.59451V5.56697L13.069 4.7665C13.0806 4.70248 13.0979 4.66706 13.121 4.66024C13.1781 4.6592 13.2347 4.67161 13.2862 4.69645L15.5649 5.50557C15.5925 5.51398 15.619 5.52588 15.6436 5.54099C15.6549 5.55642 15.6602 5.57545 15.6585 5.59451L15.6625 5.6992C15.6558 5.76396 15.6282 5.82477 15.5838 5.87236Z" fill="url(#paint5_linear_1_1919)"/>
<defs>
<linearGradient id="paint0_linear_1_1919" x1="8.83988" y1="0" x2="8.83988" y2="18" gradientUnits="userSpaceOnUse">
<stop stop-color="#5DE3CE"/>
<stop offset="1" stop-color="#4362CA"/>
</linearGradient>
<linearGradient id="paint1_linear_1_1919" x1="8.83988" y1="0" x2="8.83988" y2="18" gradientUnits="userSpaceOnUse">
<stop stop-color="#5DE3CE"/>
<stop offset="1" stop-color="#4362CA"/>
</linearGradient>
<linearGradient id="paint2_linear_1_1919" x1="8.83988" y1="0" x2="8.83988" y2="18" gradientUnits="userSpaceOnUse">
<stop stop-color="#5DE3CE"/>
<stop offset="1" stop-color="#4362CA"/>
</linearGradient>
<linearGradient id="paint3_linear_1_1919" x1="8.83988" y1="0" x2="8.83988" y2="18" gradientUnits="userSpaceOnUse">
<stop stop-color="#5DE3CE"/>
<stop offset="1" stop-color="#4362CA"/>
</linearGradient>
<linearGradient id="paint4_linear_1_1919" x1="8.83988" y1="0" x2="8.83988" y2="18" gradientUnits="userSpaceOnUse">
<stop stop-color="#5DE3CE"/>
<stop offset="1" stop-color="#4362CA"/>
</linearGradient>
<linearGradient id="paint5_linear_1_1919" x1="8.83988" y1="0" x2="8.83988" y2="18" gradientUnits="userSpaceOnUse">
<stop stop-color="#5DE3CE"/>
<stop offset="1" stop-color="#4362CA"/>
</linearGradient>
</defs>
</svg>
