<svg width="16" height="12" viewBox="0 0 16 12" fill="none" xmlns="http://www.w3.org/2000/svg">
<path d="M7.81685 3.77265V0.790527L0.601562 5.81231L7.81685 10.8353V7.87969C10.7046 7.88087 13.3819 8.0241 15.6456 11.9914C15.6456 9.47123 15.2225 3.84314 7.81685 3.77265Z" fill="#98C4D8"/>
<path d="M7.21528 3.18136V0.199219L0 5.22101L7.21528 10.244V7.28839C10.103 7.28956 12.7804 7.43279 15.044 11.4001C15.044 8.87992 14.6209 3.25183 7.21528 3.18136Z" fill="#EFD9A0"/>
<path d="M3.9458 4.02248C3.98605 4.08008 4.05043 4.12056 4.13527 4.1416C4.22011 4.16265 4.32376 4.16385 4.44028 4.14513C4.55681 4.12642 4.68393 4.08816 4.81439 4.03254C4.94486 3.97691 5.0761 3.90502 5.20064 3.82096C5.32518 3.73689 5.44057 3.64231 5.54022 3.5426C5.63987 3.4429 5.72183 3.34003 5.78142 3.23986C5.84101 3.1397 5.87706 3.0442 5.88752 2.95883C5.89798 2.87346 5.88263 2.79988 5.84236 2.7423C5.80212 2.6847 5.73774 2.64422 5.6529 2.62317C5.56805 2.60213 5.46441 2.60093 5.34789 2.61964C5.23136 2.63835 5.10424 2.67662 4.97378 2.73224C4.84331 2.78786 4.71206 2.85976 4.58753 2.94382C4.46299 3.02788 4.3476 3.12247 4.24795 3.22217C4.1483 3.32188 4.06634 3.42475 4.00675 3.52491C3.94716 3.62508 3.9111 3.72057 3.90065 3.80594C3.89019 3.89132 3.90553 3.9649 3.9458 4.02248Z" fill="#FEFEFE"/>
<path d="M2.78282 5.88278C2.80965 5.92117 2.84969 5.9501 2.90065 5.96792C2.95161 5.98573 3.01248 5.99207 3.0798 5.98659C3.14713 5.98111 3.21957 5.9639 3.29301 5.93596C3.36645 5.90801 3.43943 5.86988 3.5078 5.82373C3.57618 5.77758 3.63859 5.72432 3.69149 5.66698C3.74438 5.60965 3.78672 5.54938 3.81609 5.4896C3.84546 5.42982 3.86128 5.3717 3.86264 5.31857C3.86401 5.26544 3.8509 5.21833 3.82406 5.17994C3.79723 5.14155 3.75719 5.11262 3.70623 5.0948C3.65527 5.07699 3.5944 5.07065 3.52708 5.07613C3.45976 5.08161 3.38731 5.09882 3.31387 5.12676C3.24044 5.15471 3.16745 5.19284 3.09908 5.23899C3.03071 5.28514 2.96829 5.33841 2.9154 5.39574C2.8625 5.45307 2.82016 5.51334 2.79079 5.57312C2.76142 5.6329 2.74561 5.69102 2.74424 5.74415C2.74287 5.79728 2.75598 5.84439 2.78282 5.88278Z" fill="#FEFEFE"/>
</svg>
