<svg width="16" height="16" viewBox="0 0 16 16" fill="none" xmlns="http://www.w3.org/2000/svg">
<path d="M7.80038 8.55388C10.1625 8.55388 12.0773 6.63903 12.0773 4.27694C12.0773 1.91485 10.1625 0 7.80038 0C5.43829 0 3.52344 1.91485 3.52344 4.27694C3.52344 6.63903 5.43829 8.55388 7.80038 8.55388Z" fill="#808994"/>
<path d="M13.9955 15.9999H1.58476C1.16611 15.9999 0.764475 15.8342 0.467548 15.5391C0.170621 15.244 0.00252202 14.8433 0 14.4246V14.0905C0.00426091 12.7998 0.509176 11.561 1.40841 10.6351C2.30765 9.70914 3.53107 9.16825 4.82112 9.12622H5.16479C5.29092 9.14058 5.41553 9.16615 5.53713 9.20261C6.27411 9.50508 7.05339 9.69182 7.84742 9.75628C8.50394 9.69227 9.14736 9.53142 9.75677 9.27894L10.0145 9.20261L10.5492 9.12622H10.7019C12.0061 9.14625 13.2503 9.6778 14.1663 10.6064C15.0824 11.5349 15.597 12.7862 15.5994 14.0905V14.4246C15.5982 14.6336 15.5556 14.8402 15.4742 15.0326C15.3928 15.225 15.2742 15.3995 15.1251 15.5459C14.9761 15.6923 14.7995 15.8078 14.6057 15.8857C14.4118 15.9636 14.2044 16.0024 13.9955 15.9999Z" fill="#808994"/>
</svg>
