<svg width="16" height="16" viewBox="0 0 16 16" fill="none" xmlns="http://www.w3.org/2000/svg">
<path d="M7.80038 8.55388C10.1625 8.55388 12.0773 6.63903 12.0773 4.27694C12.0773 1.91485 10.1625 0 7.80038 0C5.43829 0 3.52344 1.91485 3.52344 4.27694C3.52344 6.63903 5.43829 8.55388 7.80038 8.55388Z" fill="#808994"/>
<path d="M13.9955 15.9996H1.58476C1.16611 15.9996 0.764475 15.834 0.467548 15.5389C0.170621 15.2437 0.00252202 14.8431 0 14.4244V14.0903C0.00426091 12.7996 0.509176 11.5608 1.40841 10.6348C2.30765 9.7089 3.53107 9.16801 4.82112 9.12598H5.16479C5.29092 9.14033 5.41553 9.16591 5.53713 9.20237C6.27411 9.50484 7.05339 9.69157 7.84742 9.75604C8.50394 9.69203 9.14736 9.53117 9.75677 9.2787L10.0145 9.20237L10.5492 9.12598H10.7019C12.0061 9.146 13.2503 9.67756 14.1663 10.6061C15.0824 11.5347 15.597 12.7859 15.5994 14.0903V14.4244C15.5982 14.6333 15.5556 14.84 15.4742 15.0324C15.3928 15.2248 15.2742 15.3992 15.1251 15.5456C14.9761 15.692 14.7995 15.8075 14.6057 15.8854C14.4118 15.9633 14.2044 16.0022 13.9955 15.9996Z" fill="#808994"/>
</svg>
