<svg width="18" height="18" viewBox="0 0 18 18" fill="none" xmlns="http://www.w3.org/2000/svg">
<path d="M8.77481 9.62285C11.4321 9.62285 13.5862 7.4687 13.5862 4.81143C13.5862 2.15415 11.4321 0 8.77481 0C6.11753 0 3.96338 2.15415 3.96338 4.81143C3.96338 7.4687 6.11753 9.62285 8.77481 9.62285Z" fill="#808994"/>
<path d="M15.7445 17.9993H1.78281C1.31183 17.9993 0.860011 17.8129 0.525977 17.4809C0.191943 17.1489 0.0028372 16.6981 0 16.2272V15.8513C0.0047934 14.3993 0.572808 13.0057 1.58442 11.964C2.59603 10.9224 3.97234 10.3139 5.42361 10.2666H5.81023C5.95212 10.2828 6.09231 10.3115 6.2291 10.3525C7.05818 10.6928 7.93485 10.9029 8.82811 10.9754C9.56667 10.9034 10.2905 10.7224 10.9761 10.4384L11.2661 10.3525L11.8675 10.2666H12.0393C13.5065 10.2891 14.9062 10.8871 15.9367 11.9317C16.9672 12.9763 17.5462 14.3839 17.5488 15.8513V16.2272C17.5474 16.4622 17.4996 16.6947 17.408 16.9111C17.3164 17.1276 17.183 17.3238 17.0153 17.4885C16.8476 17.6532 16.649 17.7831 16.4309 17.8708C16.2128 17.9584 15.9796 18.0021 15.7445 17.9993Z" fill="#808994"/>
</svg>
