<svg width="28" height="28" viewBox="0 0 28 28" fill="none" xmlns="http://www.w3.org/2000/svg">
<circle opacity="0.8" cx="14" cy="14" r="14" fill="#25282D"/>
<path fill-rule="evenodd" clip-rule="evenodd" d="M7.25628 7.25628C7.59799 6.91457 8.15201 6.91457 8.49372 7.25628L20.7437 19.5063C21.0854 19.848 21.0854 20.402 20.7437 20.7437C20.402 21.0854 19.848 21.0854 19.5063 20.7437L7.25628 8.49372C6.91457 8.15201 6.91457 7.59799 7.25628 7.25628Z" fill="white"/>
<path fill-rule="evenodd" clip-rule="evenodd" d="M20.7437 7.25628C21.0854 7.59799 21.0854 8.15201 20.7437 8.49372L8.49372 20.7437C8.15201 21.0854 7.59799 21.0854 7.25628 20.7437C6.91457 20.402 6.91457 19.848 7.25628 19.5063L19.5063 7.25628C19.848 6.91457 20.402 6.91457 20.7437 7.25628Z" fill="white"/>
</svg>
