<svg width="28" height="29" viewBox="0 0 28 29" fill="none" xmlns="http://www.w3.org/2000/svg">
<path d="M15.0144 28.6822H12.9856C5.8435 28.6822 0 22.9028 0 15.839V13.8324C0 6.76867 5.8435 0.989258 12.9856 0.989258H15.0144C22.1565 0.989258 28 6.76867 28 13.8324V15.839C28 22.9028 22.1565 28.6822 15.0144 28.6822Z" fill="#00C300"/>
<path d="M21.9663 13.9766C21.9663 10.4266 18.3661 7.53613 13.9414 7.53613C9.51677 7.53613 5.9165 10.4259 5.9165 13.9766C5.9165 17.1607 8.77118 19.8282 12.6282 20.3319C12.8894 20.3874 13.2447 20.5021 13.3344 20.7229C13.4161 20.9235 13.3877 21.2374 13.3607 21.4409L13.2461 22.1205C13.2111 22.3226 13.0857 22.9056 13.9414 22.5484C14.7979 22.192 18.5623 19.8571 20.246 17.9407C21.4089 16.678 21.9663 15.398 21.9663 13.9759V13.9766H21.9663ZM18.868 13.6807C19.1003 13.6903 19.2807 13.8843 19.2711 14.114C19.2619 14.3303 19.0867 14.5036 18.868 14.5126H17.6934V15.2558H18.868C19.1007 15.2654 19.2815 15.4597 19.2718 15.6899C19.2627 15.9066 19.0871 16.0802 18.868 16.0892H17.2732C17.0409 16.0888 16.8527 15.9026 16.8523 15.6729V12.5198C16.8523 12.2889 17.042 12.1027 17.2732 12.1027H18.868C19.1003 12.1193 19.275 12.319 19.2582 12.5487C19.2431 12.7554 19.0769 12.9197 18.868 12.9346H17.6934V13.68H18.868V13.6807ZM16.2876 15.6736C16.2884 15.9027 16.1013 16.0891 15.8696 16.0899C15.8684 16.0899 15.8672 16.0899 15.8659 16.0899C15.734 16.0893 15.6099 16.028 15.5304 15.924L13.8962 13.7233V15.6736C13.8962 15.9035 13.7077 16.0899 13.4753 16.0899C13.2428 16.0899 13.0543 15.9035 13.0543 15.6736V12.5205C13.0543 12.2905 13.2428 12.1041 13.4753 12.1041C13.6075 12.1041 13.7321 12.1656 13.8116 12.2701L15.4457 14.4708V12.5205C15.4594 12.2905 15.659 12.1151 15.8915 12.1287C16.1048 12.1411 16.275 12.3094 16.2876 12.5205V15.6736ZM12.4503 15.6736C12.4503 15.9035 12.2618 16.0899 12.0293 16.0899C11.7968 16.0899 11.6084 15.9035 11.6084 15.6736V12.5205C11.6181 12.2908 11.8142 12.1123 12.0465 12.1218C12.2652 12.1308 12.4404 12.3041 12.4495 12.5205V15.6736H12.4503ZM10.8 16.0899H9.20527C8.97307 16.0895 8.78507 15.9032 8.78507 15.6736V12.5205C8.79476 12.2908 8.99088 12.1123 9.22315 12.1218C9.44186 12.1308 9.6171 12.3041 9.62622 12.5205V15.2565H10.8008C11.0335 15.2565 11.2221 15.4431 11.2221 15.6732C11.2221 15.9033 11.0335 16.0899 10.8008 16.0899H10.8V16.0899Z" fill="white"/>
</svg>
