<svg width="13" height="12" viewBox="0 0 13 12" fill="none" xmlns="http://www.w3.org/2000/svg">
<path d="M10.6447 0.94895H9.14447V0.71002C9.14447 0.41109 8.88933 0.168945 8.57423 0.168945C8.25913 0.168945 8.004 0.41109 8.004 0.71002V0.94895H4.23151V0.71002C4.23151 0.41109 3.97638 0.168945 3.66128 0.168945C3.34617 0.168945 3.09104 0.41109 3.09104 0.71002V0.94895H1.54279C0.690169 0.94895 0 1.60467 0 2.4136V10.4965C0 11.3054 0.691259 11.9612 1.54279 11.9612H10.6447C11.4974 11.9612 12.1875 11.3054 12.1875 10.4965V2.4136C12.1875 1.60467 11.4974 0.94895 10.6447 0.94895ZM9.28512 6.70362L5.66091 10.1108C5.53707 10.2273 5.37166 10.2915 5.20021 10.2895C5.02876 10.2875 4.86494 10.2195 4.74396 10.1001L2.77049 8.14685C2.51536 7.89506 2.51754 7.48792 2.77376 7.2372C3.02998 6.98648 3.4443 6.98863 3.69944 7.24041L5.22152 8.74471L8.38234 5.77362C8.44437 5.71522 8.5175 5.66942 8.59757 5.63884C8.67763 5.60825 8.76305 5.59348 8.84893 5.59537C8.93481 5.59726 9.01946 5.61578 9.09805 5.64986C9.17664 5.68394 9.24762 5.73291 9.30692 5.79398C9.55552 6.05112 9.5457 6.45827 9.28512 6.70362ZM10.9533 3.49468C10.9533 3.69718 10.7799 3.86111 10.5673 3.86111H1.6213C1.4076 3.86111 1.23533 3.69718 1.23533 3.49468V2.47682C1.23533 2.27431 1.40869 2.11038 1.6213 2.11038H3.09213V2.4286C3.09213 2.72753 3.34727 2.96968 3.66237 2.96968C3.97747 2.96968 4.2326 2.72753 4.2326 2.4286V2.11038H8.00618V2.4286C8.00618 2.72753 8.26131 2.96968 8.57641 2.96968C8.89151 2.96968 9.14665 2.72753 9.14665 2.4286V2.11038H10.5695C10.7832 2.11038 10.9555 2.27431 10.9555 2.47682V3.49468H10.9533Z" fill="#2595E8"/>
<path d="M12.1875 2.4136C12.1875 1.60467 11.4963 0.94895 10.6447 0.94895H9.14447V0.71002C9.14447 0.41109 8.88933 0.168945 8.57423 0.168945C8.25913 0.168945 8.004 0.41109 8.004 0.71002V0.94895H4.23151V0.71002C4.23151 0.41109 3.97638 0.168945 3.66128 0.168945C3.34617 0.168945 3.09104 0.41109 3.09104 0.71002V0.94895H1.54279C0.690169 0.94895 0 1.60467 0 2.4136V10.4965C0 11.3054 0.691259 11.9612 1.54279 11.9612H6.91695C9.26876 11.0536 11.167 9.26114 12.1875 7.00041V2.4136ZM9.28512 6.70362L5.66091 10.1108C5.53707 10.2273 5.37166 10.2915 5.20021 10.2895C5.02876 10.2875 4.86494 10.2195 4.74396 10.1001L2.77049 8.14685C2.51536 7.89506 2.51754 7.48792 2.77376 7.2372C3.02998 6.98648 3.4443 6.98863 3.69944 7.24041L5.22152 8.74471L8.38234 5.77362C8.44437 5.71522 8.5175 5.66942 8.59757 5.63884C8.67763 5.60825 8.76305 5.59348 8.84893 5.59537C8.93481 5.59726 9.01946 5.61578 9.09805 5.64986C9.17664 5.68394 9.24762 5.73291 9.30692 5.79398C9.55552 6.05112 9.5457 6.45827 9.28512 6.70362ZM10.9533 3.49468C10.9533 3.69718 10.7799 3.86111 10.5673 3.86111H1.6213C1.4076 3.86111 1.23533 3.69718 1.23533 3.49468V2.47682C1.23533 2.27431 1.40869 2.11038 1.6213 2.11038H3.09213V2.4286C3.09213 2.72753 3.34727 2.96968 3.66237 2.96968C3.97747 2.96968 4.2326 2.72753 4.2326 2.4286V2.11038H8.00618V2.4286C8.00618 2.72753 8.26131 2.96968 8.57641 2.96968C8.89151 2.96968 9.14665 2.72753 9.14665 2.4286V2.11038H10.5695C10.7832 2.11038 10.9555 2.27431 10.9555 2.47682V3.49468H10.9533Z" fill="#3A9CED"/>
<path d="M0.783936 9.26046C1.72924 9.26046 2.64292 9.12546 3.50536 8.87475L2.7694 8.14724C2.51427 7.89545 2.51645 7.48831 2.77267 7.23759C3.02889 6.98688 3.44321 6.98902 3.69835 7.24081L4.84645 8.37546C6.86898 7.44545 8.50772 5.84366 9.46393 3.8615H1.6213C1.4076 3.8615 1.23533 3.69757 1.23533 3.49507V2.47721C1.23533 2.27471 1.40869 2.11078 1.6213 2.11078H3.09213V2.42899C3.09213 2.72792 3.34727 2.97007 3.66237 2.97007C3.97747 2.97007 4.2326 2.72792 4.2326 2.42899V2.11078H8.00618V2.42899C8.00618 2.72792 8.26131 2.97007 8.57641 2.97007C8.89151 2.97007 9.14665 2.72792 9.14665 2.42899V2.11078H10.1029C10.1988 1.73256 10.2708 1.3447 10.3187 0.950415H9.14774V0.711485C9.14774 0.412554 8.8926 0.17041 8.5775 0.17041C8.2624 0.17041 8.00727 0.412554 8.00727 0.711485V0.950415H4.23151V0.711485C4.23151 0.412554 3.97638 0.17041 3.66128 0.17041C3.34617 0.17041 3.09104 0.412554 3.09104 0.711485V0.950415H1.54279C0.690169 0.950415 0 1.60613 0 2.41507V9.23046C0.258405 9.24975 0.52008 9.26046 0.783936 9.26046Z" fill="#59ADF8"/>
<path d="M4.3569 3.8615H1.6213C1.4076 3.8615 1.23533 3.69757 1.23533 3.49507V2.47721C1.23533 2.27471 1.40869 2.11078 1.6213 2.11078H3.09213V2.42899C3.09213 2.72792 3.34727 2.97007 3.66237 2.97007C3.97747 2.97007 4.2326 2.72792 4.2326 2.42899V2.11078H6.08068C6.35871 1.74328 6.60949 1.35542 6.83082 0.950415H4.23151V0.711485C4.23151 0.412554 3.97638 0.17041 3.66128 0.17041C3.34617 0.17041 3.09104 0.412554 3.09104 0.711485V0.950415H1.54279C0.690169 0.950415 0 1.60613 0 2.41507V5.78687C1.59455 5.51726 3.09354 4.85484 4.3569 3.8615Z" fill="#6BC2FC"/>
</svg>
