<svg width="28" height="29" viewBox="0 0 28 29" fill="none" xmlns="http://www.w3.org/2000/svg">
<path d="M0 14.8357C0 18.508 1.475 22.0299 4.10051 24.6266C6.72601 27.2233 10.287 28.6822 14 28.6822C17.713 28.6822 21.274 27.2233 23.8995 24.6266C26.525 22.0299 28 18.508 28 14.8357C28 11.1634 26.525 7.6415 23.8995 5.04479C21.274 2.44808 17.713 0.989258 14 0.989258C10.287 0.989258 6.72601 2.44808 4.10051 5.04479C1.475 7.6415 0 11.1634 0 14.8357Z" fill="black"/>
<path d="M9.808 21.7863C9.8547 21.7677 9.90466 21.7584 9.955 21.7591C10.0049 21.7593 10.0543 21.7693 10.1003 21.7884C10.1463 21.8076 10.188 21.8355 10.2231 21.8705C10.2582 21.9056 10.286 21.9472 10.3048 21.9929C10.3237 22.0386 10.3333 22.0875 10.333 22.1369C10.3327 22.1862 10.3226 22.235 10.3033 22.2805C10.284 22.326 10.2558 22.3673 10.2203 22.402C10.1848 22.4368 10.1428 22.4642 10.0966 22.4829C10.0504 22.5015 10.0009 22.511 9.951 22.5107C9.88828 22.5106 9.82654 22.4953 9.77128 22.4659C9.71602 22.4366 9.66894 22.3942 9.63421 22.3425C9.59949 22.2909 9.5782 22.2315 9.57223 22.1698C9.56626 22.108 9.5758 22.0458 9.6 21.9885C9.61954 21.9428 9.64802 21.9014 9.6838 21.8666C9.71958 21.8318 9.76196 21.8043 9.8085 21.7858L9.808 21.7863ZM13.432 22.4232H14.204V24.6599C14.203 24.7553 14.2025 24.8508 14.2065 24.9457C14.2995 24.9561 14.9475 24.9522 14.9855 24.9413L14.987 24.9363C14.9883 24.9328 14.9889 24.9292 14.989 24.9255V22.4845L14.9895 22.4687C14.9894 22.4669 14.9894 22.4651 14.9895 22.4633L14.9915 22.4524C14.9924 22.4509 14.9936 22.4495 14.995 22.4484L14.9975 22.4455L15.0025 22.44H15.6275L15.709 22.1863V22.1858C15.755 22.0449 15.8005 21.9045 15.844 21.7615H13.425C13.414 21.8688 13.4185 22.3797 13.432 22.4232ZM20.5815 23.6461C20.8827 24.0774 21.184 24.5087 21.4855 24.9398L21.5 24.9596V24.9705L21.3085 24.97C21.121 24.9695 20.9335 24.969 20.746 24.9709C20.6975 24.9714 20.671 24.9546 20.645 24.9165C20.412 24.5866 20.1787 24.257 19.945 23.9275L19.934 23.9127L19.9025 23.9409L19.8535 23.9854C19.8405 23.9963 19.8285 24.0076 19.816 24.0195C19.7885 24.0442 19.761 24.0699 19.732 24.0937C19.7201 24.1031 19.7107 24.1152 19.7046 24.129C19.6986 24.1428 19.6959 24.1578 19.697 24.1728C19.698 24.3533 19.698 24.5338 19.698 24.7143V24.9467H18.94C18.9285 24.9081 18.926 21.8253 18.938 21.762H19.697C19.698 21.8837 19.698 22.0048 19.698 22.126V23.2342C19.722 23.2253 19.737 23.2095 19.751 23.1946L19.7625 23.1828C19.9825 22.9682 20.2025 22.7521 20.4205 22.535C20.4338 22.5208 20.4501 22.5096 20.4683 22.5024C20.4864 22.4951 20.506 22.4919 20.5255 22.4929C20.724 22.4939 20.9225 22.4939 21.1205 22.4939H21.392C21.336 22.5513 21.282 22.6027 21.229 22.6536L21.149 22.7303C21.084 22.7946 21.0185 22.8574 20.953 22.9207L20.9075 22.9647L20.8265 23.0418C20.7732 23.0921 20.7205 23.1431 20.6685 23.1946C20.6145 23.2485 20.562 23.3034 20.5085 23.3603C20.484 23.385 20.46 23.4107 20.4355 23.4365L20.4625 23.476L20.5815 23.6461ZM13.0985 22.4954L13.124 22.4969L12.161 23.4266L13.2295 24.9576L13.2225 24.9695H12.995C12.82 24.9695 12.6445 24.9695 12.469 24.9705C12.4522 24.9717 12.4354 24.9683 12.4205 24.9607C12.4055 24.953 12.3931 24.9413 12.3845 24.9269L11.713 23.975L11.685 23.9364L11.669 23.9152L11.6585 23.9226C11.6501 23.9284 11.6421 23.9346 11.6345 23.9414L11.5765 23.9938C11.5398 24.0278 11.5025 24.0611 11.4645 24.0937C11.4527 24.1031 11.4434 24.1153 11.4373 24.129C11.4312 24.1428 11.4285 24.1578 11.4295 24.1728C11.431 24.3508 11.431 24.5288 11.4305 24.7069V24.9467H10.6725C10.6605 24.9091 10.6575 21.8273 10.6695 21.762H11.4285C11.4315 21.8283 11.431 21.8941 11.4305 21.9598V23.2426L11.452 23.2233L11.4805 23.1971C11.7075 22.9761 11.933 22.7535 12.158 22.5305C12.1696 22.5182 12.1837 22.5085 12.1994 22.5021C12.2151 22.4957 12.232 22.4927 12.249 22.4934C12.461 22.4944 12.6735 22.4944 12.886 22.4944H13.063L13.098 22.4959L13.0985 22.4954ZM7.781 22.4222H7V21.7625H9.422L9.2035 22.4415H8.5675C8.5645 22.4949 8.565 22.5468 8.565 22.5983V24.9403C8.524 24.9526 7.8785 24.9566 7.7825 24.9452C7.78053 24.8836 7.78003 24.8219 7.781 24.7603V24.6683V22.4222ZM9.5775 24.9467H10.3315V22.7832H9.574C9.563 22.8702 9.567 24.9081 9.5775 24.9467Z" fill="white"/>
<path d="M15.6789 23.5438C15.6789 22.8603 16.2214 22.3001 16.9119 22.2466C16.8758 22.2436 16.8396 22.2419 16.8034 22.2417C16.0624 22.2417 15.4619 22.8252 15.4619 23.5438C15.4619 24.2623 16.0624 24.8453 16.8034 24.8453C16.8399 24.8453 16.8759 24.8438 16.9119 24.8409C16.2219 24.7875 15.6789 24.2272 15.6789 23.5438Z" fill="#00F7EC"/>
<path d="M17.0217 22.2422C16.2812 22.2422 15.6807 22.8252 15.6807 23.5438C15.6807 24.2623 16.2807 24.8453 17.0217 24.8453C17.7627 24.8453 18.3632 24.2628 18.3632 23.5438C18.3632 22.8247 17.7627 22.2422 17.0217 22.2422ZM17.0157 24.2034C16.8428 24.205 16.6764 24.1387 16.553 24.0189C16.4297 23.8992 16.3594 23.736 16.3577 23.565C16.3577 23.2124 16.6527 22.9266 17.0157 22.9266C17.3792 22.9266 17.6737 23.2124 17.6737 23.5645C17.6737 23.9176 17.3787 24.2034 17.0157 24.2034Z" fill="white"/>
<path d="M18.3639 23.5438C18.3639 22.8603 17.8209 22.3001 17.1309 22.2466C17.1664 22.2437 17.2029 22.2417 17.2389 22.2417C17.9799 22.2417 18.5804 22.8252 18.5804 23.5438C18.5804 24.2623 17.9799 24.8453 17.2389 24.8453C17.2029 24.8453 17.1664 24.8438 17.1309 24.8409C17.8209 24.7875 18.3639 24.2272 18.3639 23.5438Z" fill="#FF004A"/>
<path d="M12.6425 12.8378C12.6435 12.8131 12.6465 12.779 12.6465 12.7443C12.6525 12.3156 12.6595 11.8873 12.663 11.4586C12.666 11.0897 12.6655 10.7208 12.6665 10.3524C12.6665 10.3019 12.6735 10.251 12.5995 10.246C12.3235 10.2282 12.047 10.1867 11.772 10.1966C11.2753 10.214 10.7855 10.3161 10.324 10.4982C9.93819 10.6472 9.57522 10.8484 9.24547 11.0961C8.7953 11.433 8.41431 11.8517 8.12297 12.3299C7.89041 12.7188 7.71499 13.1384 7.60197 13.5761C7.48897 14.0004 7.49697 14.4306 7.50297 14.8628C7.50947 15.343 7.62697 15.8 7.80597 16.2416C8.02126 16.7689 8.33794 17.2498 8.73847 17.6579C9.16859 18.102 9.68927 18.4506 10.266 18.6805C10.6828 18.8512 11.1249 18.9537 11.575 18.9841C12.085 19.0168 12.5915 18.9802 13.085 18.8506C13.5094 18.7385 13.9143 18.5636 14.286 18.3319C14.6294 18.1229 14.9412 17.8669 15.212 17.5713C15.5353 17.2176 15.7998 16.8153 15.9955 16.3795C16.2355 15.8395 16.3795 15.2768 16.384 14.6893C16.396 13.0697 16.3915 11.4502 16.394 9.83015V9.67389C17.4415 10.4023 18.582 10.747 19.826 10.7905V8.43463L19.754 8.42573C19.142 8.34661 18.5535 8.19182 18.0105 7.89165C17.5146 7.62266 17.1016 7.22586 16.8155 6.74338C16.5087 6.22366 16.3332 5.63841 16.304 5.0373C16.299 4.96164 16.271 4.94483 16.201 4.94532C15.508 4.95027 14.816 4.95175 14.123 4.95521C13.973 4.9562 13.972 4.95769 13.972 5.10654C13.9695 6.48376 13.969 7.86099 13.964 9.23822C13.957 11.1322 13.9485 13.0252 13.938 14.9187C13.937 15.1709 13.8915 15.4083 13.7675 15.6353C13.4795 16.1639 13.0535 16.5269 12.4665 16.6663C11.849 16.8122 11.2605 16.7306 10.7475 16.3261C10.3615 16.021 10.0795 15.6407 9.99747 15.1551C9.91997 14.6972 9.93447 14.2388 10.177 13.815C10.344 13.5171 10.5797 13.2625 10.865 13.0717C11.2455 12.8185 11.669 12.7305 12.1205 12.7681C12.293 12.7829 12.4625 12.8131 12.6425 12.8373V12.8378Z" fill="#00F7EC"/>
<path d="M12.6426 12.838C12.4631 12.8133 12.2941 12.7831 12.1221 12.7688C11.6706 12.7312 11.2471 12.8197 10.8671 13.0724C10.5771 13.2653 10.3506 13.515 10.1781 13.8162C9.93609 14.2395 9.92159 14.6979 9.99909 15.1563C10.0811 15.6419 10.3631 16.0222 10.7491 16.3268C11.2621 16.7313 11.8511 16.8129 12.4676 16.6671C13.0551 16.5281 13.4811 16.1646 13.7691 15.636C13.8926 15.4085 13.9386 15.1716 13.9396 14.9199L13.9656 9.23893C13.9706 7.8622 13.9706 6.48448 13.9731 5.10725C13.9731 4.9589 13.9741 4.95692 14.1246 4.95642C14.8171 4.95296 15.5096 4.95148 16.2021 4.94653C16.2721 4.94653 16.3011 4.96236 16.3051 5.03851C16.3347 5.63962 16.5104 6.22483 16.8171 6.74459C17.1071 7.23367 17.5106 7.61494 18.0121 7.89237C18.5546 8.19254 19.1431 8.34732 19.7556 8.42644L19.8276 8.43535V10.7917C18.5831 10.7477 17.4426 10.4035 16.3956 9.6751V9.83137C16.3931 11.4509 16.3976 13.0704 16.3856 14.6905C16.3811 15.278 16.2371 15.8407 15.9971 16.3807C15.8017 16.8168 15.537 17.2192 15.2131 17.5725C14.9422 17.8675 14.6308 18.1236 14.2881 18.3331C13.9163 18.5647 13.5112 18.7394 13.0866 18.8513C12.5931 18.9814 12.0866 19.018 11.5766 18.9854C11.1263 18.955 10.6841 18.8524 10.2671 18.6817C9.69053 18.4516 9.17002 18.1028 8.74009 17.6586C8.3396 17.2507 8.02292 16.7699 7.80759 16.2428C7.62859 15.8007 7.51059 15.3442 7.50409 14.8636C7.49859 14.4314 7.49109 14.0006 7.60359 13.5768C7.71659 13.1391 7.89201 12.7195 8.12459 12.3306C8.41553 11.8525 8.7964 11.4338 9.24659 11.0973C9.57593 10.8491 9.93857 10.6474 10.3241 10.498C10.7856 10.3159 11.2755 10.214 11.7721 10.1968C12.0471 10.1874 12.3236 10.2295 12.5991 10.2468C12.6741 10.2517 12.6671 10.3031 12.6666 10.3531C12.6651 10.722 12.6666 11.0909 12.6631 11.4598C12.6591 11.8881 12.6526 12.3168 12.6466 12.7455C12.6476 12.7802 12.6441 12.8133 12.6426 12.8375V12.838Z" fill="#00F7EC"/>
<path d="M13.3155 13.7113C13.317 13.6871 13.3195 13.653 13.32 13.6184C13.326 13.1901 13.3335 12.7614 13.3365 12.3326C13.3395 11.9637 13.339 11.5948 13.34 11.2264C13.34 11.1764 13.347 11.125 13.273 11.1201C12.997 11.1023 12.7205 11.0607 12.4455 11.0701C11.9488 11.0876 11.4587 11.1896 10.997 11.3718C10.6112 11.521 10.2483 11.7226 9.91853 11.9706C9.4685 12.3075 9.08768 12.7263 8.79653 13.2045C8.56397 13.5933 8.38855 14.0129 8.27553 14.4506C8.16253 14.8749 8.17053 15.3052 8.17603 15.7374C8.18303 16.2175 8.30053 16.6745 8.47953 17.1161C8.69484 17.6434 9.01152 18.1243 9.41203 18.5324C9.84199 18.9764 10.3625 19.325 10.939 19.555C11.356 19.7258 11.7983 19.8286 12.2485 19.8592C12.7585 19.8913 13.265 19.8542 13.7585 19.7246C14.183 19.6127 14.5879 19.438 14.9595 19.2064C15.3028 18.9973 15.6144 18.7413 15.885 18.4458C16.209 18.0924 16.4739 17.6901 16.6695 17.254C16.9095 16.714 17.053 16.1513 17.0575 15.5638C17.0695 13.9442 17.065 12.3247 17.0675 10.7047V10.5484C18.115 11.2768 19.2555 11.6215 20.4995 11.665V9.30865L20.4275 9.29975C19.8155 9.22063 19.227 9.06585 18.684 8.76567C18.1881 8.49671 17.7752 8.0999 17.489 7.61741C17.1821 7.09772 17.0065 6.51247 16.977 5.91133C16.973 5.83567 16.9445 5.81885 16.8745 5.81935C16.182 5.82429 15.4895 5.82627 14.7965 5.82924C14.6465 5.83023 14.6455 5.8322 14.6455 5.98056C14.6425 7.35779 14.6425 8.73501 14.6375 10.1122C14.6305 12.0062 14.622 13.8992 14.6115 15.7927C14.6105 16.045 14.565 16.2823 14.441 16.5093C14.153 17.0374 13.727 17.4009 13.1395 17.5399C12.5225 17.6858 11.9345 17.6047 11.421 17.1996C11.035 16.8955 10.753 16.5147 10.671 16.0291C10.5935 15.5712 10.608 15.1128 10.8505 14.689C11.0175 14.3911 11.2534 14.1365 11.539 13.9462C11.919 13.693 12.3425 13.605 12.794 13.6421C12.9665 13.6569 13.136 13.6866 13.3155 13.7113Z" fill="#FF004A"/>
<path d="M13.3155 13.7111C13.136 13.6863 12.967 13.6567 12.795 13.6418C12.3435 13.6047 11.92 13.6928 11.54 13.946C11.25 14.1388 11.0235 14.3886 10.8515 14.6887C10.609 15.1125 10.5945 15.5709 10.6715 16.0289C10.754 16.5145 11.036 16.8953 11.4215 17.1999C11.935 17.6044 12.524 17.686 13.1405 17.5401C13.728 17.4007 14.154 17.0377 14.442 16.509C14.5655 16.2816 14.6115 16.0447 14.6125 15.7925L14.6385 10.112C14.6435 8.73475 14.6435 7.35753 14.646 5.98079C14.646 5.83194 14.647 5.82997 14.7975 5.82947C15.49 5.82601 16.1825 5.82403 16.8755 5.81958C16.9455 5.81958 16.974 5.8354 16.978 5.91156C17.0077 6.51267 17.1833 7.09787 17.49 7.61764C17.7762 8.09997 18.1892 8.4966 18.685 8.76541C19.2275 9.06558 19.816 9.22037 20.4285 9.29949L20.5005 9.30839V11.6653C19.256 11.6208 18.1155 11.2771 17.0685 10.5486V10.7049C17.066 12.3249 17.0705 13.944 17.0585 15.564C17.054 16.1515 16.91 16.7143 16.6705 17.2543C16.475 17.6904 16.2101 18.0927 15.886 18.4461C15.6152 18.7411 15.3038 18.9971 14.961 19.2066C14.5892 19.4383 14.1841 19.613 13.7595 19.7249C13.266 19.8549 12.7595 19.8915 12.2495 19.8589C11.7993 19.8285 11.357 19.7259 10.94 19.5553C10.3634 19.3251 9.84294 18.9763 9.41301 18.5321C9.01253 18.1241 8.69585 17.6431 8.48051 17.1158C8.30151 16.6747 8.18351 16.2178 8.17701 15.7371C8.17151 15.3049 8.16351 14.8742 8.27601 14.4504C8.38902 14.0126 8.56445 13.593 8.79701 13.2042C9.08806 12.7259 9.4691 12.3073 9.91951 11.9709C10.2489 11.7227 10.6115 11.521 10.997 11.3715C11.4587 11.1894 11.9487 11.0874 12.4455 11.0699C12.7205 11.0605 12.997 11.1025 13.273 11.1203C13.3475 11.1252 13.341 11.1762 13.34 11.2266C13.3385 11.595 13.34 11.9639 13.3365 12.3329C13.333 12.7616 13.326 13.1903 13.32 13.6186C13.32 13.6527 13.317 13.6868 13.3155 13.7111Z" fill="#FF004A"/>
<path d="M19.82 9.17727C19.4208 9.08872 19.0363 8.9447 18.678 8.74951C18.1273 8.451 17.6801 7.99562 17.3945 7.44251C17.1642 7.2349 16.9672 6.99397 16.81 6.72793C16.6388 6.43959 16.5082 6.12946 16.422 5.80615C15.8785 5.80912 15.3345 5.8111 14.7905 5.81357C14.6405 5.81456 14.64 5.81604 14.6395 5.96489C14.637 7.34162 14.637 8.71935 14.632 10.0961C14.625 11.9901 14.6165 13.8836 14.606 15.7771C14.6045 16.0293 14.559 16.2662 14.435 16.4931C14.147 17.0218 13.7215 17.3853 13.134 17.5242C12.517 17.6701 11.9285 17.5885 11.415 17.184C11.1125 16.9451 10.8735 16.6598 10.745 16.3131L10.741 16.3102C10.355 16.006 10.073 15.6253 9.99098 15.1397C9.91398 14.6817 9.92798 14.2233 10.171 13.7995C10.3378 13.5017 10.5736 13.2471 10.859 13.0567C11.2395 12.8036 11.6625 12.7155 12.114 12.7531C12.2855 12.767 12.4555 12.7976 12.6345 12.8219C12.636 12.7976 12.639 12.7635 12.6395 12.7289C12.645 12.3001 12.6525 11.8719 12.6555 11.4431C12.657 11.3146 12.6575 11.1855 12.6575 11.0564C12.5842 11.0529 12.5108 11.0522 12.4375 11.0545C11.9411 11.0718 11.4514 11.1737 10.99 11.3556C10.6042 11.5047 10.2412 11.7061 9.91148 11.954C9.46131 12.2908 9.08032 12.7096 8.78898 13.1878C8.55641 13.5766 8.38099 13.9962 8.26798 14.434C8.15498 14.8583 8.16298 15.2885 8.16898 15.7207C8.17548 16.2014 8.29298 16.6578 8.47198 17.0994C8.55048 17.2923 8.64298 17.4802 8.74898 17.6597C9.17565 18.0957 9.69006 18.4384 10.259 18.6656C10.6759 18.8365 11.1182 18.9392 11.5685 18.9697C12.0785 19.0018 12.585 18.9652 13.0785 18.8357C13.5029 18.7236 13.9078 18.5487 14.2795 18.3169C14.6227 18.1079 14.9343 17.8518 15.205 17.5564C15.5288 17.2029 15.7934 16.8006 15.989 16.3646C16.229 15.8251 16.373 15.2618 16.377 14.6743C16.389 13.0548 16.385 11.4352 16.387 9.81569V9.65893C17.4355 10.3878 18.5755 10.732 19.82 10.7755V9.17727Z" fill="white"/>
</svg>
