<svg width="16" height="16" viewBox="0 0 16 16" fill="none" xmlns="http://www.w3.org/2000/svg">
<path d="M7.7994 8.55388C10.1615 8.55388 12.0763 6.63903 12.0763 4.27694C12.0763 1.91485 10.1615 0 7.7994 0C5.43731 0 3.52246 1.91485 3.52246 4.27694C3.52246 6.63903 5.43731 8.55388 7.7994 8.55388Z" fill="#808994"/>
<path d="M13.9955 16.0001H1.58476C1.16611 16.0001 0.764475 15.8345 0.467548 15.5393C0.170621 15.2442 0.00252202 14.8435 0 14.4249V14.0908C0.00426091 12.8001 0.509176 11.5613 1.40841 10.6353C2.30765 9.70939 3.53107 9.16849 4.82112 9.12646H5.16479C5.29092 9.14082 5.41553 9.1664 5.53713 9.20286C6.27411 9.50533 7.05339 9.69206 7.84742 9.75652C8.50394 9.69252 9.14736 9.53166 9.75677 9.27919L10.0145 9.20286L10.5492 9.12646H10.7019C12.0061 9.14649 13.2503 9.67805 14.1663 10.6066C15.0824 11.5352 15.597 12.7864 15.5994 14.0908V14.4249C15.5982 14.6338 15.5556 14.8404 15.4742 15.0329C15.3928 15.2253 15.2742 15.3997 15.1251 15.5461C14.9761 15.6925 14.7995 15.808 14.6057 15.8859C14.4118 15.9638 14.2044 16.0026 13.9955 16.0001Z" fill="#808994"/>
</svg>
