<svg width="28" height="29" viewBox="0 0 28 29" fill="none" xmlns="http://www.w3.org/2000/svg">
<rect x="2.3335" y="5.14307" width="21.7778" height="17.6927" fill="white"/>
<path d="M17.3087 14.5111L12.4929 11.3356C12.2303 11.1624 11.8789 11.3486 11.8789 11.6604V18.0107C11.8789 18.3229 12.2303 18.509 12.4929 18.3359L17.3087 15.1603C17.543 15.0062 17.543 14.6656 17.3087 14.5111Z" fill="#FF0000"/>
<path d="M24.2667 0.989014H3.73333C1.67144 0.989014 0 2.64213 0 4.6814V24.9895C0 27.0288 1.67144 28.6819 3.73333 28.6819H24.2667C26.3286 28.6819 28 27.0288 28 24.9895V4.6814C28 2.64213 26.3286 0.989014 24.2667 0.989014ZM22.9143 19.2665C22.7282 20.2062 21.9369 20.9225 20.9596 21.057C19.4234 21.2799 16.8628 21.5487 13.977 21.5487C11.1375 21.5487 8.57702 21.2799 6.99424 21.057C6.01642 20.9225 5.22496 20.2064 5.03922 19.2665C4.85302 18.2369 4.66667 16.7154 4.66667 14.8355C4.66667 12.9557 4.85287 11.434 5.03891 10.4046C5.22527 9.46489 6.01642 8.74857 6.99409 8.6141C8.53036 8.39071 11.0906 8.12209 13.9767 8.12209C16.8627 8.12209 19.3762 8.39071 20.9592 8.6141C21.9368 8.74857 22.7284 9.46489 22.914 10.4046C23.1005 11.434 23.3333 12.9557 23.3333 14.8355C23.2871 16.7154 23.1006 18.2369 22.9143 19.2665Z" fill="#FF0000"/>
</svg>
