<svg width="19" height="18" viewBox="0 0 19 18" fill="none" xmlns="http://www.w3.org/2000/svg">
<path d="M16.2642 0.0769678C16.0923 0.136772 15.9338 0.229874 15.7978 0.35096C15.6619 0.472047 15.5511 0.618741 15.4719 0.782656C15.3927 0.94657 15.3465 1.12449 15.3361 1.30625C15.3256 1.48802 15.3511 1.67006 15.4111 1.84196C15.4735 2.02145 15.5723 2.18611 15.7013 2.32566C15.8303 2.46521 15.9867 2.57664 16.1607 2.65298L15.0867 5.82373C15.3112 6.643 15.7282 6.16647 15.7282 6.16647L16.8361 2.76569C16.952 2.75695 17.0663 2.73323 17.1761 2.69513C17.5232 2.57432 17.8081 2.32065 17.9682 1.98987C18.1284 1.65909 18.1507 1.27825 18.0302 0.931057C17.9092 0.583684 17.6552 0.298575 17.324 0.138416C16.9929 -0.0217439 16.6117 -0.043845 16.2642 0.0769678Z" fill="url(#paint0_linear_1_1844)"/>
<path d="M15.2681 13.3914L16.7673 12.8645C16.7673 12.8645 17.8258 11.1508 16.3403 6.92067C14.8548 2.69056 13.0412 1.98401 13.0412 1.98401L11.542 2.51002C11.542 2.51002 13.2548 2.7547 14.896 7.42744C16.5373 12.1002 15.2681 13.3914 15.2681 13.3914Z" fill="#BF7621"/>
<path d="M15.8355 14.1813L4.86155 18C4.86155 18 3.00858 17.4025 1.15378 12.0709C-0.701024 6.73924 0.237373 5.13553 0.237373 5.13553L11.3414 1.27197C11.3414 1.27197 13.2072 2.04084 14.9154 6.95367C16.6236 11.8665 15.8355 14.1813 15.8355 14.1813Z" fill="url(#paint1_linear_1_1844)"/>
<path d="M11.3864 12.4282L14.2932 11.4201C14.2932 11.4201 14.6534 10.6082 13.6765 7.80493C12.6996 5.00165 11.8721 4.61035 11.8721 4.61035L9.03125 5.5964C9.03125 5.5964 9.71671 6.56871 10.5268 8.89546C11.3369 11.2222 11.3864 12.4282 11.3864 12.4282Z" fill="#D26C0E"/>
<path d="M6.96178 13.9596L4.05954 14.9842C4.05954 14.9842 3.27143 14.5727 2.28904 11.7722C1.30666 8.97165 1.70988 8.14964 1.70988 8.14964L4.54339 7.15259C4.54339 7.15259 4.61304 8.34391 5.42956 10.6652C6.24608 12.9864 6.96178 13.9596 6.96178 13.9596Z" fill="#D26C0E"/>
<path d="M10.6962 12.6675L7.78115 13.6811C7.78115 13.6811 7.2029 12.7958 6.34698 10.3481C5.49106 7.9004 5.40308 6.8557 5.40308 6.8557L8.31816 5.84766C8.31816 5.84766 9.16034 7.66305 9.69277 9.19895C10.2252 10.7348 10.6962 12.6675 10.6962 12.6675Z" fill="#D26C0E"/>
<path d="M2.36157 10.0356L2.4138 10.251C2.46329 10.4526 2.51369 10.6615 2.55035 10.8576L2.58976 11.0666L2.99663 10.9254V10.7953C2.98978 10.6984 2.99813 10.601 3.02138 10.5066C3.08794 10.4587 3.16284 10.4236 3.24223 10.4031L4.08258 10.1108C3.99856 11.1439 3.83991 12.1696 3.60788 13.1798L3.57856 13.3053L3.82782 13.4666L4.30985 13.2229L4.31809 13.1202C4.33459 12.9324 4.34925 12.7436 4.36483 12.5548C4.44456 11.5788 4.52611 10.568 4.65716 9.58841L4.66999 9.48943L4.45647 9.30615L2.36157 10.0356Z" fill="white"/>
<path d="M6.48999 8.60226L6.54223 8.81761C6.5908 9.01922 6.64212 9.22816 6.67877 9.42427L6.71819 9.63321L7.12415 9.49209V9.36196C7.11683 9.26503 7.12519 9.16756 7.14889 9.07329C7.21511 9.02537 7.28971 8.99025 7.36883 8.96974L8.21008 8.6774C8.12516 9.71042 7.96653 10.736 7.73539 11.7464L7.70606 11.872L7.95441 12.0333L8.43735 11.7895L8.4456 11.6878L8.49234 11.1214C8.57115 10.1455 8.65362 9.1356 8.78467 8.15505L8.7975 8.05608L8.58398 7.8728L6.48999 8.60226Z" fill="white"/>
<path d="M12.5436 6.49634L10.4487 7.22946L10.501 7.44481C10.5495 7.64642 10.6008 7.85445 10.6375 8.05147L10.6769 8.26041L11.0829 8.11837V7.98916C11.0756 7.89223 11.0839 7.79476 11.1076 7.70049C11.1738 7.65258 11.2484 7.61746 11.3276 7.59694L12.1688 7.30369C12.084 8.33701 11.9253 9.36295 11.6941 10.3736L11.6648 10.4992L11.9131 10.6605L12.3961 10.4167L12.4043 10.3141L12.4511 9.74865C12.5299 8.77177 12.6124 7.76189 12.7434 6.78226L12.7562 6.68328L12.5436 6.49634Z" fill="white"/>
<defs>
<linearGradient id="paint0_linear_1_1844" x1="16.5967" y1="1.36896e-09" x2="16.5009" y2="7" gradientUnits="userSpaceOnUse">
<stop stop-color="#FFE292"/>
<stop offset="0.568286" stop-color="#E9C667"/>
</linearGradient>
<linearGradient id="paint1_linear_1_1844" x1="6.00092" y1="2.5" x2="11.5009" y2="16" gradientUnits="userSpaceOnUse">
<stop offset="0.0260417" stop-color="#FFE24B"/>
<stop offset="0.26488" stop-color="#C9AF28"/>
<stop offset="0.776042" stop-color="#C9AF28"/>
<stop offset="1" stop-color="#FFE354"/>
</linearGradient>
</defs>
</svg>
