<svg width="321" height="48" viewBox="0 0 321 48" fill="none" xmlns="http://www.w3.org/2000/svg">
<path d="M6 0.5H315C318.038 0.5 320.5 2.96243 320.5 6V42C320.5 45.0376 318.038 47.5 315 47.5H6C2.96244 47.5 0.5 45.0376 0.5 42V6C0.5 2.96243 2.96243 0.5 6 0.5Z" fill="#1E2024" stroke="#4B555C"/>
<g opacity="0.8">
<path fill-rule="evenodd" clip-rule="evenodd" d="M292.579 27.3062L294.104 25.7862C292.998 25.1262 292.1 24.3862 291.522 23.8562C292.808 22.6762 295.689 20.4162 298.969 20.4162C299.128 20.4162 299.278 20.4262 299.437 20.4362L301.262 18.6062C300.524 18.4262 299.756 18.3262 298.969 18.3262C293.636 18.3262 289.439 22.9662 289.269 23.1562C288.91 23.5562 288.91 24.1562 289.269 24.5562C289.359 24.6662 290.615 26.0462 292.579 27.3062Z" fill="#808994"/>
<path fill-rule="evenodd" clip-rule="evenodd" d="M303.837 21.9282C304.944 22.5882 305.841 23.3382 306.409 23.8582C305.133 25.0382 302.242 27.2982 298.973 27.2982C298.813 27.2982 298.654 27.2982 298.504 27.2882L296.68 29.1182C297.407 29.2882 298.175 29.3882 298.973 29.3882C304.306 29.3882 308.493 24.7582 308.672 24.5582C309.031 24.1582 309.031 23.5582 308.672 23.1682C308.573 23.0582 307.327 21.6682 305.363 20.4082L303.837 21.9282Z" fill="#808994"/>
<path fill-rule="evenodd" clip-rule="evenodd" d="M295.535 28.7775L297.22 27.0975L302.882 21.4075L304.428 19.8575L305.504 18.7775C305.913 18.3775 305.913 17.7075 305.504 17.3075C305.096 16.8975 304.438 16.8975 304.029 17.3075L300.719 20.6275L295.057 26.3075L293.502 27.8575L292.435 28.9375C292.026 29.3475 292.026 30.0075 292.435 30.4175C292.634 30.6175 292.904 30.7275 293.173 30.7275C293.432 30.7275 293.701 30.6175 293.91 30.4175L295.535 28.7775Z" fill="#808994"/>
</g>
<g clip-path="url(#clip0_1_10440)">
<path d="M25.1098 22.2H16.0398V19.85C16.0454 19.8237 16.0454 19.7964 16.0398 19.77C16.0384 19.3547 16.1193 18.9432 16.2776 18.5592C16.436 18.1752 16.6687 17.8263 16.9624 17.5326C17.2561 17.2389 17.6049 17.0062 17.9889 16.8479C18.3729 16.6895 18.7844 16.6087 19.1998 16.61C20.0293 16.6099 20.8255 16.936 21.4167 17.5178C22.0079 18.0997 22.3466 18.8906 22.3598 19.72V20.23C22.3598 20.3359 22.3808 20.4408 22.4216 20.5385C22.4624 20.6362 22.5223 20.7248 22.5976 20.7993C22.673 20.8737 22.7623 20.9324 22.8605 20.972C22.9588 21.0116 23.0639 21.0313 23.1698 21.03C23.3819 21.03 23.5854 20.9457 23.7355 20.7957C23.8855 20.6457 23.9698 20.4422 23.9698 20.23V19.75C23.9685 19.1249 23.844 18.5062 23.6036 17.9292C23.3632 17.3522 23.0115 16.8282 22.5685 16.3871C22.1256 15.946 21.6001 15.5965 21.0221 15.3585C20.4441 15.1205 19.8249 14.9987 19.1998 15C18.5738 15 17.954 15.1235 17.3759 15.3633C16.7977 15.6032 16.2725 15.9546 15.8304 16.3977C15.3883 16.8408 15.0378 17.3667 14.7992 17.9454C14.5606 18.524 14.4385 19.1441 14.4398 19.77V22.2H13.3398C12.987 22.2 12.6487 22.3402 12.3993 22.5896C12.1499 22.839 12.0098 23.1773 12.0098 23.53V31.25C12.0399 31.5417 12.1664 31.8151 12.3692 32.027C12.572 32.2389 12.8396 32.3771 13.1298 32.42H25.3398C25.5921 32.361 25.8215 32.229 25.9993 32.0405C26.1771 31.852 26.2955 31.6154 26.3398 31.36V23.42C26.3163 23.1025 26.1789 22.8042 25.9529 22.58C25.7269 22.3558 25.4274 22.2209 25.1098 22.2ZM19.8398 28.5H18.5398C18.3276 28.5 18.1241 28.4157 17.9741 28.2657C17.8241 28.1157 17.7398 27.9122 17.7398 27.7C17.7384 27.5941 17.7582 27.489 17.7978 27.3908C17.8374 27.2926 17.8961 27.2032 17.9705 27.1278C18.0449 27.0525 18.1336 26.9927 18.2313 26.9519C18.329 26.911 18.4339 26.89 18.5398 26.89H19.8398C19.9457 26.89 20.0505 26.911 20.1482 26.9519C20.246 26.9927 20.3346 27.0525 20.409 27.1278C20.4834 27.2032 20.5422 27.2926 20.5818 27.3908C20.6214 27.489 20.6411 27.5941 20.6398 27.7C20.6398 27.9122 20.5555 28.1157 20.4055 28.2657C20.2554 28.4157 20.0519 28.5 19.8398 28.5Z" fill="#808994"/>
</g>
<defs>
<clipPath id="clip0_1_10440">
<rect width="14.39" height="17.4" fill="white" transform="translate(12 15)"/>
</clipPath>
</defs>
</svg>
