<svg width="216" height="30" viewBox="0 0 216 30" fill="none" xmlns="http://www.w3.org/2000/svg">
<path d="M0.333374 26.6729C0.333374 12.1033 12.1444 0.292236 26.7141 0.292236H215.336V2.69288C215.336 17.2625 203.525 29.0736 188.955 29.0736H0.333374V26.6729Z" fill="#85D420"/>
<path d="M18.1811 7.17188C14.0185 7.17188 10.6439 10.6951 10.6439 15.0411C10.6439 19.3871 14.0185 22.9104 18.1811 22.9104C22.3437 22.9104 25.7182 19.3871 25.7182 15.0411C25.7182 10.6951 22.3437 7.17188 18.1811 7.17188ZM17.6427 11.6384C16.9196 11.5751 16.23 11.3909 15.5944 11.0979C16.1092 9.68336 16.8698 8.72289 17.6427 8.41005V11.6384ZM17.6427 12.7627V14.479H14.9658C15.0003 13.6456 15.1092 12.8729 15.2752 12.1748C16.012 12.4989 16.8079 12.7005 17.6427 12.7627ZM17.6427 15.6032V17.3195C16.8079 17.3817 16.012 17.5833 15.2752 17.9074C15.109 17.2094 15.0003 16.4367 14.9658 15.6032H17.6427ZM17.6427 18.4439V21.6722C16.8698 21.3593 16.1092 20.3987 15.5944 18.9843C16.23 18.6912 16.9196 18.5069 17.6427 18.4439ZM18.7194 18.4439C19.4425 18.5071 20.1322 18.6913 20.7678 18.9843C20.2529 20.3989 19.4923 21.3595 18.7194 21.6722V18.4439ZM18.7194 17.3195V15.6032H21.3963C21.3618 16.4367 21.2531 17.2094 21.0869 17.9074C20.3502 17.5832 19.5542 17.3817 18.7194 17.3195ZM18.7194 14.479V12.7627C19.5542 12.7005 20.3502 12.4989 21.0869 12.1748C21.2531 12.8729 21.3618 13.6456 21.3963 14.479H18.7194ZM18.7194 11.6384V8.41005C19.4923 8.72271 20.2529 9.68353 20.7678 11.0979C20.1322 11.3911 19.4425 11.5753 18.7194 11.6384ZM20.8891 8.92542C21.4515 9.19801 21.9735 9.5536 22.4391 9.98126C22.2126 10.1898 21.9682 10.3761 21.7155 10.5504C21.4826 9.94034 21.2047 9.39283 20.8891 8.92542ZM14.6469 10.5506C14.3942 10.3761 14.1497 10.1899 13.9233 9.98144C14.3888 9.55371 14.9108 9.19812 15.4732 8.92559C15.1575 9.39283 14.8795 9.94034 14.6469 10.5506ZM14.2979 11.6545C14.0711 12.521 13.9288 13.4727 13.8898 14.479H11.7481C11.8588 13.0873 12.3726 11.814 13.1717 10.7896C13.519 11.1139 13.8975 11.4011 14.2979 11.6545ZM13.8896 15.6032C13.9286 16.6095 14.071 17.5612 14.2978 18.4277C13.8973 18.6812 13.519 18.9684 13.1714 19.2926C12.3723 18.2682 11.8584 16.9949 11.7477 15.6032H13.8896ZM14.6469 19.5317C14.8795 20.1419 15.1575 20.6896 15.4732 21.1568C14.9108 20.8842 14.3888 20.5286 13.9233 20.101C14.1497 19.8923 14.3942 19.7059 14.6469 19.5317ZM21.7153 19.5317C21.968 19.7061 22.2124 19.8923 22.4389 20.1008C21.9734 20.5285 21.4514 20.8841 20.8889 21.1566C21.2047 20.6894 21.4826 20.1419 21.7153 19.5317ZM22.0642 18.4277C22.291 17.5612 22.4333 16.6095 22.4724 15.6032H24.6141C24.5034 16.9949 23.9896 18.2682 23.1904 19.2926C22.8432 18.9684 22.4646 18.6812 22.0642 18.4277ZM22.4725 14.479C22.4335 13.4727 22.2912 12.521 22.0644 11.6545C22.4648 11.4011 22.8432 11.1139 23.1908 10.7896C23.9899 11.814 24.5037 13.0873 24.6144 14.479H22.4725Z" fill="white"/>
<path d="M31.7323 12.7474C36.5461 5.00211 45.0188 0.292236 54.1381 0.292236L212.698 0.292236L205.684 14.5655C201.248 23.5921 192.065 29.311 182.007 29.311H21.4379L31.7323 12.7474Z" fill="url(#paint0_linear_1_59793)"/>
<path d="M39.6781 13.5708C44.3771 5.35891 53.1139 0.292236 62.5751 0.292236L206.762 0.292236L200.648 13.805C196.377 23.2453 186.975 29.311 176.613 29.311H30.6713L39.6781 13.5708Z" fill="#25282D"/>
<defs>
<linearGradient id="paint0_linear_1_59793" x1="102.715" y1="29.5528" x2="102.715" y2="0.292236" gradientUnits="userSpaceOnUse">
<stop stop-color="#76CD00"/>
<stop offset="1" stop-color="#478A03"/>
</linearGradient>
</defs>
</svg>
