<svg width="28" height="29" viewBox="0 0 28 29" fill="none" xmlns="http://www.w3.org/2000/svg">
<ellipse cx="15.1198" cy="15.1522" rx="11.28" ry="9.73208" fill="white"/>
<path d="M14 0.989014C6.26875 0.989014 0 7.18901 0 14.8355C0 22.4819 6.26875 28.6819 14 28.6819C21.7313 28.6819 28 22.4819 28 14.8355C28 7.18901 21.7313 0.989014 14 0.989014ZM20.7281 11.4264C20.7375 11.5717 20.7375 11.7231 20.7375 11.8715C20.7375 16.4086 17.2437 21.6351 10.8594 21.6351C8.89062 21.6351 7.06562 21.0695 5.52812 20.0959C5.80937 20.1268 6.07813 20.1392 6.36563 20.1392C7.99063 20.1392 9.48438 19.5952 10.675 18.6741C9.15 18.6432 7.86875 17.6542 7.43125 16.2943C7.96562 16.3716 8.44687 16.3716 8.99687 16.2325C7.40937 15.9141 6.21875 14.5326 6.21875 12.8636V12.8203C6.67812 13.0768 7.21875 13.2345 7.78438 13.2561C6.81875 12.6194 6.2375 11.5469 6.2375 10.4003C6.2375 9.76049 6.40625 9.17635 6.70938 8.66947C8.41875 10.7526 10.9875 12.1125 13.8656 12.2578C13.375 9.9243 15.1375 8.03587 17.2563 8.03587C18.2563 8.03587 19.1562 8.45003 19.7906 9.11762C20.575 8.97236 21.325 8.68183 21.9937 8.2924C21.7344 9.08672 21.1906 9.7574 20.4688 10.1808C21.1688 10.1067 21.8438 9.91503 22.4688 9.64614C21.9969 10.3323 21.4062 10.9412 20.7281 11.4264Z" fill="#1296DB"/>
</svg>
