<svg width="12" height="15" viewBox="0 0 12 15" fill="none" xmlns="http://www.w3.org/2000/svg">
<path d="M9.29101 4.18836V7.08794C9.29101 8.92658 7.77192 10.4194 5.90088 10.4194C4.02984 10.4194 2.51074 8.92658 2.51074 7.08794V4.18836C2.51074 2.34972 4.02984 0.856934 5.90088 0.856934C7.77192 0.856934 9.29101 2.34972 9.29101 4.18836ZM7.85228 4.18836C7.85228 3.13002 6.97787 2.27076 5.90088 2.27076C4.82388 2.27076 3.94948 3.13002 3.94948 4.18836V7.08794C3.94948 8.14629 4.82388 9.00555 5.90088 9.00555C6.97787 9.00555 7.85228 8.14629 7.85228 7.08794V4.18836Z" fill="#A7B4C9"/>
<path d="M5.65039 1.10358C5.65039 1.03817 5.67683 0.975431 5.72391 0.929175C5.77098 0.88292 5.83482 0.856934 5.90139 0.856934H5.90151C7.77255 0.856934 9.29165 2.34972 9.29165 4.18836V7.08794C9.29165 7.24218 9.28097 7.39394 9.26026 7.54256C9.25537 7.57693 9.24313 7.60989 9.22435 7.63928C9.20557 7.66867 9.18068 7.69382 9.1513 7.71308C9.12193 7.73234 9.08873 7.74527 9.05391 7.75102C9.01908 7.75677 8.98341 7.75522 8.94924 7.74646C8.68412 7.67921 8.27919 7.57557 8.03215 7.51239C7.97488 7.49771 7.92474 7.46362 7.89055 7.41615C7.85637 7.36867 7.84035 7.31086 7.84531 7.25291C7.85053 7.19856 7.85291 7.14353 7.85291 7.08794V4.18836C7.85291 3.13002 6.97851 2.27076 5.90151 2.27076H5.90139C5.83482 2.27076 5.77098 2.24477 5.72391 2.19851C5.67683 2.15226 5.65039 2.08952 5.65039 2.02411V1.10358Z" fill="#CAD1E6"/>
<path d="M11.4888 7.31729C11.4888 6.47573 10.7935 5.79248 9.93711 5.79248H1.55168C0.695291 5.79248 0 6.47573 0 7.31729V13.0898C0 13.9313 0.695291 14.6146 1.55168 14.6146H9.93711C10.7935 14.6146 11.4888 13.9313 11.4888 13.0898V7.31729Z" fill="#FFBC54"/>
<path d="M10.9095 7.22593C10.9095 6.77545 10.5372 6.40967 10.0788 6.40967H6.93416C6.47574 6.40967 6.10352 6.77545 6.10352 7.22593V13.1817C6.10352 13.6321 6.47574 13.9979 6.93416 13.9979H10.0788C10.5372 13.9979 10.9095 13.6321 10.9095 13.1817V7.22593Z" fill="#FFE185"/>
<path d="M2.69922 10.2344C2.69922 10.987 3.00348 11.7089 3.54506 12.2411C4.08665 12.7733 4.82119 13.0723 5.58711 13.0723C6.35303 13.0723 7.08757 12.7733 7.62916 12.2411C8.17074 11.7089 8.475 10.987 8.475 10.2344C8.475 9.48172 8.17074 8.75989 7.62916 8.22768C7.08757 7.69547 6.35303 7.39648 5.58711 7.39648C4.82119 7.39648 4.08665 7.69547 3.54506 8.22768C3.00348 8.75989 2.69922 9.48172 2.69922 10.2344Z" fill="#FE9B57"/>
<path d="M5.58691 7.01074C7.39737 7.01074 8.86718 8.4551 8.86718 10.2342C8.86718 12.0133 7.39737 13.4577 5.58691 13.4577C3.77645 13.4577 2.30664 12.0133 2.30664 10.2342C2.30664 8.4551 3.77645 7.01074 5.58691 7.01074ZM5.58691 7.39632C3.99304 7.39632 2.69902 8.66794 2.69902 10.2342C2.69902 11.8005 3.99304 13.0721 5.58691 13.0721C7.18078 13.0721 8.4748 11.8005 8.4748 10.2342C8.4748 8.66794 7.18078 7.39632 5.58691 7.39632Z" fill="#FFE185"/>
<path d="M4.33203 10.2348C4.33203 10.5621 4.46432 10.8759 4.69979 11.1073C4.93526 11.3387 5.25463 11.4687 5.58764 11.4687C5.92064 11.4687 6.24001 11.3387 6.47548 11.1073C6.71096 10.8759 6.84324 10.5621 6.84324 10.2348C6.84324 9.9076 6.71096 9.59376 6.47548 9.36237C6.24001 9.13097 5.92064 9.00098 5.58764 9.00098C5.25463 9.00098 4.93526 9.13097 4.69979 9.36237C4.46432 9.59376 4.33203 9.9076 4.33203 10.2348Z" fill="#29395C"/>
</svg>
