<svg width="15" height="13" viewBox="0 0 15 13" fill="none" xmlns="http://www.w3.org/2000/svg">
<path d="M12.2598 8.48456H11.0418V7.28768C11.0418 7.10454 10.9678 6.92891 10.836 6.79941C10.7042 6.66992 10.5255 6.59717 10.3391 6.59717C10.1528 6.59717 9.97405 6.66992 9.84228 6.79941C9.7105 6.92891 9.63647 7.10454 9.63647 7.28768V8.48456H8.4185C8.23213 8.48456 8.05341 8.55731 7.92163 8.6868C7.78985 8.8163 7.71582 8.99193 7.71582 9.17507C7.71582 9.3582 7.78985 9.53383 7.92163 9.66333C8.05341 9.79282 8.23213 9.86557 8.4185 9.86557H9.63647V11.0625C9.63647 11.2456 9.7105 11.4212 9.84228 11.5507C9.97405 11.6802 10.1528 11.753 10.3391 11.753C10.5255 11.753 10.7042 11.6802 10.836 11.5507C10.9678 11.4212 11.0418 11.2456 11.0418 11.0625V9.86557H12.2598C12.4461 9.86557 12.6249 9.79282 12.7567 9.66333C12.8884 9.53383 12.9625 9.3582 12.9625 9.17507C12.9625 8.99193 12.8884 8.8163 12.7567 8.6868C12.6249 8.55731 12.4461 8.48456 12.2598 8.48456Z" fill="#FF7336"/>
<path d="M12.1742 7.28782V7.37221H12.2601C12.4249 7.37221 12.5849 7.39446 12.7372 7.43436L12.8996 7.27477L11.7878 6.18224C12.0298 6.48759 12.1742 6.87121 12.1742 7.28782ZM8.50472 11.0618V10.9774H8.41883C7.40698 10.9774 6.58407 10.1688 6.58407 9.17444C6.58407 8.1801 7.40698 7.37144 8.41883 7.37144H8.50472V7.28705C8.50472 6.29272 9.32763 5.48406 10.3395 5.48406C10.7634 5.48406 11.153 5.62599 11.4638 5.86383L6.96429 1.44228C5.3903 -0.104458 2.83881 -0.104458 1.26482 1.44228L1.18049 1.52514C-0.393498 3.07188 -0.393498 5.57919 1.18049 7.12593L5.93839 11.8014C6.58875 12.4405 7.64355 12.4405 8.29391 11.8014L8.56952 11.5306C8.52736 11.381 8.50472 11.2237 8.50472 11.0618Z" fill="#FF4D00"/>
<path d="M8.5044 11.0616V10.9772H8.41852C7.40666 10.9772 6.58375 10.1686 6.58375 9.17422C6.58375 8.17989 7.40666 7.37123 8.41852 7.37123H8.5044V7.28684C8.5044 6.29251 9.32731 5.48384 10.3392 5.48384C11.351 5.48384 12.1739 6.29251 12.1739 7.28684V7.37123H12.2598C12.4245 7.37123 12.5846 7.39348 12.7368 7.43338L13.0507 7.12495C14.6247 5.57821 14.6247 3.0709 13.0507 1.52416L12.9664 1.4413C11.3924 -0.105434 8.8409 -0.105434 7.26691 1.4413L1.33398 7.27149L5.94041 11.7982C6.59078 12.4373 7.64557 12.4373 8.29594 11.7982L8.56842 11.5304C8.52704 11.3808 8.5044 11.2235 8.5044 11.0616Z" fill="#FF7C44"/>
</svg>
