<svg width="24" height="24" viewBox="0 0 24 24" fill="none" xmlns="http://www.w3.org/2000/svg">
<circle cx="12" cy="12" r="12" fill="#52A1FF"/>
<path d="M9.17865 14.9536C9.98595 15.5995 10.9867 15.951 12.0178 15.951C13.0489 15.951 14.0496 15.5995 14.8569 14.9536L15.2018 14.6508C15.6629 14.1998 16.0245 13.6561 16.2632 13.0552C16.5019 12.4542 16.6123 11.8094 16.5873 11.1627C16.5623 10.516 16.4024 9.88174 16.1179 9.3013C15.8335 8.72086 15.431 8.20718 14.9365 7.79364C14.267 7.2347 13.4531 6.87957 12.5903 6.76993C11.7275 6.66028 10.8515 6.80066 10.0651 7.1746C9.27866 7.54853 8.61448 8.14052 8.15043 8.88111C7.68638 9.6217 7.44168 10.4802 7.44508 11.3558C7.44433 11.9709 7.56695 12.5798 7.80556 13.146C8.04417 13.7121 8.39387 14.224 8.8337 14.6508C8.9405 14.7608 9.05586 14.8621 9.17865 14.9536Z" fill="white"/>
<path d="M17.9967 9.55689C17.6432 8.2325 16.8657 7.06247 15.7848 6.22806C14.7038 5.39364 13.3798 4.94141 12.0178 4.94141C10.6557 4.94141 9.33169 5.39364 8.25078 6.22806C7.16986 7.06247 6.39237 8.2325 6.03878 9.55689C5.71633 9.66458 5.43628 9.87277 5.23912 10.1513C5.04196 10.4299 4.93791 10.7644 4.94205 11.1064C4.93616 11.3123 4.97063 11.5173 5.04346 11.7097C5.11629 11.9021 5.22606 12.0783 5.36652 12.2279C5.50698 12.3776 5.67536 12.498 5.86204 12.5821C6.04871 12.6663 6.25003 12.7125 6.45448 12.7183V11.2756C6.46386 9.79002 7.05898 8.36901 8.10893 7.3252C9.15889 6.28139 10.5777 5.70029 12.0531 5.70973C13.5286 5.71918 14.9399 6.31839 15.9766 7.37556C17.0133 8.43273 17.5904 9.86125 17.581 11.3469V12.7183C17.9885 12.6998 18.3722 12.5201 18.6488 12.2182C18.9254 11.9164 19.0725 11.5169 19.0581 11.1064C19.0674 10.7682 18.9696 10.4356 18.7788 10.1571C18.588 9.87849 18.3141 9.6683 17.9967 9.55689Z" fill="white"/>
<path d="M15.7767 15.4524C14.7656 16.4288 13.4188 16.974 12.0178 16.974C10.6167 16.974 9.26994 16.4288 8.25879 15.4524C7.62838 15.8956 7.08047 16.4473 6.64021 17.082C6.2353 17.6853 5.93614 18.354 5.75575 19.0591H18.3505C17.9495 17.5949 17.0512 16.3186 15.8121 15.4524H15.7767Z" fill="white"/>
</svg>
