<svg width="321" height="48" viewBox="0 0 321 48" fill="none" xmlns="http://www.w3.org/2000/svg">
<path d="M6 0.5H315C318.038 0.5 320.5 2.96243 320.5 6V42C320.5 45.0376 318.038 47.5 315 47.5H6C2.96244 47.5 0.5 45.0376 0.5 42V6C0.5 2.96243 2.96243 0.5 6 0.5Z" fill="#1E2024" stroke="#478A03"/>
<g clip-path="url(#clip0_1_10488)">
<path d="M25.1098 22.912H16.0398V20.656C16.0454 20.6307 16.0454 20.6045 16.0398 20.5792C16.0384 20.1805 16.1193 19.7854 16.2776 19.4168C16.436 19.0482 16.6687 18.7133 16.9624 18.4313C17.2561 18.1494 17.6049 17.926 17.9889 17.774C18.3729 17.622 18.7844 17.5444 19.1998 17.5456C20.0293 17.5455 20.8255 17.8585 21.4167 18.4171C22.0079 18.9757 22.3466 19.735 22.3598 20.5312V21.0208C22.3598 21.1225 22.3808 21.2231 22.4216 21.317C22.4624 21.4108 22.5223 21.4959 22.5976 21.5673C22.673 21.6387 22.7623 21.6951 22.8605 21.7331C22.9588 21.7712 23.0639 21.7901 23.1698 21.7888C23.3819 21.7888 23.5854 21.7079 23.7355 21.5639C23.8855 21.4198 23.9698 21.2245 23.9698 21.0208V20.56C23.9685 19.9599 23.844 19.366 23.6036 18.812C23.3632 18.2581 23.0115 17.7551 22.5685 17.3316C22.1256 16.9082 21.6001 16.5727 21.0221 16.3442C20.4441 16.1157 19.8249 15.9987 19.1998 16C18.5738 16 17.954 16.1185 17.3759 16.3488C16.7977 16.579 16.2725 16.9165 15.8304 17.3418C15.3883 17.7672 15.0378 18.2721 14.7992 18.8276C14.5606 19.3831 14.4385 19.9783 14.4398 20.5792V22.912H13.3398C12.987 22.912 12.6487 23.0466 12.3993 23.286C12.1499 23.5254 12.0098 23.8502 12.0098 24.1888V31.6C12.0399 31.8801 12.1664 32.1425 12.3692 32.3459C12.572 32.5493 12.8396 32.6821 13.1298 32.7232H25.3398C25.5921 32.6666 25.8215 32.5399 25.9993 32.3589C26.1771 32.178 26.2955 31.9507 26.3398 31.7056V24.0832C26.3163 23.7784 26.1789 23.492 25.9529 23.2768C25.7269 23.0616 25.4274 22.932 25.1098 22.912ZM19.8398 28.96H18.5398C18.3276 28.96 18.1241 28.8791 17.9741 28.7351C17.8241 28.591 17.7398 28.3957 17.7398 28.192C17.7384 28.0904 17.7582 27.9895 17.7978 27.8952C17.8374 27.8009 17.8961 27.7151 17.9705 27.6427C18.0449 27.5704 18.1336 27.513 18.2313 27.4738C18.329 27.4346 18.4339 27.4144 18.5398 27.4144H19.8398C19.9457 27.4144 20.0505 27.4346 20.1482 27.4738C20.246 27.513 20.3346 27.5704 20.409 27.6427C20.4834 27.7151 20.5422 27.8009 20.5818 27.8952C20.6214 27.9895 20.6411 28.0904 20.6398 28.192C20.6398 28.3957 20.5555 28.591 20.4055 28.7351C20.2554 28.8791 20.0519 28.96 19.8398 28.96Z" fill="#808994"/>
</g>
<defs>
<clipPath id="clip0_1_10488">
<rect width="14.39" height="16.704" fill="white" transform="translate(12 16)"/>
</clipPath>
</defs>
</svg>
