<svg width="28" height="29" viewBox="0 0 28 29" fill="none" xmlns="http://www.w3.org/2000/svg">
<path d="M15.0144 28.6819H12.9856C5.8435 28.6819 0 22.9025 0 15.8388V13.8322C0 6.76843 5.8435 0.989014 12.9856 0.989014H15.0144C22.1565 0.989014 28 6.76843 28 13.8322V15.8388C28 22.9025 22.1565 28.6819 15.0144 28.6819Z" fill="#3C599B"/>
<path d="M14.936 22.0163H11.9197V14.804H10.4121V12.3175H11.9197V10.8256C11.9197 8.79846 12.7708 7.59155 15.1881 7.59155H17.2011V10.0779H15.9436C15.0022 10.0779 14.9396 10.4256 14.9396 11.0737L14.9361 12.3175H17.2157L16.9487 14.804H14.9361V22.0163H14.936Z" fill="white"/>
</svg>
