<svg width="46" height="46" viewBox="0 0 46 46" fill="none" xmlns="http://www.w3.org/2000/svg">
<circle cx="23" cy="23" r="22.5" fill="url(#paint0_linear_1_1935)" stroke="url(#paint1_linear_1_1935)"/>
<path d="M29.224 4.51001H17.5504C17.4025 4.51001 17.2827 4.62988 17.2827 4.77775V6.21018C17.2827 6.35805 17.4025 6.47792 17.5504 6.47792H29.224C29.3719 6.47792 29.4918 6.35805 29.4918 6.21018V4.77775C29.4918 4.62988 29.3719 4.51001 29.224 4.51001Z" fill="url(#paint2_linear_1_1935)"/>
<path d="M29.224 8.08439H17.5504C17.4025 8.08439 17.2827 8.20426 17.2827 8.35213V11.2705C17.2827 11.4184 17.4025 11.5383 17.5504 11.5383H29.224C29.3719 11.5383 29.4918 11.4184 29.4918 11.2705V8.35213C29.4918 8.20426 29.3719 8.08439 29.224 8.08439Z" fill="url(#paint3_linear_1_1935)"/>
<path d="M32.0755 17.2278H29.4918V13.533C29.4918 13.462 29.4636 13.3939 29.4133 13.3436C29.3631 13.2934 29.295 13.2652 29.224 13.2652H17.5504C17.5152 13.2652 17.4804 13.2721 17.4479 13.2856C17.4155 13.299 17.3859 13.3188 17.3611 13.3436C17.3362 13.3685 17.3165 13.398 17.303 13.4305C17.2896 13.463 17.2827 13.4978 17.2827 13.533V17.1877H14.7123C14.4656 17.1838 14.224 17.2585 14.0224 17.4008C13.8208 17.5432 13.6697 17.7459 13.5907 17.9797C13.5118 18.2135 13.5092 18.4663 13.5832 18.7017C13.6573 18.9371 13.8042 19.1429 14.0028 19.2894L22.6911 25.8759C22.8864 26.0155 23.1204 26.0905 23.3604 26.0905C23.6005 26.0905 23.8345 26.0155 24.0298 25.8759L32.7181 19.2894C32.8914 19.1394 33.0171 18.9421 33.0799 18.7216C33.1427 18.5011 33.1398 18.2672 33.0716 18.0483C33.0034 17.8295 32.8728 17.6353 32.6959 17.4896C32.519 17.3438 32.3033 17.2529 32.0755 17.2278Z" fill="url(#paint4_linear_1_1935)"/>
<g filter="url(#filter0_i_1_1935)">
<path d="M20.7954 38.7843H18.81L18.0208 36.7312H14.4077L13.6616 38.7843H11.7256L15.2462 29.7454H17.1761L20.7954 38.7843ZM17.4351 35.2082L16.1896 31.854L14.9688 35.2082H17.4351Z" fill="#20202B"/>
<path d="M21.7696 38.7843V29.7454H24.6983C25.8082 29.7454 26.5316 29.7906 26.8687 29.881C27.3866 30.0167 27.8202 30.3126 28.1696 30.7689C28.519 31.221 28.6937 31.8068 28.6937 32.5261C28.6937 33.081 28.593 33.5476 28.3916 33.9257C28.1902 34.3039 27.9333 34.6019 27.6209 34.8198C27.3126 35.0335 26.9981 35.1753 26.6775 35.2452C26.2418 35.3315 25.6108 35.3747 24.7846 35.3747H23.5947V38.7843H21.7696ZM23.5947 31.2745V33.8394H24.5935C25.3128 33.8394 25.7938 33.7921 26.0363 33.6976C26.2788 33.6031 26.4679 33.4551 26.6035 33.2537C26.7433 33.0523 26.8132 32.818 26.8132 32.5508C26.8132 32.2219 26.7166 31.9506 26.5234 31.7369C26.3302 31.5232 26.0856 31.3896 25.7897 31.3361C25.5718 31.295 25.134 31.2745 24.4764 31.2745H23.5947Z" fill="#20202B"/>
<path d="M30.192 38.7843V29.7454H33.1207C34.2306 29.7454 34.954 29.7906 35.2911 29.881C35.809 30.0167 36.2427 30.3126 36.592 30.7689C36.9414 31.221 37.1161 31.8068 37.1161 32.5261C37.1161 33.081 37.0154 33.5476 36.814 33.9257C36.6126 34.3039 36.3557 34.6019 36.0433 34.8198C35.735 35.0335 35.4206 35.1753 35.0999 35.2452C34.6642 35.3315 34.0333 35.3747 33.2071 35.3747H32.0171V38.7843H30.192ZM32.0171 31.2745V33.8394H33.0159C33.7353 33.8394 34.2162 33.7921 34.4587 33.6976C34.7012 33.6031 34.8903 33.4551 35.0259 33.2537C35.1657 33.0523 35.2356 32.818 35.2356 32.5508C35.2356 32.2219 35.139 31.9506 34.9458 31.7369C34.7526 31.5232 34.508 31.3896 34.2121 31.3361C33.9942 31.295 33.5564 31.2745 32.8988 31.2745H32.0171Z" fill="#20202B"/>
</g>
<defs>
<filter id="filter0_i_1_1935" x="11.7256" y="29.7454" width="26.3906" height="10.0389" filterUnits="userSpaceOnUse" color-interpolation-filters="sRGB">
<feFlood flood-opacity="0" result="BackgroundImageFix"/>
<feBlend mode="normal" in="SourceGraphic" in2="BackgroundImageFix" result="shape"/>
<feColorMatrix in="SourceAlpha" type="matrix" values="0 0 0 0 0 0 0 0 0 0 0 0 0 0 0 0 0 0 127 0" result="hardAlpha"/>
<feOffset dx="1" dy="1"/>
<feGaussianBlur stdDeviation="0.5"/>
<feComposite in2="hardAlpha" operator="arithmetic" k2="-1" k3="1"/>
<feColorMatrix type="matrix" values="0 0 0 0 0 0 0 0 0 0 0 0 0 0 0 0 0 0 0.5 0"/>
<feBlend mode="normal" in2="shape" result="effect1_innerShadow_1_1935"/>
</filter>
<linearGradient id="paint0_linear_1_1935" x1="23" y1="0" x2="23" y2="46" gradientUnits="userSpaceOnUse">
<stop stop-color="#FFFB97"/>
<stop offset="0.265625" stop-color="#E4D93E"/>
<stop offset="0.880208" stop-color="#D2C22C"/>
<stop offset="0.994792" stop-color="#B3A41D"/>
</linearGradient>
<linearGradient id="paint1_linear_1_1935" x1="23" y1="0" x2="23" y2="46" gradientUnits="userSpaceOnUse">
<stop stop-color="#EAE045"/>
<stop offset="1" stop-color="#EAE045"/>
</linearGradient>
<linearGradient id="paint2_linear_1_1935" x1="23.3273" y1="13.2652" x2="23.3273" y2="26.0905" gradientUnits="userSpaceOnUse">
<stop stop-color="#473054"/>
<stop offset="1" stop-color="#20202B"/>
</linearGradient>
<linearGradient id="paint3_linear_1_1935" x1="23.3273" y1="13.2652" x2="23.3273" y2="26.0905" gradientUnits="userSpaceOnUse">
<stop stop-color="#473054"/>
<stop offset="1" stop-color="#20202B"/>
</linearGradient>
<linearGradient id="paint4_linear_1_1935" x1="23.3273" y1="13.2652" x2="23.3273" y2="26.0905" gradientUnits="userSpaceOnUse">
<stop stop-color="#473054"/>
<stop offset="1" stop-color="#20202B"/>
</linearGradient>
</defs>
</svg>
