<svg width="14" height="15" viewBox="0 0 14 15" fill="none" xmlns="http://www.w3.org/2000/svg">
<path d="M12.2506 0.653866H0.767485C0.667159 0.652684 0.567574 0.669804 0.474513 0.704269C0.381452 0.738735 0.296769 0.789827 0.225372 0.854608C0.153974 0.919389 0.0972864 0.996596 0.0585989 1.08167C0.0199113 1.16674 -8.24355e-06 1.25799 2.55918e-09 1.3502V13.9829C0.00239164 14.0678 0.0315952 14.1501 0.0840515 14.22C0.136508 14.2899 0.20995 14.3442 0.295426 14.3764C0.380901 14.4086 0.474716 14.4172 0.565436 14.4012C0.656155 14.3853 0.739862 14.3453 0.806346 14.2864L2.31217 12.8491C2.35761 12.8045 2.41252 12.7689 2.47352 12.7446C2.53451 12.7203 2.60028 12.7078 2.66677 12.7078C2.73325 12.7078 2.79902 12.7203 2.86002 12.7446C2.92101 12.7689 2.97593 12.8045 3.02136 12.8491L4.11916 14.0097C4.16531 14.0531 4.22046 14.0877 4.28136 14.1113C4.34226 14.1349 4.40767 14.147 4.47376 14.147C4.53984 14.147 4.60525 14.1349 4.66615 14.1113C4.72705 14.0877 4.7822 14.0531 4.82835 14.0097L6.15931 12.7955C6.20395 12.7497 6.25861 12.7131 6.31971 12.688C6.38081 12.6629 6.44698 12.6499 6.5139 12.6499C6.58082 12.6499 6.64699 12.6629 6.70809 12.688C6.76919 12.7131 6.82385 12.7497 6.8685 12.7955L7.9663 13.9561C8.01173 14.0007 8.06665 14.0362 8.12764 14.0606C8.18864 14.0849 8.25441 14.0974 8.32089 14.0974C8.38737 14.0974 8.45315 14.0849 8.51414 14.0606C8.57514 14.0362 8.63005 14.0007 8.67549 13.9561L10.0064 12.7419C10.0519 12.6973 10.1068 12.6618 10.1678 12.6375C10.2288 12.6132 10.2946 12.6006 10.361 12.6006C10.4275 12.6006 10.4933 12.6132 10.5543 12.6375C10.6153 12.6618 10.6702 12.6973 10.7156 12.7419L12.134 14.1079C12.2248 14.1897 12.3469 14.2355 12.4741 14.2355C12.6012 14.2355 12.7233 14.1897 12.8141 14.1079C12.8949 14.0439 12.9594 13.9643 13.003 13.8748C13.0467 13.7853 13.0684 13.6881 13.0667 13.5901V1.36807C13.0591 1.18096 12.9729 1.00383 12.8261 0.873952C12.6794 0.744076 12.4835 0.671556 12.2798 0.671684L12.2506 0.653866Z" fill="white"/>
<path d="M8.94806 9.58129H4.09056C3.92824 9.58129 3.77256 9.52205 3.65778 9.41657C3.543 9.31109 3.47852 9.16801 3.47852 9.01884C3.48107 8.87123 3.54667 8.73045 3.66118 8.6269C3.77568 8.52334 3.92991 8.46531 4.09056 8.46533H8.94806C9.10871 8.46531 9.26293 8.52334 9.37744 8.6269C9.49195 8.73045 9.55755 8.87123 9.5601 9.01884C9.5601 9.16801 9.49562 9.31109 9.38084 9.41657C9.26606 9.52205 9.11038 9.58129 8.94806 9.58129Z" fill="#2E3135"/>
<path d="M8.94806 11.9773H4.09056C3.92991 11.9773 3.77568 11.9193 3.66118 11.8157C3.54667 11.7122 3.48107 11.5714 3.47852 11.4238C3.47852 11.2746 3.543 11.1315 3.65778 11.0261C3.77256 10.9206 3.92824 10.8613 4.09056 10.8613H8.94806C9.11038 10.8613 9.26606 10.9206 9.38084 11.0261C9.49562 11.1315 9.5601 11.2746 9.5601 11.4238C9.55755 11.5714 9.49195 11.7122 9.37744 11.8157C9.26293 11.9193 9.10871 11.9773 8.94806 11.9773Z" fill="#2E3135"/>
<path d="M8.94821 9.46831H4.09071C3.94307 9.46245 3.80272 9.40769 3.69558 9.31415C3.58844 9.22062 3.52175 9.09462 3.50781 8.95942C3.50781 8.81025 3.5723 8.66718 3.68708 8.5617C3.80186 8.45622 3.95753 8.39697 4.11986 8.39697H8.97735C9.13968 8.39697 9.29535 8.45622 9.41014 8.5617C9.52492 8.66718 9.5894 8.81025 9.5894 8.95942C9.58685 9.10704 9.52124 9.24782 9.40674 9.35137C9.29223 9.45493 9.13801 9.51295 8.97735 9.51293L8.94821 9.46831Z" fill="#2E3135"/>
</svg>
