<svg width="86" height="34" viewBox="0 0 86 34" fill="none" xmlns="http://www.w3.org/2000/svg">
<rect width="86" height="34" rx="4" fill="#4A4E54"/>
<path d="M70.273 18.323C71.0725 19.0184 71.7464 19.659 72.2947 20.2448C72.8455 20.8121 73.2502 21.4072 73.5087 22.0303C73.7697 22.6348 73.8479 23.3287 73.7433 24.1122C73.6212 25.0262 73.2971 25.8183 72.7709 26.4885C72.2447 27.1587 71.583 27.7064 70.7858 28.1316C70.0096 28.5405 69.1552 28.8252 68.2225 28.9854C67.3109 29.1294 66.3887 29.1392 65.456 29.0146C64.4487 28.8801 63.5503 28.5703 62.7607 28.0851C61.9897 27.6024 61.4079 26.9836 61.015 26.2286C60.6247 25.455 60.4931 24.5925 60.6201 23.6412C60.7372 22.7645 61.0234 22.0432 61.4787 21.4775C61.934 20.9117 62.5484 20.4337 63.322 20.0433C64.0981 19.6344 65.0222 19.2546 66.0943 18.9042L66.1204 18.7083C65.6206 18.1859 65.1233 17.6448 64.6284 17.085C64.1336 16.5253 63.737 15.9407 63.4387 15.3313C63.1428 14.7032 63.0397 14.0534 63.1294 13.3819C63.2191 12.7103 63.4773 12.1277 63.904 11.6341C64.3306 11.1405 64.8512 10.7258 65.4656 10.3902C66.1011 10.0384 66.7852 9.75001 67.5177 9.52508C68.2528 9.28148 68.9722 9.08328 69.6762 8.93046C70.6847 9.19805 71.5688 9.54396 72.3286 9.9682C73.1095 10.3763 73.6995 10.8633 74.0986 11.4292C74.4977 11.9951 74.6474 12.6512 74.5477 13.3973C74.4531 14.1062 74.1862 14.754 73.747 15.3409C73.3104 15.9092 72.7867 16.4183 72.176 16.8684C71.5678 17.2998 70.9459 17.6914 70.3103 18.0432L70.273 18.323ZM69.2341 17.3584C69.8859 17.0277 70.4139 16.5571 70.8182 15.9466C71.2225 15.3361 71.4695 14.695 71.5592 14.0235C71.6464 13.3706 71.5439 12.7873 71.2517 12.2736C70.9783 11.7625 70.5885 11.3402 70.0824 11.0068C69.5788 10.6547 69.0136 10.4084 68.3869 10.2677C67.76 10.4118 67.2545 10.7145 66.8701 11.1758C66.5044 11.6396 66.2829 12.1607 66.2057 12.7389C66.1434 13.2053 66.2651 13.7152 66.571 14.2687C66.8954 14.8246 67.3063 15.3732 67.8037 15.9142C68.301 16.4553 68.7778 16.9367 69.2341 17.3584ZM67.0436 19.686C65.9554 20.0153 65.1581 20.4404 64.6519 20.9614C64.1456 21.4824 63.8339 22.1812 63.7169 23.058C63.6297 23.7108 63.6892 24.4023 63.8955 25.1324C64.1204 25.8649 64.4816 26.5017 64.9789 27.0428C65.4949 27.5864 66.126 27.908 66.8721 28.0076C68.0286 28.1621 68.921 27.949 69.5491 27.3683C70.1798 26.769 70.5561 26.0124 70.6782 25.0984C70.7754 24.3709 70.6306 23.6775 70.244 23.0183C69.876 22.3616 69.3967 21.7565 68.8061 21.2029C68.218 20.6307 67.6305 20.1251 67.0436 19.686Z" fill="white"/>
<path d="M51.2936 15.5878L51.3561 15.8029C52.7464 15.5263 53.8974 15.5455 54.809 15.8605C55.7169 16.1624 56.3053 16.7762 56.5742 17.7021C56.8015 18.4845 56.8233 19.1923 56.6396 19.8255C56.4651 20.4418 56.1429 20.9879 55.6731 21.4637C55.2163 21.9358 54.6613 22.3374 54.008 22.6686C53.3678 22.996 52.6891 23.2638 51.9719 23.4722L47.1991 24.8586L47.1082 24.5456C47.4051 24.2049 47.5513 23.9291 47.5466 23.7183C47.542 23.5076 47.498 23.2587 47.4146 22.9719L44.6758 13.5437C44.5963 13.2698 44.5281 13.0351 44.4713 12.8395C44.4275 12.6401 44.3372 12.4754 44.2005 12.3454C44.0768 12.2117 43.8572 12.1129 43.5417 12.049C43.2224 11.972 42.7596 11.9368 42.1534 11.9432L42.0341 11.5324L42.1174 11.3809L48.142 9.63085C49.7981 9.14976 51.1397 9.02167 52.1666 9.24657C53.1935 9.47148 53.8565 10.099 54.1558 11.1292C54.3452 11.7812 54.3106 12.3923 54.052 12.9623C53.7933 13.5324 53.4104 14.0396 52.9031 14.4839C52.3921 14.9151 51.8556 15.2831 51.2936 15.5878ZM48.1494 16.3739C49.5577 15.9647 50.5429 15.3887 51.1048 14.6457C51.6759 13.8859 51.8213 13.0235 51.541 12.0585C51.3592 11.4325 51.0645 11.002 50.6568 10.7669C50.2584 10.515 49.7924 10.3958 49.259 10.4093C48.7387 10.4191 48.1981 10.5054 47.6374 10.6683C47.3635 10.7479 47.1057 10.8581 46.8638 10.9991C46.7448 11.0761 46.6968 11.2031 46.72 11.3802C46.7562 11.5536 46.8179 11.7902 46.905 12.0901L48.1494 16.3739ZM49.6722 21.6161C49.8123 22.0986 49.9529 22.4608 50.0939 22.7026C50.2348 22.9445 50.5074 23.0067 50.9117 22.8893C51.6419 22.6772 52.2496 22.3592 52.7345 21.9355C53.2288 21.495 53.5669 20.9796 53.749 20.3894C53.931 19.7992 53.9236 19.165 53.7266 18.4869C53.6243 18.1348 53.4429 17.8269 53.1825 17.5632C52.9351 17.2957 52.6366 17.0713 52.287 16.89C51.9542 16.718 51.564 16.6405 51.1164 16.6574C50.665 16.6612 50.1989 16.7118 49.7181 16.809C49.2373 16.9063 48.7864 17.009 48.3653 17.1172L49.6722 21.6161Z" fill="white"/>
<path d="M32.112 26.8828L29.7255 27.0138L29.5445 26.8275C29.9242 25.3493 30.2967 23.8758 30.6621 22.4068C31.0274 20.9379 31.3693 19.4639 31.6878 17.9849C31.7838 17.5388 31.8702 17.1091 31.9469 16.6957C32.0378 16.2731 32.0763 15.9805 32.0622 15.8178C32.0515 15.5821 31.9636 15.3912 31.7986 15.2451C31.6477 15.0899 31.4588 14.9693 31.2316 14.8836C31.0186 14.7886 30.8032 14.7054 30.5852 14.6339L30.661 14.2817L30.8322 14.1712C31.5365 14.3228 32.2995 14.4871 33.1212 14.664C33.9547 14.8434 34.7717 15.0132 35.5725 15.1733C36.3732 15.3334 37.0918 15.4758 37.7282 15.6005C38.3789 15.716 38.8723 15.7916 39.2086 15.8271L38.9508 17.0244L38.7973 17.1388C38.1944 16.9721 37.6092 16.8093 37.0416 16.6503C36.4765 16.4795 35.997 16.3394 35.6029 16.23C35.2089 16.1206 34.9649 16.0558 34.871 16.0356C34.7184 16.0027 34.5875 16.0114 34.4785 16.0616C34.3719 16.1001 34.2883 16.2602 34.2277 16.5419L33.4923 19.9578C33.467 20.0752 33.4677 20.1859 33.4945 20.2899C33.533 20.3964 33.5991 20.4598 33.6931 20.48C34.3504 20.6216 35.0212 20.7291 35.7055 20.8027C36.3923 20.8646 37.0635 20.9416 37.7192 21.0336L37.9026 21.2942L37.6979 22.245C37.3626 22.1482 36.9601 22.0493 36.4906 21.9482C36.0353 21.8379 35.5612 21.7297 35.0682 21.6236C34.5751 21.5174 34.1056 21.4164 33.6595 21.3203C33.5069 21.2875 33.3891 21.2928 33.306 21.3363C33.223 21.3799 33.16 21.5014 33.117 21.701C33.117 21.701 33.0905 21.8242 33.0374 22.0707C32.9961 22.3198 32.9383 22.6451 32.8641 23.0467C32.7925 23.4366 32.7074 23.8605 32.6088 24.3183C32.522 24.7786 32.4352 25.2389 32.3483 25.6993C32.2641 26.1478 32.1853 26.5423 32.112 26.8828Z" fill="white"/>
<path d="M23.2157 19.1515L25.6209 18.6958L25.7555 18.8901L25.3487 20.4817L23.533 20.8257L23.3992 21.0221C23.5094 21.6037 23.626 22.176 23.749 22.739C23.8876 23.299 24.0421 23.8559 24.2122 24.41L21.8621 25.9301L21.4828 25.7333C21.4304 25.0267 21.3528 24.3167 21.2502 23.6033C21.1633 22.887 21.0528 22.1751 20.9188 21.4677L20.7269 21.3575L13.8414 22.6623L13.6091 21.4361L18.6801 9.65393L21.0265 8.50091L23.0149 18.9942L23.2157 19.1515ZM20.5524 19.5341L19.1627 12.2006L18.9765 11.9916C18.9137 12.0035 18.7143 12.3263 18.3784 12.9599C18.0425 13.5935 17.6592 14.4071 17.2287 15.4006C16.6631 16.7129 16.2464 17.7364 15.9785 18.4711C15.7076 19.1901 15.5361 19.703 15.464 20.0098C15.4046 20.2979 15.3779 20.4577 15.3838 20.4891L15.5521 20.6038L20.3861 19.6877L20.5524 19.5341Z" fill="white"/>
</svg>
