<svg width="12" height="14" viewBox="0 0 12 14" fill="none" xmlns="http://www.w3.org/2000/svg">
<path d="M11.9434 7.52372C11.9434 4.79159 10.1163 2.48197 7.62563 1.75928V0.865444C7.62563 0.387335 7.23997 0 6.76429 0H5.17926C4.7035 0 4.3181 0.387321 4.3181 0.865444V1.75928C1.82739 2.48176 0 4.79159 0 7.52372C0 9.74737 1.21099 11.6909 3.00463 12.7273L2.69969 13.1684C2.56415 13.3646 2.61241 13.6343 2.80774 13.7707C2.87962 13.8211 2.96515 13.8481 3.05279 13.8482C3.18921 13.8482 3.32342 13.7833 3.40695 13.6623L3.79063 13.1075C4.46691 13.3751 5.20214 13.5238 5.97177 13.5238C6.74122 13.5238 7.47646 13.3751 8.15284 13.1075L8.53641 13.6623C8.62005 13.7833 8.75406 13.8482 8.89076 13.8482C8.97535 13.8482 9.06092 13.8229 9.13571 13.7707C9.33105 13.6343 9.3793 13.3647 9.24374 13.1684L8.93881 12.7273C10.7327 11.6909 11.9434 9.74737 11.9434 7.52372ZM5.17926 0.865444H6.7643V1.57789C6.50474 1.54311 6.24057 1.52341 5.97177 1.52341C5.70269 1.52341 5.43882 1.54311 5.17926 1.57789V0.865444ZM5.97177 12.6584C3.14911 12.6584 0.861247 10.3594 0.861247 7.52372C0.861247 4.68767 3.14913 2.38866 5.97177 2.38866C8.79424 2.38866 11.0822 4.68767 11.0822 7.52372C11.0822 10.3594 8.79424 12.6584 5.97177 12.6584Z" fill="#4B555C"/>
<path d="M10.1306 5.9125C10.0733 5.76393 9.90685 5.69015 9.75957 5.74732C9.61153 5.80471 9.53789 5.9716 9.59499 6.12035C9.76689 6.56794 9.85418 7.04026 9.85418 7.52437C9.85418 9.67406 8.11341 11.4229 5.97385 11.4229C3.83432 11.4229 2.09364 9.67406 2.09364 7.52437C2.09364 5.3745 3.83432 3.62547 5.97385 3.62547C6.13229 3.62547 6.26072 3.49642 6.26072 3.33724C6.26072 3.17787 6.13229 3.04883 5.97385 3.04883C3.51767 3.04883 1.51953 5.05654 1.51953 7.52437C1.51953 9.99202 3.51767 11.9999 5.97385 11.9999C8.42986 11.9999 10.4283 9.99202 10.4283 7.52437C10.4283 6.96898 10.3283 6.42675 10.1306 5.9125Z" fill="#4B555C"/>
<path d="M7.08638 3.78769C7.85121 4.01699 8.51877 4.47251 9.01752 5.10477C9.04437 5.13886 9.07856 5.16641 9.11752 5.18534C9.15647 5.20428 9.19919 5.21411 9.24246 5.2141C9.30513 5.2141 9.3682 5.19381 9.42087 5.1517C9.54508 5.05279 9.56604 4.87139 9.46778 4.7466C8.89541 4.02103 8.12884 3.49828 7.25096 3.23479C7.09887 3.18919 6.9389 3.27612 6.89371 3.42874C6.84837 3.58137 6.9347 3.74209 7.08638 3.78769ZM5.47559 7.52414C5.47559 7.80096 5.69891 8.02542 5.9747 8.02542C6.25041 8.02542 6.47383 7.80096 6.47383 7.52414C6.47383 7.24713 6.25041 7.02264 5.9747 7.02264C5.69891 7.02263 5.47559 7.24712 5.47559 7.52414ZM6.26157 6.27988V4.5349C6.26157 4.37572 6.13315 4.24649 5.9747 4.24649C5.8161 4.24649 5.68757 4.37572 5.68757 4.5349V6.27988C5.68757 6.43924 5.8161 6.5683 5.9747 6.5683C6.13315 6.56829 6.26157 6.43924 6.26157 6.27988ZM8.97983 7.23552H7.2429C7.08446 7.23552 6.95603 7.36475 6.95603 7.52412C6.95603 7.68331 7.08446 7.81254 7.2429 7.81254H8.97983C9.13805 7.81254 9.26669 7.68331 9.26669 7.52412C9.26669 7.36475 9.13805 7.23552 8.97983 7.23552Z" fill="#4B555C"/>
</svg>
