<svg width="62" height="13" viewBox="0 0 62 13" fill="none" xmlns="http://www.w3.org/2000/svg">
<g clip-path="url(#clip0_2015_5099)">
<path d="M0 10.2517V13H6.07535L6.99483 10.2517H0Z" fill="#0099FA"/>
<path d="M0 6.92753V9.71949L7.63506 8.35839L8.62945 5.38326L0 6.92753Z" fill="#0099FA"/>
<path d="M0 3.49866V6.37784L9.32419 3.32416L10.4344 0L0 3.49866Z" fill="#0099FA"/>
<path d="M5.61911 8.51548C5.68482 8.50222 5.74471 8.45932 5.7879 8.39458C5.83113 8.32979 5.85488 8.24737 5.85488 8.16214C5.85488 8.0769 5.83113 7.99448 5.7879 7.9297C5.74471 7.86491 5.68482 7.82206 5.61911 7.8088C5.55339 7.82206 5.49354 7.86491 5.45031 7.9297C5.40712 7.99448 5.38334 8.0769 5.38334 8.16214C5.38334 8.24737 5.40712 8.32979 5.45031 8.39458C5.49354 8.45932 5.55339 8.50222 5.61911 8.51548Z" fill="#0099FA"/>
<path d="M14.9706 8.02698H17.0139L17.6813 5.98537H14.9706V4.57193H18.1513L18.8733 2.39073L18.8801 2.37328H12.975V11.7088H18.8869V9.51019H14.9706V8.02698Z" fill="white"/>
<path d="M38.2162 2.37319H35.09V11.7088H37.1332V9.03894H38.1412C38.953 9.09229 39.7546 8.78401 40.4094 8.16647C40.6965 7.87094 40.9248 7.49212 41.0753 7.0613C41.2256 6.63043 41.2937 6.15992 41.2743 5.68863C41.2927 5.22981 41.2283 4.77174 41.0866 4.34971C40.9449 3.92768 40.7296 3.55295 40.457 3.2544C39.8176 2.62326 39.0215 2.3102 38.2162 2.37319ZM38.8972 6.68326C38.6573 6.90096 38.3664 7.00579 38.0731 6.97992H37.1128V4.54567H38.0595C38.3651 4.52396 38.6672 4.63459 38.9176 4.85975C39.0164 4.96661 39.0951 5.10046 39.1482 5.25144C39.2014 5.40245 39.2273 5.56673 39.2242 5.73226C39.2351 5.91049 39.2133 6.08955 39.1598 6.25482C39.1067 6.42009 39.0235 6.56691 38.9176 6.68326H38.8972Z" fill="white"/>
<path d="M43.9713 2.37328H41.9484V11.7088H46.4162L47.1656 9.44038H43.9713V2.37328Z" fill="white"/>
<path d="M50.6049 2.30346L47.9965 10.2082L47.506 11.7088H49.631L50.1488 10.0424H52.9616L53.4927 11.7088H55.6586L52.5528 2.30346H50.6049ZM50.7412 8.02694L51.5653 5.40952L52.3757 8.02694H50.7412Z" fill="white"/>
<path d="M59.7387 2.37328L58.2269 5.77599L56.7283 2.37328H54.4265L57.1984 8.21019V11.7088H59.2281V8.17531L62 2.37328H59.7387Z" fill="white"/>
<path d="M24.8532 2.37328L23.1982 8.28L21.5431 2.37328H19.2819L22.2378 11.7786H24.1108L27.0736 2.37328H24.8532Z" fill="white"/>
<path d="M30.4854 2.20729C29.7364 2.20729 29.0042 2.4918 28.3815 3.02484C27.7588 3.55787 27.2734 4.31549 26.9868 5.20191C26.7002 6.08829 26.6252 7.06368 26.7713 8.00466C26.9174 8.94569 27.2781 9.81006 27.8077 10.4885C28.3373 11.1669 29.012 11.6289 29.7466 11.8161C30.4812 12.0033 31.2426 11.9072 31.9346 11.5401C32.6265 11.1729 33.218 10.5511 33.6341 9.75338C34.0502 8.95561 34.2724 8.01775 34.2724 7.05831C34.2724 5.77174 33.8733 4.53787 33.1631 3.62812C32.4529 2.71838 31.4897 2.20729 30.4854 2.20729ZM30.4854 9.60596C30.092 9.60596 29.7075 9.45655 29.3805 9.17661C29.0534 8.89664 28.7985 8.49875 28.648 8.03326C28.4974 7.56773 28.4581 7.05549 28.5348 6.56127C28.6115 6.0671 28.801 5.61314 29.0791 5.25685C29.3572 4.90052 29.7116 4.6579 30.0974 4.55962C30.4832 4.4613 30.8831 4.51174 31.2465 4.70457C31.6099 4.8974 31.9205 5.22392 32.139 5.64291C32.3576 6.06186 32.4742 6.55443 32.4742 7.05831C32.4724 7.73244 32.2621 8.37824 31.8893 8.85413C31.5165 9.33001 31.0117 9.59721 30.4854 9.59721V9.60596Z" fill="white"/>
</g>
<defs>
<clipPath id="clip0_2015_5099">
<rect width="62" height="13" fill="white"/>
</clipPath>
</defs>
</svg>
