<svg width="30" height="30" viewBox="0 0 30 30" fill="none" xmlns="http://www.w3.org/2000/svg">
<circle cx="15" cy="15" r="15" fill="#7889A6"/>
<path d="M15 6.5C19.6944 6.5 23.5 10.3056 23.5 15C23.5 19.6944 19.6944 23.5 15 23.5H6.5V15C6.5 10.3056 10.3056 6.5 15 6.5Z" fill="#7889A6" stroke="#191E24"/>
<g clip-path="url(#clip0_2015_5115)">
<path d="M17.1671 15.1411C17.6541 15.1439 18.1202 15.3495 18.4637 15.713C18.8071 16.0765 18.9999 16.5684 18.9999 17.0811V17.1124C18.9826 17.6068 18.788 18.076 18.4553 18.4253C18.1225 18.7747 17.6764 18.9783 17.2067 18.9951H16.7757C15.3426 18.8737 13.9845 18.2703 12.9021 17.2741C11.7551 16.1461 11.0784 14.5863 11.0197 12.9351C11.0164 12.6852 11.0604 12.4372 11.1491 12.2054C11.2378 11.9736 11.3695 11.7628 11.5364 11.5851C11.7033 11.4075 11.9021 11.2666 12.1213 11.1706C12.3404 11.0747 12.5755 11.0257 12.8129 11.0264C13.054 11.0264 13.2927 11.0765 13.5154 11.1738C13.7381 11.271 13.9404 11.4136 14.1106 11.5934C14.2809 11.7731 14.4158 11.9865 14.5076 12.2212C14.5994 12.4559 14.6464 12.7074 14.6457 12.9612C14.6477 13.3183 14.5489 13.668 14.362 13.966C14.175 14.264 13.9083 14.4969 13.5956 14.6352C13.8124 14.9987 14.0702 15.3331 14.3634 15.6313C14.693 15.9621 15.071 16.235 15.4829 16.4397C15.5976 16.0701 15.8203 15.748 16.1192 15.5195C16.4181 15.291 16.7779 15.1677 17.1473 15.1672L17.1671 15.1411Z" fill="#1E2024"/>
</g>
<defs>
<clipPath id="clip0_2015_5115">
<rect width="8" height="8" fill="white" transform="translate(11 11)"/>
</clipPath>
</defs>
</svg>
