<svg width="62" height="13" viewBox="0 0 62 13" fill="none" xmlns="http://www.w3.org/2000/svg">
<path d="M10.0848 1.16431H17.0161V2.8588H11.8855V5.33239H15.3011V7.02688H11.8855V9.79617H17.1733V11.4907H10.0848V1.16431Z" fill="white"/>
<path d="M16.6754 4.15213H18.519L20.1339 9.26902L21.6321 4.15213H23.4185L20.939 11.4932H19.2812L16.6754 4.15213Z" fill="white"/>
<path d="M23.1351 7.83943C23.1351 5.59983 24.5761 4.01333 26.6364 4.01333C28.6824 4.01333 30.1235 5.59983 30.1235 7.83943C30.1235 10.0482 28.6539 11.6347 26.5935 11.6347C24.5475 11.6347 23.1351 10.079 23.1351 7.83943ZM28.3085 7.88572V7.824C28.3085 6.42521 27.6749 5.5844 26.6364 5.5844C25.5836 5.5844 24.95 6.42521 24.95 7.824V7.88572C24.95 9.25365 25.5693 10.0636 26.6078 10.0636C27.6606 10.0636 28.3085 9.25365 28.3085 7.88572Z" fill="white"/>
<path d="M30.9357 1.02545H32.7364V11.4932H30.9357V1.02545Z" fill="white"/>
<path d="M33.7653 8.5542V4.15213H35.5517V8.44621C35.5517 9.42587 35.9829 10.0018 36.7903 10.0018C37.7264 10.0018 38.117 9.1456 38.117 7.88566V4.15213H39.9034V11.4932H38.117V10.4518C37.7573 11.2129 37.1381 11.6346 36.2592 11.6346C34.7157 11.6346 33.7653 10.4518 33.7653 8.5542Z" fill="white"/>
<path d="M41.5374 9.5493V5.70777H40.5727V4.15213H41.5374V2.76877L43.2809 1.71196V4.1547H44.6219V5.71034H43.2666V9.36674C43.2666 9.72415 43.4262 9.881 43.7573 9.89643H44.5504V11.4984H43.1666C41.8542 11.4161 41.566 10.763 41.5374 9.5493Z" fill="white"/>
<path d="M45.4317 1.19513H47.2896V3.07732H45.4317V1.19513ZM45.4603 4.15213H47.261V11.4932H45.4603V4.15213Z" fill="white"/>
<path d="M48.0756 7.83943C48.0756 5.59983 49.5166 4.01333 51.5769 4.01333C53.623 4.01333 55.064 5.59983 55.064 7.83943C55.064 10.0482 53.5944 11.6347 51.5341 11.6347C49.4857 11.6347 48.0756 10.079 48.0756 7.83943ZM53.2466 7.88572V7.824C53.2466 6.42521 52.6131 5.5844 51.5746 5.5844C50.5218 5.5844 49.8882 6.42521 49.8882 7.824V7.88572C49.8882 9.25365 50.5075 10.0636 51.546 10.0636C52.5988 10.0636 53.2466 9.25365 53.2466 7.88572Z" fill="white"/>
<path d="M55.8619 4.15217H57.6483V5.35039C58.008 4.49415 58.6725 3.99789 59.6372 3.99789C61.1211 3.99789 62 5.07012 62 7.09374V11.4958H60.2136V7.20173C60.2136 6.17578 59.8539 5.64609 59.0179 5.64609C58.1676 5.64609 57.6483 6.39177 57.6483 7.76228V11.4958H55.8619V4.15217Z" fill="white"/>
<path d="M7.56719 12.2106C7.54099 12.2106 7.52432 12.2132 7.47906 12.2132H7.43381V11.9715H7.49574C7.57434 11.9715 7.61007 11.9715 7.63865 11.9869C7.69343 12.0178 7.69581 12.0743 7.69581 12.0898C7.69343 12.2055 7.59577 12.2106 7.56719 12.2106ZM7.8292 12.0923C7.8292 12.0023 7.79347 11.9406 7.74821 11.8995C7.68629 11.8455 7.62197 11.8455 7.5267 11.8429H7.29804V12.6194H7.43143V12.3315H7.55052L7.69343 12.6194H7.84587L7.68629 12.3032C7.72916 12.2929 7.8292 12.2415 7.8292 12.0923ZM7.54576 12.8483C7.23849 12.8483 6.99078 12.5809 6.99078 12.2492C6.99078 11.9175 7.23849 11.6501 7.54576 11.6501C7.85302 11.6501 8.10073 11.9175 8.10073 12.2492C8.10073 12.5783 7.85302 12.8483 7.54576 12.8483ZM7.54576 11.4932C7.15989 11.4932 6.84787 11.8301 6.84787 12.2466C6.84787 12.6632 7.15989 13 7.54576 13C7.93162 13 8.24364 12.6632 8.24364 12.2466C8.24364 11.8326 7.92924 11.4932 7.54576 11.4932Z" fill="white"/>
<path d="M6.40484 5.97005C6.95982 5.98805 7.56958 5.97263 8.24126 5.91606C8.14361 4.45298 7.70296 3.23933 7.04318 2.3008C7.07415 2.55793 7.0932 2.82021 7.0932 3.08762C7.0932 4.13414 6.84311 5.11638 6.40484 5.97005Z" fill="white"/>
<path d="M6.1738 6.38404C5.18294 7.99367 3.48944 9.05562 1.56489 9.05562C1.42674 9.05562 1.29097 9.04791 1.15759 9.03762C0.666923 9.85016 0.350134 10.7527 0 11.6012C3.45133 13.5914 7.9078 11.4932 8.24364 6.42775C7.4743 6.36347 6.78832 6.35318 6.1738 6.38404Z" fill="white"/>
<path d="M0 0.7426C0.959893 3.07477 1.67922 5.81064 6.40722 5.97006C6.84549 5.11382 7.09558 4.13158 7.09558 3.08506C7.09558 2.81764 7.07653 2.55537 7.04556 2.29824C5.41875 -0.0185058 2.45571 -0.671618 0 0.7426Z" fill="white"/>
<path d="M6.1738 6.38404C3.32985 6.53574 1.99362 7.65683 1.15759 9.03762C1.29335 9.04791 1.42674 9.05562 1.56489 9.05562C3.48944 9.05562 5.18294 7.99367 6.1738 6.38404Z" fill="white"/>
</svg>
