<svg width="30" height="30" viewBox="0 0 30 30" fill="none" xmlns="http://www.w3.org/2000/svg">
<path d="M30 15C30 23.2843 23.2843 30 15 30C6.71573 30 0 23.2843 0 15C0 6.71573 6.71573 0 15 0C23.2843 0 30 6.71573 30 15Z" fill="#7889A6"/>
<path d="M23.66 9.70999C22.9983 9.99891 22.2973 10.1876 21.58 10.27C22.3349 9.81804 22.8999 9.10731 23.17 8.26999C22.4614 8.69693 21.6826 8.99488 20.87 9.14999C20.3738 8.62111 19.7302 8.25342 19.0226 8.09464C18.3149 7.93586 17.5759 7.99332 16.9013 8.25949C16.2267 8.52567 15.6476 8.98831 15.2391 9.58749C14.8305 10.1867 14.6114 10.8948 14.61 11.62C14.6097 11.8991 14.6399 12.1774 14.7 12.45C13.2582 12.3799 11.8475 12.006 10.5602 11.3529C9.27289 10.6997 8.13805 9.78212 7.23 8.66C6.76831 9.4601 6.62716 10.4055 6.83501 11.3055C7.04286 12.2056 7.58424 12.9933 8.34999 13.51C7.77769 13.4892 7.21872 13.3315 6.72 13.05C6.71904 13.8867 7.00715 14.6981 7.5356 15.3468C8.06405 15.9955 8.80038 16.4418 9.62 16.61C9.2934 16.6939 8.95716 16.7342 8.62 16.73C8.39248 16.7283 8.16533 16.7115 7.94 16.68C8.1758 17.3977 8.62852 18.0247 9.23572 18.4743C9.84291 18.9239 10.5747 19.1739 11.33 19.19C10.0436 20.1906 8.45973 20.7327 6.83 20.73C6.5402 20.7452 6.24979 20.7452 5.95999 20.73C7.51607 21.7341 9.31389 22.3005 11.1645 22.3698C13.0151 22.439 14.8502 22.0085 16.477 21.1235C18.1038 20.2385 19.4621 18.9317 20.4093 17.3404C21.3566 15.749 21.8577 13.9319 21.86 12.08C21.86 11.92 21.86 11.77 21.86 11.61C22.5614 11.0897 23.1728 10.4579 23.67 9.73996L23.66 9.70999Z" fill="#1E2024"/>
</svg>
