<svg width="30" height="30" viewBox="0 0 30 30" fill="none" xmlns="http://www.w3.org/2000/svg">
<path d="M30 15C30 23.2843 23.2843 30 15 30C6.71573 30 0 23.2843 0 15C0 6.71573 6.71573 0 15 0C23.2843 0 30 6.71573 30 15Z" fill="#7889A6"/>
<path d="M19.21 6.11999V8.93999H17.54C17.3182 8.91135 17.0928 8.93043 16.8789 8.99596C16.6651 9.0615 16.4677 9.17199 16.3 9.32C16.0649 9.65543 15.9519 10.0613 15.98 10.47V12.47H19.11L18.69 15.62H15.98V23.71H12.72V15.62H9.99999V12.47H12.72V10.1399C12.6855 9.57955 12.7662 9.01805 12.9571 8.49004C13.148 7.96204 13.4451 7.47877 13.83 7.07C14.2284 6.69212 14.7004 6.40029 15.2166 6.21276C15.7327 6.02523 16.2819 5.946 16.83 5.97997C17.6417 5.96707 18.4535 6.00715 19.26 6.09997L19.21 6.11999Z" fill="#191E24"/>
</svg>
