<svg width="30" height="30" viewBox="0 0 30 30" fill="none" xmlns="http://www.w3.org/2000/svg">
<path d="M30 15C30 23.2843 23.2843 30 15 30C6.71573 30 0 23.2843 0 15C0 6.71573 6.71573 0 15 0C23.2843 0 30 6.71573 30 15Z" fill="#7889A6"/>
<path d="M22.72 13.33C21.2772 13.3257 19.8743 12.8557 18.72 11.99V18.07C18.6691 19.1179 18.3118 20.1279 17.6923 20.9747C17.0728 21.8215 16.2184 22.4678 15.2351 22.8336C14.2517 23.1994 13.1826 23.2686 12.1603 23.0326C11.1381 22.7965 10.2075 22.2656 9.48411 21.5057C8.7607 20.7458 8.27622 19.7903 8.09074 18.7576C7.90526 17.7249 8.02692 16.6605 8.44065 15.6963C8.85439 14.7321 9.542 13.9107 10.4182 13.3336C11.2945 12.7565 12.3208 12.4493 13.37 12.45C13.6582 12.448 13.9459 12.4715 14.23 12.52V15.75C13.9632 15.6423 13.6778 15.5879 13.39 15.59C12.8892 15.566 12.3926 15.6926 11.9644 15.9535C11.5361 16.2143 11.1958 16.5974 10.9873 17.0534C10.7788 17.5094 10.7117 18.0174 10.7945 18.5119C10.8774 19.0065 11.1065 19.4648 11.4522 19.828C11.798 20.1911 12.2446 20.4424 12.7345 20.5493C13.2244 20.6563 13.7351 20.6141 14.2007 20.4282C14.6664 20.2423 15.0657 19.9211 15.3472 19.5061C15.6287 19.0912 15.7794 18.6014 15.78 18.1V6.00003H18.78C18.7531 7.08847 19.1592 8.14309 19.9092 8.9324C20.6591 9.72172 21.6916 10.1812 22.78 10.21V13.33" fill="#191E24"/>
</svg>
