<svg width="30" height="30" viewBox="0 0 30 30" fill="none" xmlns="http://www.w3.org/2000/svg">
<path d="M30 15C30 23.2843 23.2843 30 15 30C6.71573 30 0 23.2843 0 15C0 6.71573 6.71573 0 15 0C23.2843 0 30 6.71573 30 15Z" fill="#7889A6"/>
<path d="M6 11C6 9.89543 6.89543 9 8 9H22C23.1046 9 24 9.89543 24 11V19C24 20.1046 23.1046 21 22 21H8C6.89543 21 6 20.1046 6 19V11Z" fill="#191E24"/>
<path d="M17.5 14.134C18.1667 14.5189 18.1667 15.4811 17.5 15.866L14.5 17.5981C13.8333 17.983 13 17.5019 13 16.732V13.2679C13 12.4981 13.8333 12.017 14.5 12.4019L17.5 14.134Z" fill="#ABB6CA"/>
</svg>
