<svg width="30" height="30" viewBox="0 0 30 30" fill="none" xmlns="http://www.w3.org/2000/svg">
<circle cx="15" cy="15" r="15" fill="#7889A6"/>
<path d="M15 6.5C19.6944 6.5 23.5 10.3056 23.5 15C23.5 19.6944 19.6944 23.5 15 23.5H6.5V15C6.5 10.3056 10.3056 6.5 15 6.5Z" fill="#7889A6" stroke="#191E24"/>
<g clip-path="url(#clip0_1_5993)">
<path d="M17.1671 15.1406C17.6541 15.1434 18.1202 15.349 18.4637 15.7125C18.8071 16.0761 18.9999 16.5679 18.9999 17.0806V17.1119C18.9826 17.6063 18.788 18.0755 18.4553 18.4248C18.1225 18.7742 17.6764 18.9778 17.2067 18.9946H16.7757C15.3426 18.8732 13.9845 18.2698 12.9021 17.2736C11.7551 16.1456 11.0784 14.5858 11.0197 12.9346C11.0164 12.6847 11.0604 12.4367 11.1491 12.2049C11.2378 11.9731 11.3695 11.7623 11.5364 11.5846C11.7033 11.407 11.9021 11.2661 12.1213 11.1701C12.3404 11.0742 12.5755 11.0252 12.8129 11.0259C13.054 11.0259 13.2927 11.076 13.5154 11.1733C13.7381 11.2706 13.9404 11.4132 14.1106 11.5929C14.2809 11.7726 14.4158 11.986 14.5076 12.2207C14.5994 12.4554 14.6464 12.7069 14.6457 12.9607C14.6477 13.3178 14.5489 13.6675 14.362 13.9655C14.175 14.2635 13.9083 14.4964 13.5956 14.6347C13.8124 14.9982 14.0702 15.3326 14.3634 15.6309C14.693 15.9616 15.071 16.2345 15.4829 16.4392C15.5976 16.0696 15.8203 15.7475 16.1192 15.519C16.4181 15.2905 16.7779 15.1672 17.1473 15.1667L17.1671 15.1406Z" fill="#1E2024"/>
</g>
<defs>
<clipPath id="clip0_1_5993">
<rect width="8" height="8" fill="white" transform="translate(11 11)"/>
</clipPath>
</defs>
</svg>
