<svg width="375" height="201" viewBox="0 0 375 201" fill="none" xmlns="http://www.w3.org/2000/svg">
<mask id="mask0_1_11776" style="mask-type:alpha" maskUnits="userSpaceOnUse" x="0" y="0" width="375" height="201">
<path d="M0 0H375V201H0V0Z" fill="url(#paint0_linear_1_11776)"/>
</mask>
<g mask="url(#mask0_1_11776)">
<path fill-rule="evenodd" clip-rule="evenodd" d="M-9.71489 93.7317L187.15 290.596L384.014 93.7317L187.15 -103.133L-9.71489 93.7317ZM-47.8987 86.6606C-51.8039 90.5659 -51.8039 96.8975 -47.8987 100.803L180.078 328.78C183.984 332.685 190.315 332.685 194.221 328.78L422.198 100.803C426.103 96.8975 426.103 90.5659 422.198 86.6606L194.221 -141.317C190.315 -145.222 183.984 -145.222 180.078 -141.317L-47.8987 86.6606Z" fill="white" fill-opacity="0.04"/>
<path fill-rule="evenodd" clip-rule="evenodd" d="M69.7696 93.7317L187.149 211.111L304.529 93.7317L187.149 -23.648L69.7696 93.7317ZM40.0711 86.6606C36.1658 90.5659 36.1658 96.8975 40.0711 100.803L180.078 240.81C183.983 244.715 190.315 244.715 194.22 240.81L334.227 100.803C338.133 96.8975 338.133 90.5659 334.227 86.6606L194.22 -53.3465C190.315 -57.2518 183.983 -57.2518 180.078 -53.3465L40.0711 86.6606Z" fill="white" fill-opacity="0.04"/>
<path fill-rule="evenodd" clip-rule="evenodd" d="M182.782 20.387L114.387 88.7819C111.653 91.5156 111.653 95.9478 114.387 98.6814L182.782 167.076C185.515 169.81 189.947 169.81 192.681 167.076L261.076 98.6814C263.81 95.9478 263.81 91.5156 261.076 88.7819L192.681 20.387C189.947 17.6533 185.515 17.6533 182.782 20.387ZM112.265 86.6606C108.36 90.5659 108.36 96.8975 112.265 100.803L180.66 169.198C184.566 173.103 190.897 173.103 194.802 169.198L263.197 100.803C267.103 96.8975 267.103 90.5659 263.197 86.6606L194.802 18.2657C190.897 14.3605 184.566 14.3604 180.66 18.2657L112.265 86.6606Z" fill="white" fill-opacity="0.04"/>
<path fill-rule="evenodd" clip-rule="evenodd" d="M146.822 93.7317L187.731 134.641L228.641 93.7317L187.731 52.8219L146.822 93.7317ZM131.265 86.6606C127.36 90.5659 127.36 96.8975 131.265 100.803L180.66 150.198C184.566 154.103 190.897 154.103 194.803 150.198L244.198 100.803C248.103 96.8975 248.103 90.5659 244.198 86.6606L194.803 37.2656C190.897 33.3604 184.566 33.3604 180.66 37.2656L131.265 86.6606Z" fill="white" fill-opacity="0.04"/>
</g>
<defs>
<linearGradient id="paint0_linear_1_11776" x1="-2.27625e-06" y1="101.005" x2="375" y2="101.005" gradientUnits="userSpaceOnUse">
<stop stop-color="#C92B37"/>
<stop offset="1" stop-color="#F3B61B"/>
</linearGradient>
</defs>
</svg>
