<svg width="325" height="204" viewBox="0 0 325 204" fill="none" xmlns="http://www.w3.org/2000/svg">
<g opacity="0.4">
<mask id="mask0_1_13243" style="mask-type:alpha" maskUnits="userSpaceOnUse" x="0" y="0" width="325" height="204">
<path d="M0 0H325V204H0V0Z" fill="url(#paint0_linear_1_13243)"/>
</mask>
<g mask="url(#mask0_1_13243)">
<path fill-rule="evenodd" clip-rule="evenodd" d="M-8.41977 117.234L162.196 287.85L332.812 117.234L162.196 -53.3815L-8.41977 117.234ZM-41.5124 111.106C-44.8969 114.491 -44.8969 119.978 -41.5124 123.363L156.068 320.943C159.452 324.327 164.94 324.327 168.324 320.943L365.905 123.363C369.289 119.978 369.289 114.491 365.905 111.106L168.324 -86.4741C164.94 -89.8586 159.452 -89.8586 156.068 -86.4741L-41.5124 111.106Z" fill="white" fill-opacity="0.04"/>
<path fill-rule="evenodd" clip-rule="evenodd" d="M60.4666 117.234L162.196 218.963L263.925 117.234L162.196 15.5053L60.4666 117.234ZM34.7279 111.106C31.3433 114.491 31.3433 119.978 34.7279 123.363L156.067 244.702C159.452 248.087 164.939 248.087 168.324 244.702L289.663 123.363C293.048 119.978 293.048 114.491 289.663 111.106L168.324 -10.2334C164.939 -13.6179 159.452 -13.6179 156.067 -10.2334L34.7279 111.106Z" fill="white" fill-opacity="0.04"/>
<path fill-rule="evenodd" clip-rule="evenodd" d="M158.41 53.669L99.1347 112.945C96.7655 115.314 96.7655 119.155 99.1347 121.524L158.41 180.8C160.779 183.169 164.621 183.169 166.99 180.8L226.265 121.524C228.635 119.155 228.635 115.314 226.265 112.945L166.99 53.669C164.621 51.2998 160.779 51.2998 158.41 53.669ZM97.2962 111.106C93.9117 114.491 93.9117 119.978 97.2962 123.363L156.572 182.638C159.956 186.023 165.444 186.023 168.828 182.638L228.104 123.363C231.488 119.978 231.489 114.491 228.104 111.106L168.828 51.8305C165.444 48.446 159.956 48.446 156.572 51.8305L97.2962 111.106Z" fill="white" fill-opacity="0.04"/>
<path fill-rule="evenodd" clip-rule="evenodd" d="M127.245 117.234L162.7 152.689L198.155 117.234L162.7 81.7793L127.245 117.234ZM113.763 111.106C110.378 114.491 110.378 119.978 113.763 123.363L156.572 166.172C159.957 169.556 165.444 169.556 168.829 166.172L211.638 123.363C215.022 119.978 215.022 114.491 211.638 111.106L168.829 68.2971C165.444 64.9126 159.957 64.9125 156.572 68.2971L113.763 111.106Z" fill="white" fill-opacity="0.04"/>
</g>
</g>
<defs>
<linearGradient id="paint0_linear_1_13243" x1="-1.97275e-06" y1="102.513" x2="325" y2="102.513" gradientUnits="userSpaceOnUse">
<stop stop-color="#C92B37"/>
<stop offset="1" stop-color="#F3B61B"/>
</linearGradient>
</defs>
</svg>
