<svg width="13" height="14" viewBox="0 0 13 14" fill="none" xmlns="http://www.w3.org/2000/svg">
<path d="M5.96196 1.09019C6.18205 0.644242 6.81795 0.644244 7.03804 1.09019L8.56459 4.18332C8.65199 4.36041 8.82093 4.48315 9.01636 4.51155L12.4298 5.00755C12.922 5.07906 13.1185 5.68385 12.7624 6.03097L10.2923 8.43863C10.1509 8.57648 10.0864 8.77508 10.1198 8.96971L10.7029 12.3694C10.7869 12.8595 10.2725 13.2333 9.83231 13.0019L6.7792 11.3968C6.60441 11.3049 6.39559 11.3049 6.2208 11.3968L3.1677 13.0019C2.72752 13.2333 2.21306 12.8595 2.29712 12.3694L2.88021 8.96971C2.9136 8.77508 2.84907 8.57648 2.70766 8.43863L0.237647 6.03097C-0.118463 5.68385 0.0780415 5.07906 0.570174 5.00755L3.98364 4.51155C4.17907 4.48315 4.34801 4.36041 4.43541 4.18332L5.96196 1.09019Z" fill="#FFF500"/>
</svg>
