<svg width="44" height="16" viewBox="0 0 44 16" fill="none" xmlns="http://www.w3.org/2000/svg">
<path d="M37.3876 0.883789C37.7177 0.869662 38.0416 0.995615 38.2928 1.23535L42.871 5.60547L42.9188 5.66309L38.536 2.28125C38.4135 2.18674 38.2544 2.13752 38.0917 2.14453L2.02332 3.7041C1.67176 3.7193 1.39747 3.98556 1.41101 4.29883L1.79773 13.2324C1.81127 13.5457 2.1073 13.7877 2.45886 13.7725L38.5272 12.2139C38.6898 12.2067 38.8441 12.1437 38.9579 12.0391L43.2382 8.10156L42.994 8.45508L38.8104 13.2031C38.5807 13.4638 38.2686 13.6175 37.9384 13.6318L1.84851 15.1914C1.1322 15.2224 0.523368 14.6055 0.489136 13.8135L0.0623779 3.93457C0.0281971 3.14259 0.581452 2.47529 1.29773 2.44434L37.3876 0.883789Z" fill="url(#paint0_linear_1_6034)"/>
<defs>
<linearGradient id="paint0_linear_1_6034" x1="0.0420826" y1="3.45582" x2="43.9441" y2="6.20533" gradientUnits="userSpaceOnUse">
<stop stop-color="#FF8A00"/>
<stop offset="0.5" stop-color="#FFC32C"/>
<stop offset="0.725" stop-color="#FFC833"/>
<stop offset="1" stop-color="#FFAD1D"/>
</linearGradient>
</defs>
</svg>
