<svg width="46" height="16" viewBox="0 0 46 16" fill="none" xmlns="http://www.w3.org/2000/svg">
<path d="M38.3783 0.684599C38.766 0.667958 39.1417 0.816399 39.4301 1.09171L44.0088 5.46156L44.0169 5.46902L44.0242 5.47848L44.4274 5.96446L44.5134 6.07804C44.8885 6.6196 44.9205 7.35797 44.5935 7.92982L44.5175 8.04943L44.1578 8.56935L44.1513 8.57843L44.1439 8.58754L39.9593 13.3361C39.6957 13.6352 39.3341 13.8146 38.9465 13.8315L2.85621 15.3913C2.01137 15.4277 1.32725 14.7056 1.28897 13.8228L0.861978 3.94334C0.823819 3.06044 1.4431 2.28116 2.288 2.24444L38.3783 0.684599Z" stroke="white" stroke-width="0.4"/>
</svg>
