<svg width="35" height="9" viewBox="0 0 35 9" fill="none" xmlns="http://www.w3.org/2000/svg">
<path d="M3.93506 0.593262C4.55961 0.56627 5.02607 0.573115 5.3335 0.61377C5.64415 0.650713 5.92291 0.747241 6.17041 0.901855C6.42164 1.05643 6.63463 1.26818 6.80811 1.5376C6.98133 1.80337 7.0756 2.10684 7.09033 2.44775C7.10629 2.81733 7.02005 3.16074 6.83252 3.47803C6.64852 3.79512 6.38929 4.03844 6.05518 4.20752C6.54208 4.32674 6.92185 4.55029 7.19482 4.87646C7.46774 5.20267 7.61458 5.59355 7.63428 6.04932C7.64977 6.40817 7.58017 6.76166 7.42627 7.10986C7.27576 7.45436 7.05967 7.73548 6.77783 7.95264C6.49944 8.166 6.14941 8.30561 5.72803 8.37061C5.46367 8.4108 4.82342 8.45625 3.80811 8.50732L1.12061 8.62354L0.779785 0.72998L3.93506 0.593262ZM11.4165 2.3208C12.2814 2.28351 13.0025 2.53415 13.5796 3.07373C14.1565 3.60976 14.4634 4.30678 14.5005 5.16455C14.5379 6.02963 14.2887 6.76004 13.7534 7.35498C13.2216 7.94604 12.5321 8.25978 11.6851 8.29639C11.161 8.31903 10.6551 8.2226 10.1675 8.00635C9.68357 7.78998 9.30789 7.45912 9.04053 7.01416C8.77299 6.5654 8.62458 6.01187 8.59619 5.35498C8.57452 4.85265 8.67759 4.36111 8.90479 3.88037C9.13214 3.39944 9.46711 3.02455 9.90869 2.75732C10.3538 2.49011 10.8567 2.34499 11.4165 2.3208ZM18.8433 1.99854C19.1769 1.98413 19.4846 2.03209 19.7661 2.14209C20.0475 2.24856 20.2626 2.39224 20.4106 2.57275C20.5623 2.7532 20.6698 2.96122 20.7339 3.1958C20.8015 3.43022 20.8457 3.76802 20.8647 4.20947L21.0181 7.76318L19.5054 7.82861L19.3794 4.91064C19.3527 4.29324 19.3023 3.89592 19.23 3.71924C19.1575 3.53897 19.0456 3.40127 18.894 3.30713C18.7462 3.21301 18.5701 3.17041 18.3657 3.1792C18.1037 3.19052 17.8714 3.27271 17.6694 3.42529C17.4676 3.57781 17.3319 3.77399 17.2632 4.01416C17.198 4.25433 17.1799 4.69456 17.2075 5.3335L17.3188 7.92334L15.8062 7.98877L15.5591 2.27002L16.9644 2.20947L17.0005 3.04932C17.4715 2.3817 18.0859 2.03127 18.8433 1.99854ZM27.7251 7.47314L26.3198 7.53369L26.2827 6.67725C26.0878 6.99121 25.8239 7.24349 25.4907 7.43408C25.1609 7.62455 24.8071 7.72834 24.4302 7.74463C24.0462 7.76119 23.6976 7.69211 23.3853 7.53662C23.073 7.3811 22.8424 7.15316 22.6929 6.854C22.5433 6.55487 22.4564 6.13633 22.4331 5.59814L22.2769 1.979L23.7896 1.91357L23.9038 4.5415C23.9386 5.34556 23.9866 5.8383 24.0483 6.01904C24.1135 6.1958 24.222 6.33477 24.3735 6.43604C24.5252 6.53377 24.7148 6.57764 24.9409 6.56787C25.1992 6.55664 25.428 6.47738 25.6265 6.32861C25.8247 6.17629 25.9565 5.99398 26.0229 5.78271C26.0892 5.56767 26.1052 5.05035 26.0698 4.23193L25.9653 1.81982L27.478 1.75439L27.7251 7.47314ZM31.1284 1.46924C31.9108 1.43544 32.4977 1.53749 32.8892 1.77588C33.2807 2.01429 33.559 2.37982 33.7241 2.87256L32.3091 3.19775C32.2385 2.978 32.1143 2.81265 31.937 2.70166C31.7632 2.5905 31.5175 2.54152 31.2017 2.55518C30.8035 2.57243 30.5205 2.6406 30.353 2.75928C30.2417 2.84319 30.1884 2.94816 30.1938 3.07373C30.1985 3.18132 30.2533 3.27031 30.3569 3.34131C30.4977 3.43591 30.9738 3.55824 31.7856 3.70654C32.6011 3.85468 33.1744 4.05439 33.5054 4.30615C33.8328 4.56167 34.007 4.92977 34.0278 5.41064C34.0505 5.93472 33.8508 6.3947 33.4292 6.79053C33.0076 7.18627 32.3681 7.40287 31.5103 7.43994C30.7314 7.47359 30.1067 7.34255 29.6372 7.04639C29.1716 6.75015 28.8573 6.33396 28.6938 5.79834L30.2017 5.50049C30.279 5.79204 30.4204 6.01092 30.6245 6.15674C30.8284 6.29886 31.1081 6.36252 31.4634 6.34717C31.8544 6.33024 32.1452 6.24528 32.3364 6.09326C32.4649 5.98703 32.5263 5.84983 32.519 5.68115C32.5141 5.5665 32.4737 5.4731 32.3989 5.40088C32.3205 5.33238 32.1487 5.27282 31.8843 5.22314C30.6524 5.00672 29.8681 4.79385 29.5317 4.58545C29.0662 4.29638 28.8212 3.87759 28.7974 3.32861C28.776 2.83326 28.9539 2.40755 29.3306 2.05322C29.7073 1.69914 30.3067 1.50475 31.1284 1.46924ZM3.85303 5.05811L2.56592 5.11377L2.65674 7.22412L4.13232 7.16064C4.70632 7.13584 5.07003 7.10389 5.22314 7.06494C5.45805 7.01166 5.64564 6.89933 5.78564 6.72803C5.92905 6.55288 5.99494 6.32523 5.98291 6.04541C5.97267 5.80856 5.90661 5.60984 5.78467 5.44971C5.66267 5.28955 5.49029 5.17578 5.26807 5.10986C5.04925 5.04391 4.5775 5.0268 3.85303 5.05811ZM11.4751 3.55322C11.0804 3.57028 10.7547 3.73535 10.4985 4.04834C10.2424 4.36144 10.1264 4.80164 10.1509 5.36865C10.1754 5.9358 10.3286 6.3649 10.6108 6.65479C10.8931 6.94456 11.2317 7.08103 11.6265 7.06396C12.0212 7.04691 12.3446 6.88162 12.5972 6.56885C12.8533 6.25576 12.9696 5.81193 12.9448 5.23779C12.9206 4.67782 12.7671 4.25229 12.4849 3.9624C12.2063 3.67257 11.8697 3.53626 11.4751 3.55322ZM4.70947 1.90283C4.55076 1.89171 4.09543 1.90263 3.34521 1.93506L2.43018 1.9751L2.50928 3.80029L3.5542 3.75537C4.17496 3.72854 4.5605 3.70268 4.71045 3.67822C4.98178 3.63411 5.1917 3.5316 5.33936 3.37061C5.49043 3.20585 5.56033 2.99554 5.54932 2.74072C5.53875 2.49678 5.46164 2.30254 5.31885 2.15771C5.17943 2.00917 4.97631 1.92371 4.70947 1.90283Z" fill="url(#paint0_linear_1_6040)"/>
<defs>
<linearGradient id="paint0_linear_1_6040" x1="17.4047" y1="0.577637" x2="17.4047" y2="8.62308" gradientUnits="userSpaceOnUse">
<stop offset="0.015" stop-color="#FFF08E"/>
<stop offset="0.5799" stop-color="#FFF4AC"/>
<stop offset="0.58" stop-color="#EFA347"/>
</linearGradient>
</defs>
</svg>
