<svg width="214" height="37" viewBox="0 0 214 37" fill="none" xmlns="http://www.w3.org/2000/svg">
<g filter="url(#filter0_dd_1_57464)">
<path fill-rule="evenodd" clip-rule="evenodd" d="M100.841 16.0125C104.709 16.0291 106.926 13.1868 106.926 8.03107C106.942 2.87535 104.855 0.0165968 100.922 7.20677e-05C96.9899 -0.0164527 94.8538 2.80929 94.8214 7.965C94.7891 13.1207 96.9737 15.996 100.841 16.0125ZM100.858 13.1537C99.2878 13.1372 98.6729 11.6335 98.6729 8.03107V7.98149C98.689 4.32953 99.3687 2.90841 100.906 2.92493C102.443 2.94146 103.074 4.44522 103.058 8.04761C103.042 11.65 102.427 13.1703 100.858 13.1537Z" fill="white"/>
<path fill-rule="evenodd" clip-rule="evenodd" d="M93.1059 7.99762C93.2353 13.1699 91.164 16.0782 87.2802 16.26C83.3964 16.4418 81.1308 13.583 80.9852 8.42728C80.8396 3.27156 82.8947 0.379731 86.8271 0.264058C90.7594 0.148384 93.0088 2.8419 93.1059 7.99762ZM84.8528 8.24548C84.9499 11.8479 85.6296 13.3516 87.1993 13.302C88.769 13.2525 89.3353 11.6496 89.2382 8.1133C89.1411 4.57701 88.4615 3.02366 86.908 3.07323C85.3545 3.12281 84.8204 4.62656 84.9175 8.24548H84.8528Z" fill="white"/>
<path d="M76.0819 16.5582L75.1433 0.810128L68.1524 1.3059L68.3628 4.61085L71.3242 4.42905L72.0524 16.8061L76.0819 16.5582Z" fill="white"/>
<path fill-rule="evenodd" clip-rule="evenodd" d="M65.9357 7.02286L64.3175 7.18812V7.9317L66.0328 7.76645L66.1946 9.41892L64.2204 9.61726C63.7511 12.1951 61.793 13.8145 58.6375 14.1285L55.9188 14.3929L56.2748 18.111L52.2453 18.5076L51.5171 10.9392L49.8018 11.121L49.64 9.46849L51.3553 9.30328L51.2744 8.57619L49.559 8.74145L49.4134 7.08898L51.1125 6.90718L50.7404 2.99083L57.4885 2.32985C60.725 2.01588 62.8935 3.22218 63.7997 5.63479L65.7901 5.4365L65.9357 7.02286ZM55.0611 5.51911L55.142 6.5106L59.8187 6.04791C59.4658 5.72333 59.0437 5.48711 58.5858 5.35804C58.128 5.22896 57.647 5.21057 57.181 5.30428L55.0611 5.51911ZM55.3686 8.82405L60.5955 8.29525C60.6112 8.13039 60.6112 7.96439 60.5955 7.79953C60.6045 7.66198 60.6045 7.52396 60.5955 7.38641L55.3686 7.89867V8.82405ZM60.2233 9.83204L55.5627 10.2947L55.6598 11.2862L57.7798 11.0714C58.238 11.0719 58.6906 10.9684 59.1048 10.7684C59.519 10.5683 59.8845 10.2767 60.1748 9.91469L60.2233 9.83204Z" fill="white"/>
<path d="M40.2056 20.3917C41.3157 20.2341 42.3682 19.7906 43.2641 19.1028L42.1151 16.3597C41.6858 16.6523 41.2091 16.8649 40.7072 16.9877C40.0437 17.1034 39.5906 16.7728 39.4612 15.8805L38.7815 11.3362L41.84 10.857L41.4516 8.22954L38.3931 8.70878L37.9077 5.40383L34.04 5.99875L34.5417 9.30369L32.9234 9.55155L33.3118 12.179L34.93 11.9311L35.6906 17.0868C35.7335 17.6249 35.8906 18.1469 36.1509 18.6167C36.4113 19.0865 36.7687 19.4927 37.1984 19.8072C37.628 20.1217 38.1196 20.337 38.6389 20.4379C39.1582 20.5389 39.6928 20.5231 40.2056 20.3917Z" fill="white"/>
<path d="M15.1064 16.7063L18.4885 15.88L19.8802 21.9281C18.2983 23.6186 16.2867 24.8259 14.0707 25.4148C13.044 25.712 11.969 25.794 10.9105 25.656C9.85189 25.5179 8.8316 25.1627 7.91096 24.6116C6.99032 24.0605 6.18833 23.3249 5.55327 22.4492C4.91821 21.5734 4.4632 20.5755 4.21558 19.5155C3.1799 15.0373 5.96329 10.8565 10.6886 9.69979C12.9445 9.16684 15.3115 9.44709 17.3881 10.493L15.7699 13.7979C14.4508 13.0148 12.8971 12.7504 11.4006 13.0543C10.3037 13.3828 9.3726 14.1297 8.80039 15.1402C8.22818 16.1508 8.0587 17.3474 8.32713 18.4821C8.59556 19.6167 9.28127 20.6024 10.2421 21.2347C11.203 21.8671 12.3653 22.0976 13.4881 21.8785C14.3846 21.6137 15.2132 21.1511 15.9155 20.5235L15.1064 16.7063Z" fill="white"/>
<path fill-rule="evenodd" clip-rule="evenodd" d="M32.8911 16.2271L24.7999 17.7805C25.0342 18.3785 25.4682 18.8725 26.025 19.1749C26.5819 19.4774 27.2257 19.5688 27.8422 19.4329C28.3571 19.3298 28.8467 19.1233 29.2828 18.8255C29.7189 18.5276 30.0928 18.1443 30.3828 17.6979L32.7617 19.3503C32.2422 20.1875 31.5504 20.899 30.7344 21.4355C29.9183 21.972 28.9977 22.3205 28.0364 22.4569C27.235 22.69 26.3935 22.7428 25.5702 22.6117C24.7469 22.4806 23.9612 22.1686 23.2674 21.6973C22.5736 21.226 21.9881 20.6067 21.5514 19.882C21.1148 19.1572 20.8373 18.3444 20.7381 17.4995C20.5422 16.6796 20.519 15.8265 20.6699 14.9968C20.8208 14.167 21.1425 13.3793 21.6136 12.6859C22.0847 11.9924 22.6945 11.4089 23.4027 10.9739C24.111 10.539 24.9016 10.2624 25.7223 10.1625C29.7517 9.4024 32.3571 11.815 32.8911 16.2271ZM28.7808 14.839C28.7468 14.5343 28.6507 14.2403 28.4988 13.9758C28.3468 13.7112 28.1423 13.4821 27.8985 13.3031C27.6546 13.1241 27.3767 12.9992 27.0828 12.9365C26.7888 12.8737 26.4852 12.8745 26.1916 12.9387C25.5943 13.07 25.0663 13.4237 24.7103 13.9307C24.3543 14.4378 24.1959 15.062 24.2658 15.6818L28.7808 14.839Z" fill="white"/>
<path fill-rule="evenodd" clip-rule="evenodd" d="M120.616 8.41065C120.454 13.5664 118.205 16.3591 114.337 16.2269C110.47 16.0947 108.35 13.1698 108.512 7.9645C108.673 2.75921 110.891 0.0491544 114.823 0.164827C118.755 0.280501 120.762 3.25494 120.616 8.41065ZM112.363 8.14625C112.266 11.7486 112.849 13.2689 114.418 13.335C115.988 13.4011 116.651 11.8809 116.765 8.27848C116.878 4.67608 116.279 3.1558 114.726 3.10623C113.172 3.05665 112.525 4.52733 112.347 8.14625H112.363Z" fill="white"/>
<path d="M134.533 5.60167V4.80851C134.537 4.64574 134.573 4.48537 134.638 4.33664C134.702 4.18791 134.795 4.05371 134.911 3.94168C135.027 3.82965 135.163 3.74203 135.312 3.68378C135.461 3.62553 135.62 3.59779 135.779 3.60219C136.269 3.66379 136.73 3.87064 137.106 4.1971L138.724 1.47048C137.752 0.832774 136.64 0.452303 135.488 0.363355C134.919 0.249331 134.332 0.2605 133.768 0.396185C133.203 0.53187 132.674 0.788951 132.214 1.15021C131.755 1.51146 131.376 1.96862 131.104 2.49118C130.831 3.01373 130.67 3.58967 130.633 4.18056V5.30423L129.015 5.18855L128.82 7.84906L130.439 7.96474L129.824 16.8881L133.708 17.169L134.339 8.24563L136.976 8.44392L137.171 5.78346L134.533 5.60167Z" fill="white"/>
<path fill-rule="evenodd" clip-rule="evenodd" d="M149.923 12.592C149.865 13.4528 149.628 14.2912 149.229 15.0516C148.83 15.8119 148.276 16.4768 147.606 17.0019C146.936 17.5271 146.163 17.9006 145.341 18.0975C144.518 18.2945 143.664 18.3104 142.835 18.1442C138.918 17.7477 136.588 15.0211 136.96 11.2865C137.333 7.55191 140.116 5.35411 144.032 5.7507C147.948 6.1473 150.295 8.85737 149.923 12.592ZM140.877 11.7162C140.898 12.2225 141.061 12.7119 141.347 13.1262C141.632 13.5404 142.029 13.8621 142.489 14.0529C142.948 14.2437 143.452 14.2956 143.94 14.2023C144.428 14.1091 144.879 13.8746 145.24 13.5269C145.601 13.1792 145.856 12.7329 145.976 12.2411C146.096 11.7493 146.075 11.2327 145.915 10.7529C145.755 10.2731 145.464 9.85023 145.076 9.53468C144.687 9.21913 144.218 9.02418 143.725 8.97304C143.359 8.94562 142.991 8.99595 142.645 9.12085C142.3 9.24576 141.983 9.44251 141.715 9.69872C141.448 9.95494 141.235 10.265 141.091 10.6094C140.946 10.9538 140.873 11.325 140.877 11.6996V11.7162Z" fill="white"/>
<path d="M159.972 11.2866L160.441 7.63463C159.675 7.51372 158.891 7.60479 158.171 7.89832C157.451 8.19186 156.821 8.67714 156.347 9.30364L156.606 7.28762L152.706 6.77536L151.169 18.8549L155.069 19.3837L155.862 13.22C156.266 11.5675 157.836 10.7743 159.972 11.2866Z" fill="white"/>
<path d="M173.582 9.81562L173.452 10.5923L176.058 11.0715L175.621 13.6824L173.015 13.2197L171.494 22.0274L167.659 21.3333L169.164 12.5918L167.546 12.3108L167.983 9.69994L169.601 9.98088L169.779 8.8737C169.876 8.28797 170.093 7.73002 170.418 7.23701C170.742 6.74401 171.166 6.32726 171.661 6.01455C172.155 5.70184 172.709 5.50034 173.286 5.42347C173.863 5.3466 174.449 5.39613 175.006 5.56876C176.184 5.7684 177.296 6.26224 178.242 7.0064L176.414 9.56776C176.077 9.19811 175.636 8.94411 175.151 8.84067C174.986 8.78882 174.811 8.77339 174.639 8.79543C174.466 8.81748 174.301 8.87647 174.152 8.96856C174.004 9.06064 173.877 9.18375 173.778 9.32973C173.68 9.47572 173.613 9.64131 173.582 9.81562Z" fill="white"/>
<path d="M184.634 15.8306L185.346 12.2282C184.59 12.0525 183.801 12.0887 183.064 12.3331C182.326 12.5774 181.667 13.0208 181.155 13.6162L181.56 11.6333L177.708 10.8401L175.329 22.7709L179.181 23.5642L180.395 17.483C180.912 15.8306 182.531 15.153 184.634 15.8306Z" fill="white"/>
<path fill-rule="evenodd" clip-rule="evenodd" d="M196.577 22.5068L188.485 20.5072C188.476 21.1443 188.684 21.7649 189.074 22.2625C189.463 22.76 190.011 23.1034 190.621 23.2338C191.132 23.3542 191.662 23.3694 192.179 23.2786C192.695 23.1878 193.189 22.9929 193.631 22.705L195.136 25.2498C194.325 25.791 193.409 26.1454 192.45 26.2881C191.492 26.4307 190.514 26.3584 189.586 26.0761C188.767 25.9525 187.983 25.6506 187.288 25.1907C186.593 24.7309 186.003 24.1239 185.558 23.4109C185.113 22.6978 184.823 21.8954 184.709 21.058C184.594 20.2206 184.657 19.3678 184.893 18.5573C185.045 17.7284 185.367 16.9419 185.839 16.2495C186.31 15.5571 186.92 14.9746 187.628 14.5405C188.336 14.1064 189.126 13.8305 189.946 13.7311C190.766 13.6316 191.597 13.7108 192.385 13.9634C196.48 14.988 197.855 18.2764 196.577 22.5068ZM193.34 19.5158C193.435 19.2228 193.468 18.9125 193.436 18.6055C193.404 18.2986 193.309 18.0022 193.155 17.7361C193.002 17.4701 192.795 17.2406 192.548 17.063C192.3 16.8854 192.019 16.7639 191.722 16.7066C191.132 16.5805 190.516 16.6789 189.992 16.9831C189.467 17.2874 189.07 17.7766 188.874 18.359L193.34 19.5158Z" fill="white"/>
<path fill-rule="evenodd" clip-rule="evenodd" d="M201.448 23.9779L209.377 26.4235C210.898 22.2593 209.62 18.8883 205.688 17.6655C204.912 17.4087 204.094 17.3131 203.282 17.3845C202.47 17.4559 201.68 17.6927 200.959 18.081C200.238 18.4693 199.601 19.0012 199.085 19.6452C198.568 20.2893 198.184 21.0324 197.953 21.8308C197.723 22.6292 197.652 23.4667 197.744 24.2937C197.835 25.1207 198.089 25.9206 198.488 26.646C198.888 27.3714 199.426 28.0077 200.07 28.5173C200.715 29.0268 201.453 29.3993 202.241 29.6128C203.157 29.9399 204.131 30.0619 205.097 29.9706C206.063 29.8794 206.998 29.577 207.84 29.084L206.464 26.4732C205.54 26.992 204.452 27.1167 203.438 26.8201C202.831 26.6623 202.299 26.2905 201.935 25.7704C201.57 25.2502 201.398 24.6153 201.448 23.9779ZM206.53 22.3664C206.544 22.6739 206.494 22.981 206.383 23.2674L201.998 21.8958C202.217 21.3139 202.639 20.8352 203.182 20.5515C203.726 20.2679 204.353 20.1993 204.943 20.359C205.235 20.4378 205.506 20.5788 205.741 20.7725C205.975 20.9663 206.166 21.2085 206.302 21.4832C206.438 21.7579 206.516 22.0589 206.53 22.3664Z" fill="white"/>
</g>
<defs>
<filter id="filter0_dd_1_57464" x="0.970399" y="0" width="212.059" height="36.0592" filterUnits="userSpaceOnUse" color-interpolation-filters="sRGB">
<feFlood flood-opacity="0" result="BackgroundImageFix"/>
<feColorMatrix in="SourceAlpha" type="matrix" values="0 0 0 0 0 0 0 0 0 0 0 0 0 0 0 0 0 0 127 0" result="hardAlpha"/>
<feOffset dy="3.0296"/>
<feGaussianBlur stdDeviation="1.5148"/>
<feComposite in2="hardAlpha" operator="out"/>
<feColorMatrix type="matrix" values="0 0 0 0 0.216667 0 0 0 0 0.0180556 0 0 0 0 0 0 0 0 1 0"/>
<feBlend mode="normal" in2="BackgroundImageFix" result="effect1_dropShadow_1_57464"/>
<feColorMatrix in="SourceAlpha" type="matrix" values="0 0 0 0 0 0 0 0 0 0 0 0 0 0 0 0 0 0 127 0" result="hardAlpha"/>
<feOffset dy="2.2722"/>
<feComposite in2="hardAlpha" operator="out"/>
<feColorMatrix type="matrix" values="0 0 0 0 0.916667 0 0 0 0 0.267361 0 0 0 0 0 0 0 0 1 0"/>
<feBlend mode="normal" in2="effect1_dropShadow_1_57464" result="effect2_dropShadow_1_57464"/>
<feBlend mode="normal" in="SourceGraphic" in2="effect2_dropShadow_1_57464" result="shape"/>
</filter>
</defs>
</svg>
