<svg width="25" height="26" viewBox="0 0 25 26" fill="none" xmlns="http://www.w3.org/2000/svg">
<path d="M19.629 1.25805C19.6291 1.09644 19.5967 0.936494 19.5339 0.787587C19.4711 0.638679 19.3792 0.503865 19.2634 0.391104C19.1476 0.278343 19.0105 0.189924 18.86 0.131065C18.7095 0.0722051 18.5486 0.0440623 18.387 0.0483719C18.2247 0.0440855 18.0632 0.0720973 17.9118 0.130769C17.7603 0.189441 17.6221 0.277624 17.5051 0.390169C17.388 0.502714 17.2945 0.637366 17.2299 0.786356C17.1654 0.935346 17.1311 1.09569 17.129 1.25805V3.66131C17.1311 3.82367 17.1654 3.98396 17.2299 4.13295C17.2945 4.28194 17.388 4.41665 17.5051 4.52919C17.6221 4.64174 17.7603 4.72992 17.9118 4.78859C18.0632 4.84726 18.2247 4.87527 18.387 4.87099C18.5486 4.8753 18.7095 4.84715 18.86 4.78829C19.0105 4.72944 19.1476 4.64102 19.2634 4.52826C19.3792 4.41549 19.4711 4.28068 19.5339 4.13177C19.5967 3.98287 19.6291 3.82292 19.629 3.66131V1.25805Z" fill="url(#paint0_linear_1_10591)"/>
<path d="M13.3871 1.25806C13.3871 0.924403 13.2545 0.604408 13.0186 0.368475C12.7827 0.132542 12.4626 0 12.129 0C11.7953 0 11.4754 0.132542 11.2394 0.368475C11.0035 0.604408 10.871 0.924403 10.871 1.25806V3.66132C10.871 3.99498 11.0035 4.31498 11.2394 4.55091C11.4754 4.78684 11.7953 4.91939 12.129 4.91939C12.4626 4.91939 12.7827 4.78684 13.0186 4.55091C13.2545 4.31498 13.3871 3.99498 13.3871 3.66132V1.25806Z" fill="url(#paint1_linear_1_10591)"/>
<path d="M7.12901 1.25805C7.12693 1.09569 7.09266 0.935346 7.0281 0.786356C6.96354 0.637366 6.87 0.502714 6.75295 0.390169C6.6359 0.277624 6.49769 0.189441 6.34628 0.130769C6.19487 0.0720973 6.03331 0.0440855 5.87099 0.0483719C5.70944 0.0440623 5.54858 0.0722051 5.39807 0.131065C5.24756 0.189924 5.11041 0.278343 4.99465 0.391104C4.87888 0.503865 4.78692 0.638679 4.72412 0.787587C4.66132 0.936494 4.62897 1.09644 4.62903 1.25805V3.66131C4.62897 3.82292 4.66132 3.98287 4.72412 4.13177C4.78692 4.28068 4.87888 4.41549 4.99465 4.52826C5.11041 4.64102 5.24756 4.72944 5.39807 4.78829C5.54858 4.84715 5.70944 4.8753 5.87099 4.87099C6.03331 4.87527 6.19487 4.84726 6.34628 4.78859C6.49769 4.72992 6.6359 4.64174 6.75295 4.52919C6.87 4.41665 6.96354 4.28194 7.0281 4.13295C7.09266 3.98396 7.12693 3.82367 7.12901 3.66131V1.25805Z" fill="url(#paint2_linear_1_10591)"/>
<path d="M21.871 25.8387H22.9677C23.2944 25.8431 23.6096 25.7186 23.8451 25.4921C24.0805 25.2657 24.2173 24.9556 24.2257 24.6291V23.4516C23.6222 24.4079 22.8189 25.2222 21.871 25.8387Z" fill="url(#paint3_linear_1_10591)"/>
<path d="M10.2097 21.2904H4.53226C4.10954 21.2492 3.71723 21.0521 3.43185 20.7375C3.14647 20.423 2.98846 20.0135 2.98846 19.5888C2.98846 19.164 3.14647 18.7545 3.43185 18.44C3.71723 18.1254 4.10954 17.9283 4.53226 17.8871H10.1128C10.2107 17.4131 10.3511 16.9489 10.5322 16.5H4.53226C4.10954 16.4588 3.71723 16.2618 3.43185 15.9472C3.14647 15.6327 2.98846 15.2232 2.98846 14.7984C2.98846 14.3737 3.14647 13.9642 3.43185 13.6496C3.71723 13.3351 4.10954 13.138 4.53226 13.0968H13.2419C14.3918 12.289 15.7427 11.8146 17.1452 11.7259H4.53226C4.07882 11.7259 3.64389 11.5457 3.32327 11.2251C3.00264 10.9044 2.82258 10.4696 2.82258 10.0162C2.82258 9.56274 3.00264 9.12787 3.32327 8.80724C3.64389 8.48661 4.07882 8.30646 4.53226 8.30646H17.8226C18.249 8.32848 18.6517 8.50926 18.9515 8.81324C19.2514 9.11723 19.4267 9.52241 19.4429 9.94909C19.459 10.3758 19.3149 10.7931 19.0389 11.1189C18.763 11.4447 18.3751 11.6555 17.9516 11.7097C19.2279 11.7499 20.474 12.107 21.5778 12.749C22.6816 13.391 23.6083 14.2976 24.2742 15.3871V3.67743C24.2657 3.35086 24.129 3.0408 23.8935 2.81437C23.658 2.58795 23.3427 2.4634 23.0161 2.46775H20.8871V3.67743C20.8871 4.34047 20.6237 4.97639 20.1549 5.44524C19.6861 5.91408 19.0501 6.17746 18.387 6.17746C17.724 6.17746 17.0881 5.91408 16.6193 5.44524C16.1504 4.97639 15.8871 4.34047 15.8871 3.67743V2.4839H14.5968V3.69358C14.5968 4.35662 14.3334 4.99249 13.8645 5.46133C13.3957 5.93017 12.7598 6.19356 12.0968 6.19356C11.4337 6.19356 10.7979 5.93017 10.329 5.46133C9.86018 4.99249 9.5968 4.35662 9.5968 3.69358V2.4839H8.33868V3.69358C8.33868 4.35662 8.0753 4.99249 7.60646 5.46133C7.13762 5.93017 6.50174 6.19356 5.8387 6.19356C5.17566 6.19356 4.53979 5.93017 4.07095 5.46133C3.60211 4.99249 3.33872 4.35662 3.33872 3.69358V2.4839H1.25801C0.931364 2.47955 0.616163 2.60409 0.380682 2.83052C0.145201 3.05694 0.00845617 3.36701 0 3.69358V24.6613C0.00845617 24.9879 0.145201 25.298 0.380682 25.5244C0.616163 25.7508 0.931364 25.8754 1.25801 25.871H13.4194C11.8193 24.7941 10.6757 23.1619 10.2097 21.2904Z" fill="url(#paint4_linear_1_10591)"/>
<path d="M24.2742 18.3065C24.0118 16.7538 23.2091 15.3439 22.0079 14.3257C20.8068 13.3075 19.2843 12.7465 17.7097 12.7419C16.8419 12.7506 15.9833 12.9201 15.1774 13.242C13.6722 13.8607 12.4448 15.0078 11.7258 16.4678C11.4825 16.9814 11.3038 17.5231 11.1936 18.0807C11.102 18.5045 11.0587 18.9374 11.0645 19.371C11.0636 19.9155 11.1341 20.4577 11.2742 20.9839C11.6422 22.4165 12.4754 23.6863 13.6431 24.5942C14.8107 25.502 16.2468 25.9965 17.7258 26C18.2698 25.9933 18.8111 25.923 19.3387 25.7904C20.5863 25.4698 21.7144 24.7952 22.5873 23.8479C23.4601 22.9007 24.0404 21.7212 24.2581 20.4517C24.3237 20.0843 24.3561 19.7119 24.3548 19.3387C24.3572 18.993 24.3302 18.6477 24.2742 18.3065ZM17.6613 25.0645C16.662 25.0794 15.677 24.8256 14.8092 24.3297C13.9415 23.8338 13.223 23.1139 12.7285 22.2454C12.2341 21.3768 11.9819 20.3914 11.9985 19.3921C12.015 18.3928 12.2997 17.4163 12.8226 16.5646C13.534 15.4152 14.632 14.5573 15.9194 14.1452C16.4387 13.9655 16.9829 13.8675 17.5323 13.8548C18.2936 13.814 19.0553 13.9287 19.7708 14.1919C20.4863 14.4551 21.1408 14.8614 21.6942 15.3858C22.2476 15.9103 22.6882 16.542 22.9894 17.2424C23.2906 17.9429 23.4459 18.6973 23.4459 19.4597C23.4459 20.2221 23.2906 20.9766 22.9894 21.677C22.6882 22.3774 22.2476 23.0091 21.6942 23.5336C21.1408 24.0581 20.4863 24.4643 19.7708 24.7275C19.0553 24.9907 18.2936 25.1054 17.5323 25.0645H17.6613Z" fill="url(#paint5_linear_1_10591)"/>
<path d="M20.1775 20.3226C20.1294 20.2729 20.0717 20.2333 20.008 20.2063C19.9442 20.1793 19.8757 20.1653 19.8064 20.1653C19.7372 20.1653 19.6688 20.1793 19.605 20.2063C19.5413 20.2333 19.4836 20.2729 19.4355 20.3226L18.3065 21.4517V15.7903C18.3065 15.7226 18.2931 15.6554 18.2672 15.5928C18.2412 15.5302 18.2033 15.4733 18.1553 15.4254C18.1074 15.3774 18.0505 15.3394 17.9879 15.3135C17.9253 15.2875 17.8581 15.2742 17.7903 15.2742C17.7212 15.272 17.6524 15.2838 17.5879 15.3088C17.5234 15.3337 17.4646 15.3714 17.4149 15.4196C17.3653 15.4677 17.3258 15.5253 17.2989 15.589C17.2719 15.6527 17.2581 15.7212 17.2581 15.7903V21.4517L16.1452 20.3226C16.1005 20.2593 16.0424 20.2066 15.9751 20.1681C15.9079 20.1296 15.833 20.1063 15.7558 20.0997C15.6786 20.0932 15.6009 20.1035 15.5281 20.1301C15.4553 20.1567 15.3891 20.1989 15.3343 20.2537C15.2795 20.3085 15.2374 20.3746 15.2108 20.4474C15.1842 20.5202 15.1738 20.5979 15.1804 20.6751C15.1869 20.7523 15.2103 20.8272 15.2488 20.8945C15.2873 20.9617 15.34 21.0198 15.4032 21.0645L17.4194 23.0807C17.4663 23.1325 17.5235 23.174 17.5874 23.2024C17.6513 23.2308 17.7204 23.2454 17.7903 23.2454C17.8602 23.2454 17.9294 23.2308 17.9933 23.2024C18.0572 23.174 18.1145 23.1325 18.1614 23.0807L20.1775 21.0645C20.2272 21.0164 20.2667 20.9588 20.2937 20.8951C20.3208 20.8313 20.3347 20.7628 20.3347 20.6936C20.3347 20.6244 20.3208 20.5559 20.2937 20.4921C20.2667 20.4284 20.2272 20.3707 20.1775 20.3226Z" fill="url(#paint6_linear_1_10591)"/>
<defs>
<linearGradient id="paint0_linear_1_10591" x1="12.1775" y1="0" x2="12.1775" y2="26" gradientUnits="userSpaceOnUse">
<stop stop-color="#FDE403"/>
<stop offset="1" stop-color="#FFA800"/>
</linearGradient>
<linearGradient id="paint1_linear_1_10591" x1="12.1775" y1="0" x2="12.1775" y2="26" gradientUnits="userSpaceOnUse">
<stop stop-color="#FDE403"/>
<stop offset="1" stop-color="#FFA800"/>
</linearGradient>
<linearGradient id="paint2_linear_1_10591" x1="12.1775" y1="0" x2="12.1775" y2="26" gradientUnits="userSpaceOnUse">
<stop stop-color="#FDE403"/>
<stop offset="1" stop-color="#FFA800"/>
</linearGradient>
<linearGradient id="paint3_linear_1_10591" x1="12.1775" y1="0" x2="12.1775" y2="26" gradientUnits="userSpaceOnUse">
<stop stop-color="#FDE403"/>
<stop offset="1" stop-color="#FFA800"/>
</linearGradient>
<linearGradient id="paint4_linear_1_10591" x1="12.1775" y1="0" x2="12.1775" y2="26" gradientUnits="userSpaceOnUse">
<stop stop-color="#FDE403"/>
<stop offset="1" stop-color="#FFA800"/>
</linearGradient>
<linearGradient id="paint5_linear_1_10591" x1="12.1775" y1="0" x2="12.1775" y2="26" gradientUnits="userSpaceOnUse">
<stop stop-color="#FDE403"/>
<stop offset="1" stop-color="#FFA800"/>
</linearGradient>
<linearGradient id="paint6_linear_1_10591" x1="12.1775" y1="0" x2="12.1775" y2="26" gradientUnits="userSpaceOnUse">
<stop stop-color="#FDE403"/>
<stop offset="1" stop-color="#FFA800"/>
</linearGradient>
</defs>
</svg>
