<svg width="14" height="16" viewBox="0 0 14 16" fill="none" xmlns="http://www.w3.org/2000/svg">
<path d="M6.38999 0.760742V15.2399M6.38999 0.760742H6.88999M6.38999 0.760742H6.88999M6.38999 0.760742V15.2399M6.38999 15.2399H6.88999M6.38999 15.2399H6.88999M6.88999 15.2399H7.38999M6.88999 15.2399H7.38999M7.38999 15.2399V0.760742M7.38999 15.2399V0.760742M7.38999 0.760742H6.88999M7.38999 0.760742H6.88999M13.7671 7.50733H0M13.7671 7.50733V8.00733M13.7671 7.50733V8.00733M13.7671 7.50733H0M0 7.50733V8.00733M0 7.50733V8.00733M0 8.00733V8.50733M0 8.00733V8.50733M0 8.50733H13.7671M0 8.50733H13.7671M13.7671 8.50733V8.00733M13.7671 8.50733V8.00733" fill="white" stroke="white"/>
</svg>
