<svg width="26" height="26" viewBox="0 0 26 26" fill="none" xmlns="http://www.w3.org/2000/svg">
<path d="M13 0C9.5546 0.00784833 6.25255 1.37998 3.81628 3.81626C1.38001 6.25253 0.00784833 9.5546 0 13C0.00393224 16.4466 1.37483 19.7509 3.81195 22.1881C6.24908 24.6252 9.55339 25.9961 13 26C16.4478 26 19.7544 24.6303 22.1924 22.1924C24.6304 19.7544 26 16.4478 26 13C25.9961 9.55339 24.6252 6.24907 22.188 3.81195C19.7509 1.37483 16.4466 0.00393224 13 0ZM13 25.064C9.80952 25.0601 6.75083 23.7909 4.49482 21.5349C2.2388 19.2789 0.969648 16.2202 0.965717 13.0297C0.969648 9.83921 2.2388 6.78053 4.49482 4.52452C6.75083 2.2685 9.80952 0.999335 13 0.995403C16.1917 0.995403 19.2527 2.2633 21.5095 4.52017C23.7664 6.77703 25.0343 9.83801 25.0343 13.0297C25.0343 16.2214 23.7664 19.2824 21.5095 21.5392C19.2527 23.7961 16.1917 25.064 13 25.064Z" fill="url(#paint0_linear_1_10588)"/>
<path d="M9.88 10.4445H8.112V12.4651H9.88C10.237 12.4889 10.5919 12.395 10.8903 12.1977C10.987 12.0976 11.062 11.9787 11.1105 11.8483C11.1591 11.7179 11.1802 11.5789 11.1726 11.44C11.1886 11.3003 11.1713 11.1589 11.1223 11.0273C11.0732 10.8956 10.9937 10.7774 10.8903 10.6823C10.5856 10.502 10.2331 10.4191 9.88 10.4445Z" fill="url(#paint1_linear_1_10588)"/>
<path d="M17.7543 14.664C17.7543 14.2777 17.4571 13.9806 16.848 13.7577V15.5554C17.0365 15.5159 17.2172 15.4457 17.3829 15.3474C17.5008 15.2777 17.5976 15.1773 17.663 15.057C17.7284 14.9367 17.7599 14.8008 17.7543 14.664Z" fill="url(#paint2_linear_1_10588)"/>
<path d="M15.8674 10.3109C15.7244 10.3303 15.5874 10.381 15.4663 10.4594C15.3439 10.5307 15.245 10.6362 15.1817 10.7629C15.1184 10.8895 15.0933 11.0319 15.1097 11.1726C15.1097 11.4697 15.3623 11.7223 15.8674 11.9452V10.3109Z" fill="url(#paint3_linear_1_10588)"/>
<path d="M13 2.2137C10.1393 2.2137 7.39577 3.35011 5.37295 5.37293C3.35012 7.39575 2.21372 10.1393 2.21372 13C2.21371 15.8621 3.34964 18.6071 5.37204 20.6323C7.39443 22.6575 10.1379 23.7972 13 23.8011C15.8634 23.7972 18.6085 22.6579 20.6332 20.6332C22.658 18.6084 23.7972 15.8634 23.8011 13C23.7972 10.1379 22.6575 7.39442 20.6323 5.37202C18.6071 3.34963 15.8621 2.2137 13 2.2137ZM19.0766 20.0423L17.264 20.4434C16.6996 20.5664 16.1294 20.6606 15.5554 20.7257H15.0354C14.3702 20.8097 13.7002 20.8494 13.0297 20.8446C12.3395 20.8498 11.6496 20.8101 10.9646 20.7257H10.4594L9.79086 20.6217L10.0137 20.8C10.1614 20.9242 10.2537 21.1019 10.2704 21.2941C10.2872 21.4863 10.2269 21.6773 10.1029 21.8251C10.0335 21.9027 9.94888 21.9652 9.8543 22.0087C9.75972 22.0521 9.65721 22.0756 9.55314 22.0777C9.38088 22.0777 9.21354 22.0202 9.07771 21.9143L6.77486 19.9828C6.62627 19.9152 6.50537 19.7987 6.43236 19.6527C6.35935 19.5066 6.33865 19.34 6.37372 19.1806C6.4071 19.0271 6.49125 18.8894 6.61256 18.7896C6.73387 18.6899 6.88527 18.634 7.04229 18.6309H7.384L9.19657 19.0171C9.672 19.1211 10.1474 19.1954 10.6823 19.2548H11.2023C12.4413 19.396 13.6924 19.396 14.9314 19.2548L15.4514 19.1806C15.9714 19.1806 16.4914 19.032 16.9371 18.928L18.7497 18.5269C18.8425 18.505 18.9386 18.502 19.0326 18.518C19.1265 18.5339 19.2163 18.5686 19.2966 18.6198C19.3769 18.6711 19.4462 18.7379 19.5003 18.8163C19.5543 18.8948 19.5921 18.9833 19.6114 19.0766C19.638 19.181 19.641 19.29 19.6203 19.3957C19.5996 19.5014 19.5556 19.6013 19.4917 19.688C19.4277 19.7747 19.3453 19.8461 19.2504 19.8971C19.1555 19.9481 19.0505 19.9774 18.9429 19.9828L19.0766 20.0423ZM12.5989 14.4411L12.7326 15.6446C12.7376 16.0148 12.8806 16.3697 13.1337 16.64L13.3714 16.8926H11.5143C11.2987 16.587 11.175 16.2261 11.1577 15.8525L11.0686 14.9314C11.0585 14.6424 10.9421 14.3673 10.7417 14.1589C10.4908 13.982 10.1861 13.8979 9.88 13.9211H8.112V16.8926H6.62628V9.16683H10.0286C10.706 9.13321 11.3753 9.32671 11.9303 9.71658C12.1808 9.92933 12.3794 10.1965 12.5107 10.4978C12.642 10.7991 12.7027 11.1265 12.688 11.4548C12.6887 11.8522 12.5696 12.2405 12.3463 12.5691C12.1789 12.8146 11.9477 13.0098 11.6777 13.1337C11.9174 13.2472 12.1224 13.4228 12.2713 13.6422C12.4202 13.8617 12.5077 14.117 12.5246 14.3817L12.5989 14.4411ZM14.8423 13.1188C14.4837 12.9534 14.1814 12.6866 13.9728 12.3513C13.7642 12.0159 13.6584 11.6268 13.6686 11.232C13.6526 10.8991 13.7236 10.5678 13.8747 10.2708C14.0258 9.97381 14.2518 9.72129 14.5303 9.53826C14.9728 9.24505 15.4859 9.07577 16.016 9.04799V8.1863H16.9966V9.04799C17.5344 9.07267 18.0522 9.25907 18.4823 9.58283C18.9763 10.0328 19.2793 10.6548 19.3291 11.3211V11.4845H17.8434V11.3508C17.8341 11.197 17.7937 11.0466 17.7248 10.9088C17.6558 10.7709 17.5598 10.6484 17.4423 10.5486C17.3235 10.46 17.1865 10.3991 17.0411 10.3703V12.3909L18.304 12.8663C18.6552 13.0398 18.9504 13.3089 19.1554 13.6427C19.3604 13.9765 19.467 14.3614 19.4629 14.7531C19.478 15.1032 19.4026 15.4512 19.2438 15.7635C19.085 16.0759 18.8483 16.342 18.5566 16.536C18.108 16.8143 17.5977 16.9775 17.0709 17.0114V17.9474H16.0903V17.0114C15.5123 16.9764 14.9605 16.7578 14.5154 16.3874C14.0113 15.8409 13.7303 15.1252 13.728 14.3817V14.2183H15.2137V14.3668C15.2048 14.7565 15.3366 15.1363 15.5851 15.4365C15.7257 15.5562 15.8944 15.638 16.0754 15.6743V13.52L14.8423 13.1188ZM19.6263 7.05714C19.5949 7.21834 19.5076 7.36331 19.3799 7.46657C19.2522 7.56982 19.0922 7.62476 18.928 7.62172H18.6011L16.8034 7.23542C16.3429 7.14628 15.8526 7.05713 15.3177 6.9977H14.8126C13.569 6.84911 12.3121 6.84911 11.0686 6.9977H10.5634C10.0387 7.05667 9.51784 7.14595 9.00343 7.26512L7.176 7.66629H7.05714C6.89183 7.66714 6.73116 7.6117 6.60155 7.5091C6.47194 7.40649 6.38111 7.2628 6.344 7.10171C6.32204 7.00804 6.31886 6.91093 6.33466 6.81602C6.35046 6.72111 6.38491 6.6303 6.43603 6.54879C6.48715 6.46727 6.55391 6.39668 6.63247 6.34113C6.71103 6.28558 6.79982 6.24617 6.89371 6.22515L8.72114 5.82397C9.28571 5.70512 9.85028 5.61597 10.4149 5.54169H10.9349C12.2923 5.38512 13.6632 5.38512 15.0206 5.54169L15.5257 5.616C15.7486 5.616 15.9566 5.69029 16.1794 5.72001L15.9566 5.54169C15.8123 5.41537 15.7224 5.23814 15.7058 5.04707C15.6891 4.85599 15.7471 4.66592 15.8674 4.51658C15.9277 4.44174 16.0025 4.37984 16.0873 4.33463C16.1722 4.28943 16.2652 4.2618 16.361 4.25347C16.4568 4.24515 16.5532 4.25628 16.6445 4.28616C16.7359 4.31605 16.8203 4.36408 16.8926 4.4274L19.1954 6.35886C19.307 6.42321 19.3991 6.5166 19.4619 6.62908C19.5247 6.74157 19.5558 6.86894 19.552 6.9977L19.6263 7.05714Z" fill="url(#paint4_linear_1_10588)"/>
<defs>
<linearGradient id="paint0_linear_1_10588" x1="13" y1="0" x2="13" y2="26" gradientUnits="userSpaceOnUse">
<stop stop-color="#FDE403"/>
<stop offset="1" stop-color="#FFA800"/>
</linearGradient>
<linearGradient id="paint1_linear_1_10588" x1="13" y1="0" x2="13" y2="26" gradientUnits="userSpaceOnUse">
<stop stop-color="#FDE403"/>
<stop offset="1" stop-color="#FFA800"/>
</linearGradient>
<linearGradient id="paint2_linear_1_10588" x1="13" y1="0" x2="13" y2="26" gradientUnits="userSpaceOnUse">
<stop stop-color="#FDE403"/>
<stop offset="1" stop-color="#FFA800"/>
</linearGradient>
<linearGradient id="paint3_linear_1_10588" x1="13" y1="0" x2="13" y2="26" gradientUnits="userSpaceOnUse">
<stop stop-color="#FDE403"/>
<stop offset="1" stop-color="#FFA800"/>
</linearGradient>
<linearGradient id="paint4_linear_1_10588" x1="13" y1="0" x2="13" y2="26" gradientUnits="userSpaceOnUse">
<stop stop-color="#FDE403"/>
<stop offset="1" stop-color="#FFA800"/>
</linearGradient>
</defs>
</svg>
