<svg width="15" height="16" viewBox="0 0 15 16" fill="none" xmlns="http://www.w3.org/2000/svg">
<path d="M14.2863 7.06152L14.2721 7.03076C13.5088 5.28366 12.1941 3.96104 11.4378 3.8134C11.2682 3.78264 11.0844 3.8257 10.9572 3.93028C10.83 4.03486 10.7734 4.18865 10.8017 4.34245C10.8512 4.59467 10.8512 4.84689 10.8017 5.09911C10.7805 5.19754 10.6886 5.27136 10.5755 5.28366C10.4624 5.29597 10.3493 5.23445 10.3069 5.14833C8.87209 2.08476 5.16133 0.362269 4.42625 0.0485304C4.18593 -0.0498975 3.91735 0.0054682 3.76185 0.177717C3.59928 0.349966 3.59928 0.589884 3.76185 0.768284C4.89981 1.91866 4.27075 4.77307 3.20347 6.93848C3.16813 7.0123 3.09038 7.06152 2.99142 7.07382C2.89954 7.07997 2.80765 7.04921 2.75818 6.98155C2.28461 6.40328 1.96655 6.04033 1.49299 6.00342C1.29508 5.99111 1.11131 6.07109 1.00529 6.21258C0.9134 6.32946 0.892196 6.47095 0.941673 6.60629C0.955809 6.6432 0.955809 6.68011 0.948741 6.71087C0.885128 7.03076 0.786174 7.3445 0.673085 7.65824C0.220726 8.99932 -0.535561 11.2386 0.581199 13.1825C2.07257 15.797 6.15794 16 7.37365 16H7.90376C10.2857 15.877 12.4698 14.7389 13.7349 12.9672C15.0001 11.1955 15.2122 8.98701 14.2863 7.06152ZM5.37337 2.11552C5.36631 2.02939 5.41578 1.94327 5.5006 1.90021C5.58542 1.85714 5.69851 1.86329 5.77626 1.91251C7.13333 2.77375 9.45167 4.59467 9.74853 7.12304C9.76974 7.31374 9.9323 7.46753 10.1373 7.51675C10.3493 7.56596 10.5755 7.49214 10.7027 7.33835C11.141 6.82775 11.4732 6.26179 11.6923 5.65892C11.7205 5.57895 11.7983 5.51743 11.8972 5.50513C11.9962 5.49282 12.0881 5.52358 12.1446 5.59125C12.7949 6.35407 13.2684 7.20916 13.5582 8.12577C14.0884 9.6514 13.7632 11.3308 12.6889 12.6288C11.6145 14.0561 9.81215 14.9542 7.86842 15.0465H7.74119C5.52887 15.1326 2.56734 14.5666 1.52833 12.7519C0.602404 11.1524 1.25267 9.22078 1.67676 7.93507L1.69089 7.892C1.71916 7.81203 1.79691 7.75051 1.89587 7.73206C1.91 7.73206 1.92414 7.73206 1.93828 7.73206C2.02309 7.73206 2.10084 7.76897 2.15032 7.83049C2.33409 8.06425 2.53906 8.28572 2.76524 8.48872C2.87833 8.58715 3.04797 8.63636 3.21053 8.61791C3.3731 8.59945 3.52153 8.50718 3.59928 8.37799C4.63122 6.67396 5.57835 4.07792 5.37337 2.10936V2.11552Z" fill="url(#paint0_linear_1_1949)"/>
<path d="M8.57143 4L10.2857 6.57143L10.8571 6.28571L11.7143 5.14286C12 5.33333 12.6857 5.88571 13.1429 6.57143C13.7143 7.42857 14 9.71429 14 10C14 10.1939 13.7535 11.3167 13.1429 12.2857C12.8535 12.7449 12.3674 13.0611 12 13.4286C10.8571 14.5714 9.14286 14.8571 8.85714 15.1429C8.57143 15.4286 5.42857 15.1429 3.71429 14.8571C2.34286 14.6286 1.2381 12.4762 0.857143 11.4286V9.14286L1.42857 7.71429L1.71429 7.42857L2.57143 7.71429L3.14286 8.28572L3.42857 7.71429L3.71429 6.85714L4.28571 6L4.85714 3.71429V2.85714L5.14286 1.71429H5.71429L7.14286 2.28571L8.57143 4Z" fill="url(#paint1_linear_1_1949)"/>
<path d="M14.2863 7.06152L14.2721 7.03076C13.5088 5.28366 12.1941 3.96104 11.4378 3.8134C11.2682 3.78264 11.0844 3.8257 10.9572 3.93028C10.83 4.03486 10.7734 4.18865 10.8017 4.34245C10.8512 4.59467 10.8512 4.84689 10.8017 5.09911C10.7805 5.19754 10.6886 5.27136 10.5755 5.28366C10.4624 5.29597 10.3493 5.23445 10.3069 5.14833C8.87209 2.08476 5.16133 0.362269 4.42625 0.0485304C4.18593 -0.0498975 3.91735 0.0054682 3.76185 0.177717C3.59928 0.349966 3.59928 0.589884 3.76185 0.768284C4.89981 1.91866 4.27075 4.77307 3.20347 6.93848C3.16813 7.0123 3.09038 7.06152 2.99142 7.07382C2.89954 7.07997 2.80765 7.04921 2.75818 6.98155C2.28461 6.40328 1.96655 6.04033 1.49299 6.00342C1.29508 5.99111 1.11131 6.07109 1.00529 6.21258C0.9134 6.32946 0.892196 6.47095 0.941673 6.60629C0.955809 6.6432 0.955809 6.68011 0.948741 6.71087C0.885128 7.03076 0.786174 7.3445 0.673085 7.65824C0.220726 8.99932 -0.535561 11.2386 0.581199 13.1825C2.07257 15.797 6.15794 16 7.37365 16H7.90376C10.2857 15.877 12.4698 14.7389 13.7349 12.9672C15.0001 11.1955 15.2122 8.98701 14.2863 7.06152ZM5.37337 2.11552C5.36631 2.02939 5.41578 1.94327 5.5006 1.90021C5.58542 1.85714 5.69851 1.86329 5.77626 1.91251C7.13333 2.77375 9.45167 4.59467 9.74853 7.12304C9.76974 7.31374 9.9323 7.46753 10.1373 7.51675C10.3493 7.56596 10.5755 7.49214 10.7027 7.33835C11.141 6.82775 11.4732 6.26179 11.6923 5.65892C11.7205 5.57895 11.7983 5.51743 11.8972 5.50513C11.9962 5.49282 12.0881 5.52358 12.1446 5.59125C12.7949 6.35407 13.2684 7.20916 13.5582 8.12577C14.0884 9.6514 13.7632 11.3308 12.6889 12.6288C11.6145 14.0561 9.81215 14.9542 7.86842 15.0465H7.74119C5.52887 15.1326 2.56734 14.5666 1.52833 12.7519C0.602404 11.1524 1.25267 9.22078 1.67676 7.93507L1.69089 7.892C1.71916 7.81203 1.79691 7.75051 1.89587 7.73206C1.91 7.73206 1.92414 7.73206 1.93828 7.73206C2.02309 7.73206 2.10084 7.76897 2.15032 7.83049C2.33409 8.06425 2.53906 8.28572 2.76524 8.48872C2.87833 8.58715 3.04797 8.63636 3.21053 8.61791C3.3731 8.59945 3.52153 8.50718 3.59928 8.37799C4.63122 6.67396 5.57835 4.07792 5.37337 2.10936V2.11552Z" fill="url(#paint2_linear_1_1949)"/>
<path d="M14.2863 7.06152L14.2721 7.03076C13.5088 5.28366 12.1941 3.96104 11.4378 3.8134C11.2682 3.78264 11.0844 3.8257 10.9572 3.93028C10.83 4.03486 10.7734 4.18865 10.8017 4.34245C10.8512 4.59467 10.8512 4.84689 10.8017 5.09911C10.7805 5.19754 10.6886 5.27136 10.5755 5.28366C10.4624 5.29597 10.3493 5.23445 10.3069 5.14833C8.87209 2.08476 5.16133 0.362269 4.42625 0.0485304C4.18593 -0.0498975 3.91735 0.0054682 3.76185 0.177717C3.59928 0.349966 3.59928 0.589884 3.76185 0.768284C4.89981 1.91866 4.27075 4.77307 3.20347 6.93848C3.16813 7.0123 3.09038 7.06152 2.99142 7.07382C2.89954 7.07997 2.80765 7.04921 2.75818 6.98155C2.28461 6.40328 1.96655 6.04033 1.49299 6.00342C1.29508 5.99111 1.11131 6.07109 1.00529 6.21258C0.9134 6.32946 0.892196 6.47095 0.941673 6.60629C0.955809 6.6432 0.955809 6.68011 0.948741 6.71087C0.885128 7.03076 0.786174 7.3445 0.673085 7.65824C0.220726 8.99932 -0.535561 11.2386 0.581199 13.1825C2.07257 15.797 6.15794 16 7.37365 16H7.90376C10.2857 15.877 12.4698 14.7389 13.7349 12.9672C15.0001 11.1955 15.2122 8.98701 14.2863 7.06152ZM5.37337 2.11552C5.36631 2.02939 5.41578 1.94327 5.5006 1.90021C5.58542 1.85714 5.69851 1.86329 5.77626 1.91251C7.13333 2.77375 9.45167 4.59467 9.74853 7.12304C9.76974 7.31374 9.9323 7.46753 10.1373 7.51675C10.3493 7.56596 10.5755 7.49214 10.7027 7.33835C11.141 6.82775 11.4732 6.26179 11.6923 5.65892C11.7205 5.57895 11.7983 5.51743 11.8972 5.50513C11.9962 5.49282 12.0881 5.52358 12.1446 5.59125C12.7949 6.35407 13.2684 7.20916 13.5582 8.12577C14.0884 9.6514 13.7632 11.3308 12.6889 12.6288C11.6145 14.0561 9.81215 14.9542 7.86842 15.0465H7.74119C5.52887 15.1326 2.56734 14.5666 1.52833 12.7519C0.602404 11.1524 1.25267 9.22078 1.67676 7.93507L1.69089 7.892C1.71916 7.81203 1.79691 7.75051 1.89587 7.73206C1.91 7.73206 1.92414 7.73206 1.93828 7.73206C2.02309 7.73206 2.10084 7.76897 2.15032 7.83049C2.33409 8.06425 2.53906 8.28572 2.76524 8.48872C2.87833 8.58715 3.04797 8.63636 3.21053 8.61791C3.3731 8.59945 3.52153 8.50718 3.59928 8.37799C4.63122 6.67396 5.57835 4.07792 5.37337 2.10936V2.11552Z" fill="url(#paint3_linear_1_1949)"/>
<path d="M8.57143 4L10.2857 6.57143L10.8571 6.28571L11.7143 5.14286C12 5.33333 12.6857 5.88571 13.1429 6.57143C13.7143 7.42857 14 9.71429 14 10C14 10.1939 13.7535 11.3167 13.1429 12.2857C12.8535 12.7449 12.3674 13.0611 12 13.4286C10.8571 14.5714 9.14286 14.8571 8.85714 15.1429C8.57143 15.4286 5.42857 15.1429 3.71429 14.8571C2.34286 14.6286 1.2381 12.4762 0.857143 11.4286V9.14286L1.42857 7.71429L1.71429 7.42857L2.57143 7.71429L3.14286 8.28572L3.42857 7.71429L3.71429 6.85714L4.28571 6L4.85714 3.71429V2.85714L5.14286 1.71429H5.71429L7.14286 2.28571L8.57143 4Z" fill="url(#paint4_linear_1_1949)"/>
<path d="M14.2863 7.06152L14.2721 7.03076C13.5088 5.28366 12.1941 3.96104 11.4378 3.8134C11.2682 3.78264 11.0844 3.8257 10.9572 3.93028C10.83 4.03486 10.7734 4.18865 10.8017 4.34245C10.8512 4.59467 10.8512 4.84689 10.8017 5.09911C10.7805 5.19754 10.6886 5.27136 10.5755 5.28366C10.4624 5.29597 10.3493 5.23445 10.3069 5.14833C8.87209 2.08476 5.16133 0.362269 4.42625 0.0485304C4.18593 -0.0498975 3.91735 0.0054682 3.76185 0.177717C3.59928 0.349966 3.59928 0.589884 3.76185 0.768284C4.89981 1.91866 4.27075 4.77307 3.20347 6.93848C3.16813 7.0123 3.09038 7.06152 2.99142 7.07382C2.89954 7.07997 2.80765 7.04921 2.75818 6.98155C2.28461 6.40328 1.96655 6.04033 1.49299 6.00342C1.29508 5.99111 1.11131 6.07109 1.00529 6.21258C0.9134 6.32946 0.892196 6.47095 0.941673 6.60629C0.955809 6.6432 0.955809 6.68011 0.948741 6.71087C0.885128 7.03076 0.786174 7.3445 0.673085 7.65824C0.220726 8.99932 -0.535561 11.2386 0.581199 13.1825C2.07257 15.797 6.15794 16 7.37365 16H7.90376C10.2857 15.877 12.4698 14.7389 13.7349 12.9672C15.0001 11.1955 15.2122 8.98701 14.2863 7.06152ZM5.37337 2.11552C5.36631 2.02939 5.41578 1.94327 5.5006 1.90021C5.58542 1.85714 5.69851 1.86329 5.77626 1.91251C7.13333 2.77375 9.45167 4.59467 9.74853 7.12304C9.76974 7.31374 9.9323 7.46753 10.1373 7.51675C10.3493 7.56596 10.5755 7.49214 10.7027 7.33835C11.141 6.82775 11.4732 6.26179 11.6923 5.65892C11.7205 5.57895 11.7983 5.51743 11.8972 5.50513C11.9962 5.49282 12.0881 5.52358 12.1446 5.59125C12.7949 6.35407 13.2684 7.20916 13.5582 8.12577C14.0884 9.6514 13.7632 11.3308 12.6889 12.6288C11.6145 14.0561 9.81215 14.9542 7.86842 15.0465H7.74119C5.52887 15.1326 2.56734 14.5666 1.52833 12.7519C0.602404 11.1524 1.25267 9.22078 1.67676 7.93507L1.69089 7.892C1.71916 7.81203 1.79691 7.75051 1.89587 7.73206C1.91 7.73206 1.92414 7.73206 1.93828 7.73206C2.02309 7.73206 2.10084 7.76897 2.15032 7.83049C2.33409 8.06425 2.53906 8.28572 2.76524 8.48872C2.87833 8.58715 3.04797 8.63636 3.21053 8.61791C3.3731 8.59945 3.52153 8.50718 3.59928 8.37799C4.63122 6.67396 5.57835 4.07792 5.37337 2.10936V2.11552Z" fill="url(#paint5_linear_1_1949)"/>
<defs>
<linearGradient id="paint0_linear_1_1949" x1="7.42857" y1="0" x2="7.42857" y2="16" gradientUnits="userSpaceOnUse">
<stop stop-color="#76CD00"/>
<stop offset="1" stop-color="#478A03"/>
</linearGradient>
<linearGradient id="paint1_linear_1_1949" x1="7.42857" y1="0" x2="7.42857" y2="16" gradientUnits="userSpaceOnUse">
<stop stop-color="#76CD00"/>
<stop offset="1" stop-color="#478A03"/>
</linearGradient>
<linearGradient id="paint2_linear_1_1949" x1="7.42857" y1="0" x2="7.42857" y2="16" gradientUnits="userSpaceOnUse">
<stop stop-color="#76CD00"/>
<stop offset="1" stop-color="#478A03"/>
</linearGradient>
<linearGradient id="paint3_linear_1_1949" x1="7.42857" y1="0" x2="7.42857" y2="16" gradientUnits="userSpaceOnUse">
<stop stop-color="#76CD00"/>
<stop offset="1" stop-color="#478A03"/>
</linearGradient>
<linearGradient id="paint4_linear_1_1949" x1="7.42857" y1="0" x2="7.42857" y2="16" gradientUnits="userSpaceOnUse">
<stop stop-color="#76CD00"/>
<stop offset="1" stop-color="#478A03"/>
</linearGradient>
<linearGradient id="paint5_linear_1_1949" x1="7.42857" y1="0" x2="7.42857" y2="16" gradientUnits="userSpaceOnUse">
<stop stop-color="#76CD00"/>
<stop offset="1" stop-color="#478A03"/>
</linearGradient>
</defs>
</svg>
