<svg width="14" height="18" viewBox="0 0 14 18" fill="none" xmlns="http://www.w3.org/2000/svg">
<path d="M11.9184 6.12467e-05C12.147 -0.00180391 12.3739 0.0389476 12.5863 0.120056C12.7882 0.203483 12.9723 0.322173 13.129 0.470062C13.2866 0.617569 13.411 0.794557 13.4942 0.990052C13.5789 1.19359 13.6214 1.41097 13.6195 1.63007V16.2901C13.6257 16.5054 13.5854 16.7196 13.5009 16.9193C13.4165 17.1189 13.2899 17.2996 13.129 17.4501C12.972 17.6043 12.7834 17.7256 12.575 17.8065C12.3667 17.8874 12.1431 17.9261 11.9184 17.9201H1.70139C1.47824 17.9259 1.25628 17.8871 1.04965 17.8062C0.843016 17.7253 0.656243 17.604 0.501229 17.4501C0.338942 17.3001 0.21069 17.1197 0.124496 16.9201C0.0383017 16.7205 -0.00398023 16.506 0.000294648 16.2901V1.61005C0.00461131 1.39924 0.0543532 1.19158 0.1464 1.00006C0.229664 0.804567 0.353992 0.627578 0.511663 0.480072C0.668352 0.332182 0.852373 0.213493 1.05434 0.130066C1.26343 0.0499824 1.48665 0.0092451 1.71182 0.010071L11.9184 6.12467e-05ZM5.114 1.63007H8.49531V0.800049H5.114V1.63007ZM6.79422 17.1001C7.01827 17.1114 7.2423 17.0773 7.4517 17.0001C7.65439 16.9179 7.83865 16.7991 7.99438 16.6501C8.14872 16.4999 8.27257 16.3236 8.35964 16.1301C8.44425 15.93 8.48681 15.7159 8.48487 15.5001C8.48682 15.281 8.44428 15.0636 8.35964 14.86C8.27513 14.6681 8.15087 14.4946 7.99438 14.3501C7.83624 14.2039 7.65256 14.0854 7.4517 14.0001C7.23992 13.9158 7.0131 13.8716 6.78378 13.8701C6.56097 13.8666 6.33975 13.9065 6.13347 13.9873C5.9272 14.0681 5.74015 14.1881 5.58363 14.3401C5.4254 14.4898 5.30111 14.6693 5.21851 14.8671C5.13591 15.065 5.09678 15.277 5.10356 15.4901C5.09802 15.7029 5.13771 15.9146 5.22024 16.1123C5.30277 16.31 5.4264 16.4896 5.58363 16.6401C5.73812 16.7953 5.92456 16.9181 6.13115 17.0007C6.33773 17.0834 6.55996 17.124 6.78378 17.1201L6.79422 17.1001ZM11.9184 2.43005H1.70139V13.0001H11.9184V2.43005Z" fill="#808994"/>
</svg>
