<svg width="16" height="18" viewBox="0 0 16 18" fill="none" xmlns="http://www.w3.org/2000/svg">
<path d="M15.1495 3.65012C15.1227 3.38698 15.0104 3.13993 14.8298 2.94669C14.6492 2.75344 14.4103 2.62465 14.1495 2.58011C13.096 2.41967 12.0563 2.179 11.0395 1.86014C10.0407 1.45477 9.10464 0.909306 8.25953 0.240143C8.04225 0.0846197 7.78174 0.000976562 7.51453 0.000976562C7.24733 0.000976562 6.98682 0.0846197 6.76953 0.240143C5.96852 0.979695 5.01165 1.52989 3.96954 1.85013C3.01307 2.24996 2.00163 2.50282 0.969536 2.60013C0.712034 2.64146 0.476748 2.77058 0.303596 2.96561C0.130445 3.16063 0.0300833 3.40955 0.0195312 3.67014C0.0195312 3.67014 0.0195312 6.36012 0.0195312 8.72012C0.0195312 13.0001 5.01954 17.1402 7.58953 17.1402C10.1595 17.1402 14.3895 14.2201 15.0795 8.78012C15.2295 5.58012 15.1495 3.65012 15.1495 3.65012ZM12.3995 6.98013L7.12953 11.9801C7.01259 12.0894 6.8626 12.1565 6.70325 12.171C6.54389 12.1855 6.38425 12.1465 6.24953 12.0602L6.11953 11.9502L3.20953 8.95016C3.08 8.81595 3.00761 8.6367 3.00761 8.45016C3.00761 8.26363 3.08 8.08438 3.20953 7.95016C3.34375 7.82063 3.523 7.7482 3.70953 7.7482C3.89606 7.7482 4.07532 7.82063 4.20953 7.95016L6.60953 10.4601L11.3595 5.97012C11.4949 5.84286 11.6737 5.772 11.8595 5.772C12.0453 5.772 12.2242 5.84286 12.3595 5.97012C12.4952 6.10079 12.5752 6.27884 12.5826 6.46707C12.5901 6.6553 12.5245 6.83915 12.3995 6.98013Z" fill="#808994"/>
</svg>
