<svg width="16" height="17" viewBox="0 0 16 17" fill="none" xmlns="http://www.w3.org/2000/svg">
<path d="M12.7388 9.68796C12.2216 9.68956 11.7127 9.81783 11.2565 10.0616C10.8003 10.3053 10.4108 10.6571 10.122 11.0862L6.91609 9.78781C7.03124 9.22068 7.00377 8.63382 6.83617 8.07992L10.7613 4.95386C11.2324 5.43392 11.8559 5.73506 12.5247 5.80561C13.1936 5.87615 13.8662 5.71169 14.4271 5.34046C14.988 4.96923 15.4022 4.41438 15.5986 3.7711C15.795 3.12782 15.7615 2.43622 15.5037 1.81499C15.2459 1.19376 14.7799 0.681617 14.1857 0.366451C13.5915 0.0512846 12.9061 -0.04724 12.2472 0.0877465C11.5883 0.222733 10.9969 0.582823 10.5745 1.10625C10.1521 1.62967 9.92504 2.28379 9.93228 2.95635C9.93228 3.02627 9.93228 3.09617 9.93228 3.16608L5.75751 6.48195C5.12981 5.93327 4.32401 5.63154 3.49032 5.633C2.91408 5.63223 2.34663 5.77432 1.83876 6.04658C1.33089 6.31884 0.898467 6.71275 0.58014 7.19309C0.261812 7.67343 0.0675211 8.22524 0.0146843 8.79906C-0.0381524 9.37287 0.0520967 9.95083 0.277356 10.4812C0.502616 11.0116 0.855877 11.4779 1.30549 11.8383C1.7551 12.1987 2.28703 12.442 2.85373 12.5465C3.42042 12.651 4.0042 12.6133 4.55277 12.4369C5.10135 12.2605 5.59762 11.9508 5.9972 11.5356L9.57274 13.0138C9.59431 13.6328 9.79758 14.2319 10.1572 14.7363C10.5169 15.2406 11.017 15.628 11.5952 15.8501C12.1735 16.0722 12.8043 16.1192 13.4091 15.9853C14.0139 15.8514 14.5659 15.5425 14.9964 15.0971C15.4268 14.6516 15.7167 14.0894 15.8299 13.4803C15.943 12.8713 15.8744 12.2424 15.6326 11.6721C15.3908 11.1018 14.9866 10.6152 14.4702 10.273C13.9539 9.93087 13.3482 9.74826 12.7288 9.74788L12.7388 9.68796Z" fill="#808994"/>
</svg>
