<svg width="21" height="26" viewBox="0 0 21 26" fill="none" xmlns="http://www.w3.org/2000/svg">
<path d="M17.754 2.51548e-10H2.83184C2.08198 0.00385539 1.36393 0.303475 0.83369 0.833712C0.303452 1.36395 0.00385539 2.082 0 2.83186V4.46051H1.2912C1.52899 4.43845 1.76876 4.46626 1.99519 4.54214C2.22163 4.61801 2.42974 4.74029 2.60623 4.90116C2.78272 5.06204 2.92369 5.25796 3.02015 5.47642C3.11662 5.69488 3.16644 5.93108 3.16644 6.16989C3.16644 6.4087 3.11662 6.64486 3.02015 6.86331C2.92369 7.08177 2.78272 7.27769 2.60623 7.43857C2.42974 7.59945 2.22163 7.72176 1.99519 7.79764C1.76876 7.87352 1.52899 7.90128 1.2912 7.87922H0.014687V11.298H1.2912C1.52899 11.2759 1.76876 11.3037 1.99519 11.3796C2.22163 11.4555 2.42974 11.5778 2.60623 11.7386C2.78272 11.8995 2.92369 12.0954 3.02015 12.3139C3.11662 12.5324 3.16644 12.7686 3.16644 13.0074C3.16644 13.2462 3.11662 13.4823 3.02015 13.7008C2.92369 13.9192 2.78272 14.1152 2.60623 14.276C2.42974 14.4369 2.22163 14.5592 1.99519 14.6351C1.76876 14.7109 1.52899 14.7388 1.2912 14.7167H0.014687V18.1208H1.2912C1.52899 18.0987 1.76876 18.1265 1.99519 18.2024C2.22163 18.2783 2.42974 18.4006 2.60623 18.5614C2.78272 18.7223 2.92369 18.9182 3.02015 19.1367C3.11662 19.3551 3.16644 19.5913 3.16644 19.8302C3.16644 20.069 3.11662 20.3051 3.02015 20.5236C2.92369 20.742 2.78272 20.938 2.60623 21.0988C2.42974 21.2597 2.22163 21.382 1.99519 21.4579C1.76876 21.5338 1.52899 21.5616 1.2912 21.5395H0.014687V23.1682C0.0185424 23.918 0.318117 24.6361 0.848354 25.1663C1.37859 25.6966 2.09665 25.9961 2.8465 26H17.7686C18.5185 25.9961 19.2365 25.6966 19.7668 25.1663C20.297 24.6361 20.5966 23.918 20.6005 23.1682V2.83186C20.5966 2.07947 20.295 1.35917 19.7616 0.828518C19.2282 0.297865 18.5064 -9.99561e-06 17.754 2.51548e-10ZM5.59029 8.61286C5.87638 8.61389 6.15251 8.7181 6.36796 8.90633L8.55418 7.29233C8.49413 7.1483 8.46417 6.99351 8.46615 6.83748C8.46447 6.64744 8.50955 6.45993 8.59741 6.29142C8.68527 6.1229 8.8132 5.97857 8.96996 5.87113C9.12672 5.7637 9.3075 5.69645 9.49636 5.67532C9.68523 5.65419 9.87639 5.67983 10.053 5.74997C10.2296 5.8201 10.3863 5.93258 10.5092 6.07751C10.6322 6.22244 10.7176 6.39533 10.7579 6.58104C10.7983 6.76674 10.7924 6.95953 10.7407 7.14241C10.6891 7.32529 10.5932 7.49269 10.4616 7.62981L11.8262 10.3003C11.9683 10.2501 12.1215 10.2399 12.2691 10.271C12.4166 10.302 12.5527 10.3731 12.6625 10.4763L16.5948 6.54405C16.5037 6.37722 16.4534 6.19114 16.4481 6.00112C16.4481 5.6937 16.5702 5.3989 16.7876 5.18152C17.005 4.96413 17.2998 4.84201 17.6072 4.84201C17.9146 4.84201 18.2095 4.96413 18.4269 5.18152C18.6443 5.3989 18.7664 5.6937 18.7664 6.00112C18.7722 6.20434 18.7232 6.40539 18.6243 6.58305C18.5255 6.76071 18.3805 6.90843 18.2048 7.01059C18.029 7.11275 17.8289 7.16556 17.6256 7.1635C17.4223 7.16144 17.2233 7.1046 17.0497 6.9989L13.088 10.9459C13.1584 11.0922 13.1936 11.253 13.1908 11.4153C13.1908 11.7228 13.0686 12.0176 12.8512 12.235C12.6339 12.4524 12.339 12.5745 12.0316 12.5745C11.7242 12.5745 11.4293 12.4524 11.212 12.235C10.9946 12.0176 10.8725 11.7228 10.8725 11.4153C10.8729 11.2582 10.9057 11.1029 10.9688 10.959C11.032 10.8151 11.124 10.6858 11.2393 10.579L9.90406 7.93793C9.81177 7.95325 9.71757 7.95325 9.62528 7.93793C9.39184 7.93687 9.16516 7.8596 8.9797 7.71785L6.69074 9.4052C6.70601 9.50734 6.70601 9.61117 6.69074 9.71331C6.69074 9.94257 6.62277 10.1667 6.4954 10.3573C6.36803 10.5479 6.187 10.6965 5.9752 10.7843C5.76339 10.872 5.53033 10.8949 5.30548 10.8502C5.08063 10.8055 4.87409 10.6951 4.71198 10.533C4.54987 10.3709 4.43946 10.1643 4.39473 9.93948C4.35 9.71463 4.37298 9.48155 4.46071 9.26974C4.54844 9.05794 4.697 8.87689 4.88762 8.74952C5.07824 8.62215 5.30235 8.5542 5.53161 8.5542L5.59029 8.61286ZM4.43116 16.9616C4.43116 16.7787 4.50382 16.6033 4.63315 16.474C4.76248 16.3447 4.93788 16.272 5.12078 16.272H15.2596C15.4425 16.272 15.6179 16.3447 15.7472 16.474C15.8766 16.6033 15.9492 16.7787 15.9492 16.9616V17.079C15.9492 17.2619 15.8766 17.4373 15.7472 17.5667C15.6179 17.696 15.4425 17.7686 15.2596 17.7686H5.12078C4.93788 17.7686 4.76248 17.696 4.63315 17.5667C4.50382 17.4373 4.43116 17.2619 4.43116 17.079V16.9616ZM19.0158 21.3634C19.0158 21.5463 18.9431 21.7217 18.8138 21.8511C18.6845 21.9804 18.5091 22.053 18.3262 22.053H5.12078C4.93788 22.053 4.76248 21.9804 4.63315 21.8511C4.50382 21.7217 4.43116 21.5463 4.43116 21.3634V21.3341C4.43116 21.1512 4.50382 20.9758 4.63315 20.8465C4.76248 20.7171 4.93788 20.6445 5.12078 20.6445H18.3262C18.5091 20.6445 18.6845 20.7171 18.8138 20.8465C18.9431 20.9758 19.0158 21.1512 19.0158 21.3341V21.3634Z" fill="url(#paint0_linear_1_10589)"/>
<defs>
<linearGradient id="paint0_linear_1_10589" x1="10.3002" y1="0" x2="10.3002" y2="26" gradientUnits="userSpaceOnUse">
<stop stop-color="#FF9920"/>
<stop offset="1" stop-color="#FA7E28"/>
</linearGradient>
</defs>
</svg>
