<svg width="16" height="16" viewBox="0 0 16 16" fill="none" xmlns="http://www.w3.org/2000/svg">
<path d="M10.7299 5.97263C10.7332 5.92845 10.7332 5.88408 10.7299 5.8399C11.4117 5.0785 11.8122 4.10657 11.8647 3.08586C11.8647 1.52634 11.0352 0 10.1857 0C9.33628 0 8.50012 1.52634 8.50012 3.08586C8.50884 3.5902 8.62182 4.08727 8.83194 4.54584L3.42338 1.56616C3.29084 1.49667 3.1365 1.48135 2.99289 1.52344C2.84929 1.56554 2.72764 1.66174 2.65359 1.79179C2.58267 1.92298 2.56659 2.07693 2.60887 2.21995C2.65115 2.36297 2.74836 2.48342 2.87922 2.55496L5.25499 3.88221L3.88792 5.601C3.81231 5.70499 3.77269 5.8308 3.7751 5.95935H3.70875C2.71124 6.00069 1.76832 6.42603 1.07713 7.14645C0.385952 7.86688 0 8.8266 0 9.82497C0 10.8233 0.385952 11.7831 1.07713 12.5035C1.76832 13.2239 2.71124 13.6492 3.70875 13.6906C4.16205 13.6862 4.61113 13.6031 5.036 13.445C4.51667 12.3699 4.3506 11.158 4.56157 9.98278C4.77254 8.80754 5.34974 7.72911 6.21061 6.90171C5.8233 6.56633 5.37169 6.31342 4.88336 6.15844L6.24378 4.43965L9.18366 6.0589C8.04467 6.28852 7.02009 6.90486 6.28354 7.80348C5.54699 8.7021 5.14376 9.82773 5.14218 10.9896C5.14127 11.7243 5.3045 12.4498 5.61997 13.1132C5.99128 13.9075 6.56399 14.5907 7.28116 15.095C7.99834 15.5994 8.83501 15.9072 9.70803 15.988C10.581 16.0688 11.46 15.9197 12.2575 15.5555C13.0551 15.1913 13.7434 14.6248 14.2541 13.9121C14.7649 13.1995 15.0802 12.3656 15.1688 11.4934C15.2574 10.6211 15.1162 9.74083 14.7592 8.94006C14.4021 8.1393 13.8418 7.44592 13.1338 6.92882C12.4257 6.41173 11.5947 6.08894 10.7233 5.99253L10.7299 5.97263ZM10.1791 1.23434C10.5449 1.78201 10.7368 2.42732 10.7299 3.08586C10.7059 3.66325 10.5196 4.22218 10.1924 4.69847C9.85538 4.2257 9.66183 3.66581 9.63492 3.08586C9.62614 2.42608 9.82078 1.7796 10.1924 1.23434H10.1791ZM6.87423 11.5404C6.80098 11.538 6.729 11.5207 6.66258 11.4897C6.59616 11.4587 6.53668 11.4146 6.48772 11.3601C6.43876 11.3056 6.40132 11.2417 6.37765 11.1723C6.35398 11.103 6.34456 11.0295 6.34996 10.9564C6.3614 10.8068 6.43181 10.6679 6.54568 10.5702C6.65956 10.4725 6.80758 10.4241 6.95719 10.4355C7.10679 10.4469 7.24572 10.5174 7.34342 10.6312C7.44111 10.7451 7.48958 10.8931 7.47814 11.0427C7.45693 11.1857 7.38344 11.3158 7.27189 11.4077C7.16033 11.4996 7.01864 11.5469 6.87423 11.5404ZM10.4379 8.22231C9.94617 8.22315 9.46217 8.34459 9.0283 8.57599C8.59443 8.80739 8.22393 9.14168 7.9493 9.54956C7.89656 9.62563 7.82611 9.68773 7.74403 9.73051C7.66194 9.77328 7.5707 9.79545 7.47814 9.7951C7.36641 9.79473 7.25751 9.75997 7.16623 9.69556C7.10478 9.65417 7.05209 9.60108 7.01116 9.53933C6.97023 9.47757 6.94187 9.40836 6.9277 9.33564C6.91353 9.26292 6.91381 9.18812 6.92855 9.11552C6.94329 9.04291 6.97219 8.97393 7.01359 8.91249C7.39497 8.35626 7.90605 7.90124 8.50266 7.58675C9.09926 7.27226 9.76347 7.10775 10.4379 7.10743C10.5875 7.10743 10.731 7.16685 10.8368 7.27264C10.9425 7.37842 11.002 7.5219 11.002 7.6715C11.002 7.82111 10.9425 7.96459 10.8368 8.07037C10.731 8.17616 10.5875 8.23559 10.4379 8.23559V8.22231Z" fill="url(#paint0_linear_1_1951)"/>
<defs>
<linearGradient id="paint0_linear_1_1951" x1="7.59726" y1="0" x2="7.59726" y2="16.0094" gradientUnits="userSpaceOnUse">
<stop stop-color="#FDE403"/>
<stop offset="1" stop-color="#F39200"/>
</linearGradient>
</defs>
</svg>
