<svg width="16" height="14" viewBox="0 0 16 14" fill="none" xmlns="http://www.w3.org/2000/svg">
<path d="M15.9413 5.90205C15.3056 4.11579 13.2778 2.72366 10.7669 2.36132C10.3719 1.51424 9.69897 0.827832 8.85988 0.416148C7.4296 -0.308524 6.03111 -0.0606061 5.73235 0.956478C5.66651 1.29256 5.67869 1.63925 5.76796 1.96988C5.85723 2.30051 6.0212 2.60624 6.24724 2.86351C5.22592 3.24429 4.31967 3.88129 3.61554 4.71332C3.47569 4.62433 3.32313 4.53534 3.17057 4.4527C1.74029 3.73439 0.341804 3.97594 0.0430357 4.99938C-0.0236797 5.39957 0.0111999 5.81011 0.144485 6.1933C0.277769 6.57649 0.505186 6.92007 0.805847 7.19247C0.52517 7.41912 0.305499 7.71223 0.166745 8.04524C0.0279918 8.37825 -0.0254562 8.74062 0.0112499 9.0995C0.20831 10.1611 1.57501 10.6378 3.05614 10.1547C3.30335 10.0779 3.54195 9.97561 3.76811 9.8496C4.51881 10.659 5.46094 11.2667 6.50787 11.6168C6.41041 11.8874 6.38414 12.1785 6.43159 12.4622C6.62865 13.5238 7.99536 14.0006 9.47649 13.5175C10.3754 13.2557 11.1383 12.6567 11.606 11.8456C13.7228 11.3244 15.3692 10.0657 15.954 8.48925C16.113 8.07606 15.4709 7.6438 15.4709 7.21789C15.4709 6.79199 16.0685 6.30888 15.9413 5.90205ZM12.7629 6.85556C12.6353 6.86839 12.5067 6.84229 12.3942 6.78069C12.2816 6.71909 12.1904 6.62487 12.1324 6.51043C12.0744 6.39599 12.0523 6.26667 12.0692 6.13949C12.0861 6.0123 12.1411 5.89319 12.2269 5.79782C12.3127 5.70246 12.4254 5.6353 12.5501 5.60517C12.6748 5.57504 12.8057 5.58336 12.9256 5.62902C13.0455 5.67469 13.1488 5.75556 13.2219 5.86102C13.295 5.96648 13.3344 6.09159 13.335 6.21989C13.3351 6.3863 13.2699 6.54608 13.1534 6.66494C13.0369 6.78379 12.8785 6.85224 12.7121 6.85556H12.7629Z" fill="url(#paint0_linear_1_1950)"/>
<defs>
<linearGradient id="paint0_linear_1_1950" x1="7.98966" y1="0" x2="7.98966" y2="13.7063" gradientUnits="userSpaceOnUse">
<stop stop-color="#FF9920"/>
<stop offset="1" stop-color="#FA7E28"/>
</linearGradient>
</defs>
</svg>
