<svg width="26" height="26" viewBox="0 0 26 26" fill="none" xmlns="http://www.w3.org/2000/svg">
<path d="M14.4076 16.0839C14.557 14.9913 15.1022 13.9916 15.9397 13.2743C16.7772 12.5569 17.8489 12.1719 18.9514 12.1922H25.5239C25.5864 12.1922 25.6483 12.1799 25.7061 12.156C25.7638 12.132 25.8163 12.0969 25.8605 12.0527C25.9048 12.0085 25.9398 11.956 25.9638 11.8983C25.9877 11.8405 26 11.7786 26 11.7161V10.0186C26 9.26921 25.7023 8.55051 25.1724 8.0206C24.6425 7.49069 23.9238 7.19299 23.1744 7.19299H2.85669C2.1108 7.18467 1.39189 7.47161 0.856735 7.99125C0.321583 8.51089 0.0136153 9.22107 0 9.96687V23.0704C0 23.8198 0.2977 24.5385 0.82761 25.0684C1.35752 25.5983 2.07623 25.896 2.82564 25.896H23.1744C23.9238 25.896 24.6425 25.5983 25.1724 25.0684C25.7023 24.5385 26 23.8198 26 23.0704V21.3626C26 21.2381 25.9513 21.1185 25.8642 21.0295C25.7772 20.9405 25.6587 20.8892 25.5342 20.8864H18.7651C18.1544 20.8864 17.5504 20.7586 16.992 20.5113C16.4336 20.2639 15.9332 19.9025 15.5228 19.4502C15.1124 18.9979 14.8012 18.4648 14.6091 17.885C14.4171 17.3053 14.3484 16.6918 14.4076 16.0839Z" fill="url(#paint0_linear_1_10590)"/>
<path d="M18.8065 1.36524C18.4179 0.724604 17.7916 0.263751 17.0644 0.0833935C16.3371 -0.0969639 15.5681 0.0178083 14.9252 0.40264C12.5134 1.86787 13.5798 5.5778 16.4017 5.5778C18.5637 5.5778 19.9148 3.22155 18.8065 1.36524Z" fill="url(#paint1_linear_1_10590)"/>
<path d="M20.773 18.9917C22.0535 18.9917 23.0915 17.9537 23.0915 16.6732C23.0915 15.3927 22.0535 14.3547 20.773 14.3547C19.4926 14.3547 18.4546 15.3927 18.4546 16.6732C18.4546 17.9537 19.4926 18.9917 20.773 18.9917Z" fill="url(#paint2_linear_1_10590)"/>
<defs>
<linearGradient id="paint0_linear_1_10590" x1="13" y1="3.0754e-06" x2="13" y2="25.896" gradientUnits="userSpaceOnUse">
<stop stop-color="#BFDE00"/>
<stop offset="1" stop-color="#5BCF00"/>
</linearGradient>
<linearGradient id="paint1_linear_1_10590" x1="13" y1="3.0754e-06" x2="13" y2="25.896" gradientUnits="userSpaceOnUse">
<stop stop-color="#BFDE00"/>
<stop offset="1" stop-color="#5BCF00"/>
</linearGradient>
<linearGradient id="paint2_linear_1_10590" x1="13" y1="3.0754e-06" x2="13" y2="25.896" gradientUnits="userSpaceOnUse">
<stop stop-color="#BFDE00"/>
<stop offset="1" stop-color="#5BCF00"/>
</linearGradient>
</defs>
</svg>
