<svg width="28" height="29" viewBox="0 0 28 29" fill="none" xmlns="http://www.w3.org/2000/svg">
<path d="M19.9701 0.989258H8.02992C3.63091 0.989258 0 4.5113 0 8.93111V20.7403C0 25.0911 3.5611 28.6822 8.02992 28.6822H19.9701C24.3691 28.6822 28 25.1601 28 20.7403V8.93111C27.9302 4.51127 24.3691 0.989258 19.9701 0.989258ZM14.0349 21.8453C10.0549 21.8453 6.84289 18.6685 6.84289 14.7321C6.84289 10.7957 10.0549 7.61898 14.0349 7.61898C18.015 7.61898 21.2269 10.7957 21.2269 14.7321C21.2269 18.6685 18.015 21.8453 14.0349 21.8453ZM21.4364 9.00018C20.5287 9.00018 19.7606 8.24052 19.7606 7.34276C19.7606 6.44497 20.5287 5.68531 21.4364 5.68531C22.3442 5.68531 23.1122 6.44497 23.1122 7.34276C23.1122 8.24052 22.3442 9.00018 21.4364 9.00018ZM14.0349 10.1742C11.4514 10.1742 9.42644 12.246 9.42644 14.7321C9.42644 17.2873 11.5212 19.2901 14.0349 19.2901C16.6185 19.2901 18.6434 17.2183 18.6434 14.7321C18.6434 12.246 16.5486 10.1742 14.0349 10.1742Z" fill="#E4007F"/>
</svg>
